<svg xmlns="http://www.w3.org/2000/svg" viewBox="0 0 1083.56 1926.76"><title>Asset 3</title><g id="Layer_2" data-name="Layer 2"><g id="Layer_1-2" data-name="Layer 1"><rect width="1083.56" height="1926.76" style="fill:#2464af"/><path d="M324.32,801.11a12.6,12.6,0,0,0-7.45,2.33,15.53,15.53,0,0,0-5.22,6.8,24.59,24.59,0,0,0-1.92,9.78,10.44,10.44,0,0,0,2.33,7.14,8.08,8.08,0,0,0,6.42,2.67,26.4,26.4,0,0,0,7.71-1.37V832a24.16,24.16,0,0,1-3.93,1.07,25.11,25.11,0,0,1-4.49.34q-5.79,0-9.1-3.58t-3.3-9.75a26.85,26.85,0,0,1,2.53-11.61,19.37,19.37,0,0,1,6.78-8.2,17.06,17.06,0,0,1,9.64-2.82,17.62,17.62,0,0,1,8.33,1.91L331,802.77A14.69,14.69,0,0,0,324.32,801.11Z" style="fill:#fff"/><path d="M358.86,833h-4l3.42-16.46H342.49L339,833H335l7.4-35h4.06l-3.13,14.88h15.79L362.25,798h4Z" style="fill:#fff"/><path d="M402.34,811.26a29.76,29.76,0,0,1-2.11,11.52,17.59,17.59,0,0,1-6,7.87,15.21,15.21,0,0,1-9.06,2.79q-6.13,0-9.55-3.58t-3.42-10a28.33,28.33,0,0,1,2.29-11.53,19,19,0,0,1,6.31-8,15.31,15.31,0,0,1,9-2.82,11.82,11.82,0,0,1,9.19,3.68Q402.34,804.8,402.34,811.26Zm-12.85-10.19a10.36,10.36,0,0,0-6.72,2.41,15.57,15.57,0,0,0-4.61,6.73,26.61,26.61,0,0,0-1.64,9.52q0,4.75,2.35,7.43a8,8,0,0,0,6.36,2.67,10.06,10.06,0,0,0,6.52-2.34,15.55,15.55,0,0,0,4.56-6.68,26.64,26.64,0,0,0,1.67-9.65q0-4.75-2.24-7.43A7.76,7.76,0,0,0,389.49,801.07Z" style="fill:#fff"/><path d="M440.08,811.26A29.76,29.76,0,0,1,438,822.78a17.59,17.59,0,0,1-6,7.87,15.21,15.21,0,0,1-9.06,2.79q-6.13,0-9.55-3.58t-3.42-10a28.16,28.16,0,0,1,2.3-11.53,18.9,18.9,0,0,1,6.3-8,15.31,15.31,0,0,1,9-2.82,11.82,11.82,0,0,1,9.19,3.68Q440.07,804.8,440.08,811.26Zm-12.85-10.19a10.36,10.36,0,0,0-6.72,2.41,15.57,15.57,0,0,0-4.61,6.73,26.61,26.61,0,0,0-1.64,9.52q0,4.75,2.35,7.43a8,8,0,0,0,6.36,2.67,10.06,10.06,0,0,0,6.52-2.34,15.55,15.55,0,0,0,4.56-6.68,26.64,26.64,0,0,0,1.67-9.65q0-4.75-2.24-7.43A7.76,7.76,0,0,0,427.23,801.07Z" style="fill:#fff"/><path d="M465.9,822.82a9.61,9.61,0,0,1-3.36,7.83q-3.36,2.79-9.46,2.79a25.46,25.46,0,0,1-4.46-.35,14.26,14.26,0,0,1-3.63-1.16v-4.07a17.47,17.47,0,0,0,8.14,2,9.66,9.66,0,0,0,6.15-1.8,6,6,0,0,0,2.27-5,4.82,4.82,0,0,0-1.26-3.29,18.82,18.82,0,0,0-4.67-3.36,14.84,14.84,0,0,1-5-4.07,8.28,8.28,0,0,1-1.39-4.81,9.3,9.3,0,0,1,3.15-7.28,12,12,0,0,1,8.31-2.81,20.53,20.53,0,0,1,4.41.45,20.1,20.1,0,0,1,4.32,1.56l-1.58,3.59a14.42,14.42,0,0,0-3.54-1.44,14.07,14.07,0,0,0-3.61-.53,7.68,7.68,0,0,0-5.16,1.67,5.62,5.62,0,0,0-1.95,4.51,5.29,5.29,0,0,0,.41,2.21,5.38,5.38,0,0,0,1.29,1.74,21.56,21.56,0,0,0,3.4,2.27,28.38,28.38,0,0,1,4.74,3.3,8.24,8.24,0,0,1,1.87,2.64A8.41,8.41,0,0,1,465.9,822.82Z" style="fill:#fff"/><path d="M490.75,833H473.16l7.4-35h17.58l-.76,3.66H483.84l-2.35,11.22H494.1l-.69,3.64H480.75L478,829.32h13.52Z" style="fill:#fff"/><path d="M533.24,821.83H521.37L515.51,833H511l19.11-35h4.17l4.4,35H534.6Zm-.43-3.73L532,811a81.78,81.78,0,0,1-.69-8.38c-.59,1.41-1.24,2.8-1.93,4.19s-2.68,5.17-6,11.34Z" style="fill:#fff"/><path d="M570.69,833h-4.33l-11-29.26h-.14c-.51,3.52-1.1,6.86-1.77,10L549.32,833h-3.87l7.39-35h4.31l11,29.19h.14q.72-5.35,1.73-9.69l4.16-19.5h3.92Z" style="fill:#fff"/><path d="M629.23,811.26a30,30,0,0,1-2.1,11.52,17.73,17.73,0,0,1-6,7.87,15.26,15.26,0,0,1-9.07,2.79q-6.12,0-9.55-3.58t-3.42-10a28.33,28.33,0,0,1,2.3-11.53,18.9,18.9,0,0,1,6.3-8,15.34,15.34,0,0,1,9-2.82,11.79,11.79,0,0,1,9.18,3.68Q629.24,804.8,629.23,811.26Zm-12.85-10.19a10.36,10.36,0,0,0-6.72,2.41,15.66,15.66,0,0,0-4.61,6.73,26.61,26.61,0,0,0-1.63,9.52q0,4.75,2.34,7.43a8,8,0,0,0,6.37,2.67,10.05,10.05,0,0,0,6.51-2.34,15.38,15.38,0,0,0,4.56-6.68,26.64,26.64,0,0,0,1.68-9.65q0-4.75-2.25-7.43A7.75,7.75,0,0,0,616.38,801.07Z" style="fill:#fff"/><path d="M660.94,807q0,5.94-3.92,9.07t-11.51,3.13h-3.23L639.34,833h-4.07l7.39-35h7.9c3.41,0,6,.75,7.75,2.26S660.94,804,660.94,807ZM643,815.71h3.19c3.44,0,6.06-.73,7.84-2.18a7.74,7.74,0,0,0,2.68-6.39,5.21,5.21,0,0,0-1.66-4.32A8.16,8.16,0,0,0,650,801.5h-3.9Z" style="fill:#fff"/><path d="M675.05,833h-4.12l6.63-31.37h-9.72l.79-3.61H692.2l-.72,3.61h-9.76Z" style="fill:#fff"/><path d="M692.3,833l7.45-35h4l-7.44,35Z" style="fill:#fff"/><path d="M739.83,811.26a30,30,0,0,1-2.1,11.52,17.73,17.73,0,0,1-6,7.87,15.26,15.26,0,0,1-9.07,2.79q-6.12,0-9.55-3.58t-3.42-10a28.33,28.33,0,0,1,2.3-11.53,18.9,18.9,0,0,1,6.3-8,15.34,15.34,0,0,1,9-2.82,11.79,11.79,0,0,1,9.18,3.68Q739.83,804.8,739.83,811.26ZM727,801.07a10.36,10.36,0,0,0-6.72,2.41,15.66,15.66,0,0,0-4.61,6.73,26.61,26.61,0,0,0-1.63,9.52q0,4.75,2.34,7.43a8,8,0,0,0,6.36,2.67,10.06,10.06,0,0,0,6.52-2.34,15.38,15.38,0,0,0,4.56-6.68,26.64,26.64,0,0,0,1.68-9.65q0-4.75-2.25-7.43A7.75,7.75,0,0,0,727,801.07Z" style="fill:#fff"/><path d="M771.07,833h-4.34l-11-29.26h-.14c-.52,3.52-1.11,6.86-1.78,10L749.7,833h-3.88l7.4-35h4.3l11,29.19h.14q.72-5.35,1.72-9.69l4.16-19.5h3.93Z" style="fill:#fff"/><rect x="306.91" y="1125.16" width="466.17" height="89.42" rx="20" style="fill:#ffc31d"/><path d="M414.56,1180.88H409.2v-25.7h14.73v4.46h-9.37v6.63h8.72v4.45h-8.72Z" style="fill:#fff"/><path d="M430.11,1156.15c0-1.75,1-2.62,2.92-2.62s2.92.87,2.92,2.62a2.59,2.59,0,0,1-.73,1.94,3.09,3.09,0,0,1-2.19.69C431.08,1158.78,430.11,1157.9,430.11,1156.15Zm5.59,24.73h-5.36v-19.65h5.36Z" style="fill:#fff"/><path d="M460.23,1161.23V1164l-3.08.79a5.38,5.38,0,0,1,.85,3,6,6,0,0,1-2.21,4.93,9.54,9.54,0,0,1-6.13,1.77l-1-.05-.79-.09a1.79,1.79,0,0,0-.83,1.41c0,.77,1,1.16,2.95,1.16h3.34a7.58,7.58,0,0,1,4.93,1.39,5,5,0,0,1,1.7,4.07,6.07,6.07,0,0,1-2.87,5.35c-1.92,1.26-4.67,1.9-8.26,1.9a11.37,11.37,0,0,1-6.28-1.44,4.53,4.53,0,0,1-2.17-4,4.18,4.18,0,0,1,1.11-3,6.23,6.23,0,0,1,3.25-1.71,3.57,3.57,0,0,1-1.44-1.15,2.82,2.82,0,0,1,0-3.57,7.4,7.4,0,0,1,1.88-1.47,5.24,5.24,0,0,1-2.45-2.14,6.59,6.59,0,0,1-.91-3.48,6.14,6.14,0,0,1,2.1-5,9,9,0,0,1,6-1.75,15.17,15.17,0,0,1,2,.15c.76.1,1.24.17,1.45.22Zm-15.17,22.42a2,2,0,0,0,1.06,1.75,5.87,5.87,0,0,0,3,.63,10.69,10.69,0,0,0,4.52-.79,2.41,2.41,0,0,0,1.63-2.17,1.52,1.52,0,0,0-1-1.52,7.74,7.74,0,0,0-3-.43h-2.78a4.16,4.16,0,0,0-2.47.7A2.13,2.13,0,0,0,445.06,1183.65Zm1.95-16a4,4,0,0,0,.73,2.53,2.66,2.66,0,0,0,2.22.93,2.61,2.61,0,0,0,2.22-.93,4.09,4.09,0,0,0,.7-2.53q0-3.56-2.92-3.55T447,1167.66Z" style="fill:#fff"/><path d="M483.4,1180.88H478V1169.4c0-2.84-1.05-4.25-3.16-4.25a3.58,3.58,0,0,0-3.25,1.52,9.34,9.34,0,0,0-1,5v9.25h-5.36v-27.35h5.36v5.57q0,.64-.12,3.06l-.12,1.58h.28a6.2,6.2,0,0,1,5.69-2.88,7,7,0,0,1,5.26,1.86,7.37,7.37,0,0,1,1.79,5.34Z" style="fill:#fff"/><path d="M499,1177a11.71,11.71,0,0,0,3.38-.62v4a12,12,0,0,1-4.92.9q-3.22,0-4.69-1.63a7.05,7.05,0,0,1-1.47-4.87v-9.48h-2.56V1163l2.95-1.79,1.55-4.15h3.42v4.19h5.51v4h-5.51v9.48a2.07,2.07,0,0,0,.65,1.68A2.47,2.47,0,0,0,499,1177Z" style="fill:#fff"/><path d="M507.92,1156.15c0-1.75,1-2.62,2.92-2.62s2.92.87,2.92,2.62a2.59,2.59,0,0,1-.73,1.94,3.09,3.09,0,0,1-2.19.69C508.89,1158.78,507.92,1157.9,507.92,1156.15Zm5.59,24.73h-5.36v-19.65h5.36Z" style="fill:#fff"/><path d="M539.08,1180.88h-5.37V1169.4a5.54,5.54,0,0,0-.75-3.19,2.75,2.75,0,0,0-2.41-1.06,3.62,3.62,0,0,0-3.25,1.5c-.67,1-1,2.66-1,5v9.25h-5.36v-19.65H525l.72,2.51h.3a5.62,5.62,0,0,1,2.47-2.15,8.36,8.36,0,0,1,3.58-.73,6.85,6.85,0,0,1,5.2,1.85,7.46,7.46,0,0,1,1.78,5.35Z" style="fill:#fff"/><path d="M563.5,1161.23V1164l-3.08.79a5.3,5.3,0,0,1,.85,3,6,6,0,0,1-2.21,4.93,9.53,9.53,0,0,1-6.12,1.77l-1-.05-.79-.09a1.79,1.79,0,0,0-.83,1.41c0,.77,1,1.16,2.95,1.16h3.34a7.58,7.58,0,0,1,4.93,1.39,4.92,4.92,0,0,1,1.7,4.07,6.07,6.07,0,0,1-2.87,5.35c-1.92,1.26-4.67,1.9-8.26,1.9a11.37,11.37,0,0,1-6.28-1.44,4.53,4.53,0,0,1-2.17-4,4.18,4.18,0,0,1,1.11-3,6.23,6.23,0,0,1,3.25-1.71,3.57,3.57,0,0,1-1.44-1.15,2.82,2.82,0,0,1,0-3.57,7.58,7.58,0,0,1,1.88-1.47,5.24,5.24,0,0,1-2.45-2.14,6.58,6.58,0,0,1-.9-3.48,6.13,6.13,0,0,1,2.09-5,9,9,0,0,1,6-1.75,15.17,15.17,0,0,1,2,.15c.76.1,1.24.17,1.45.22Zm-15.17,22.42a2,2,0,0,0,1.06,1.75,5.9,5.9,0,0,0,3,.63,10.69,10.69,0,0,0,4.52-.79,2.42,2.42,0,0,0,1.64-2.17,1.53,1.53,0,0,0-1-1.52,7.74,7.74,0,0,0-3-.43h-2.78a4.18,4.18,0,0,0-2.47.7A2.13,2.13,0,0,0,548.33,1183.65Zm1.95-16a4,4,0,0,0,.73,2.53,2.66,2.66,0,0,0,2.22.93,2.61,2.61,0,0,0,2.22-.93,4.09,4.09,0,0,0,.7-2.53q0-3.56-2.92-3.55C551.27,1164.11,550.28,1165.29,550.28,1167.66Z" style="fill:#fff"/><path d="M590.62,1160.86a6.35,6.35,0,0,1,5.45,2.71,12.48,12.48,0,0,1,2,7.45c0,3.24-.68,5.76-2,7.54a7.09,7.09,0,0,1-11,.16h-.37l-.9,2.16h-4.09v-27.35h5.36v6.36c0,.81-.07,2.1-.21,3.88h.21A6.2,6.2,0,0,1,590.62,1160.86Zm-1.72,4.29a3.36,3.36,0,0,0-2.9,1.22,7,7,0,0,0-1,4v.58a8.28,8.28,0,0,0,.94,4.54,3.36,3.36,0,0,0,3,1.37,3,3,0,0,0,2.62-1.52,8.16,8.16,0,0,0,1-4.42,7.82,7.82,0,0,0-1-4.35A3.09,3.09,0,0,0,588.9,1165.15Z" style="fill:#fff"/><path d="M616.75,1180.88l-1-2.67h-.14a7.92,7.92,0,0,1-2.79,2.36,9,9,0,0,1-3.73.66,6,6,0,0,1-4.46-1.62A6.22,6.22,0,0,1,603,1175a5.21,5.21,0,0,1,2.18-4.62q2.19-1.48,6.61-1.64l3.41-.11v-.86q0-3-3.06-3a14,14,0,0,0-5.54,1.43l-1.78-3.62a15.94,15.94,0,0,1,7.53-1.78,9.41,9.41,0,0,1,6.06,1.72,6.37,6.37,0,0,1,2.11,5.24v13.1Zm-1.58-9.11-2.08.07a6.62,6.62,0,0,0-3.48.85,2.64,2.64,0,0,0-1.14,2.35c0,1.51.87,2.27,2.6,2.27a4.15,4.15,0,0,0,3-1.07,3.8,3.8,0,0,0,1.12-2.85Z" style="fill:#fff"/><path d="M635.79,1181.23q-9.18,0-9.17-10.07,0-5,2.49-7.66c1.67-1.76,4-2.64,7.16-2.64a13.61,13.61,0,0,1,6.11,1.33l-1.58,4.15c-.84-.34-1.63-.62-2.35-.83a7.54,7.54,0,0,0-2.18-.33q-4.18,0-4.19,5.94,0,5.78,4.19,5.77a9.37,9.37,0,0,0,2.86-.42,10.05,10.05,0,0,0,2.64-1.29v4.59a8.72,8.72,0,0,1-2.63,1.14A14.78,14.78,0,0,1,635.79,1181.23Z" style="fill:#fff"/><path d="M653.27,1170.19l2.34-3,5.5-6h6l-7.81,8.52,8.28,11.13h-6.19l-5.66-8-2.3,1.85v6.12h-5.36v-27.35h5.36v12.2l-.28,4.46Z" style="fill:#fff"/><path d="M360.84,301.33H349.43L346,285.78c-.17-.65-.42-1.95-.77-3.89s-.61-3.55-.77-4.85c-.13,1-.34,2.37-.64,3.94s-.58,3-.86,4.33-1.47,6.66-3.56,16H328l-8.83-35.7h9.3l3.88,17.9c.88,4,1.48,7.1,1.81,9.45.21-1.66.59-3.92,1.13-6.76s1.05-5.21,1.53-7.08L340,265.63h8.93L352,279.14q.78,3.24,1.59,7.49t1.07,6.35c.22-1.81.79-4.94,1.74-9.4l3.95-17.95h9.3Z" style="fill:#fff"/><path d="M409.83,301.33h-9.69V286.78H388.93v14.55h-9.69v-35.7h9.69v13.24h11.21V265.63h9.69Z" style="fill:#fff"/><path d="M444.44,301.33l-1.75-6.69h-11.6l-1.81,6.69H418.69l11.64-35.84H443.2L455,301.33Zm-3.76-14.6-1.53-5.86c-.36-1.3-.8-3-1.31-5.05s-.85-3.55-1-4.45c-.15.83-.44,2.2-.87,4.1s-1.39,5.66-2.87,11.26Z" style="fill:#fff"/><path d="M479.6,301.33H470V273.52h-8.71v-7.89h27.05v7.89H479.6Z" style="fill:#fff"/><path d="M538.28,301.33l-1.76-6.69h-11.6l-1.8,6.69h-10.6l11.65-35.84H537l11.79,35.84Zm-3.76-14.6L533,280.87c-.36-1.3-.79-3-1.31-5.05s-.85-3.55-1-4.45c-.15.83-.44,2.2-.87,4.1s-1.38,5.66-2.87,11.26Z" style="fill:#fff"/><path d="M567.32,288.34v13h-9.64v-35.7h11.7q14.55,0,14.55,10.55c0,4.14-2,7.33-6.06,9.6l10.4,15.55H577.33l-7.56-13Zm0-7.25h1.81q5.05,0,5.06-4.47c0-2.46-1.66-3.69-5-3.69h-1.91Z" style="fill:#fff"/><path d="M617.71,301.33H596.52v-35.7h21.19v7.74H606.16V279h10.7v7.74h-10.7v6.74h11.55Z" style="fill:#fff"/><path d="M659.69,278.87l6.16-13.24h10.44l-11.74,21.76v13.94h-9.72V287.68l-11.74-22.05h10.5Z" style="fill:#fff"/><path d="M718.55,283.43q0,9-4.42,13.7t-12.94,4.69q-8.4,0-12.88-4.72t-4.48-13.72q0-8.91,4.46-13.61t13-4.7q8.52,0,12.92,4.67T718.55,283.43Zm-24.56,0q0,10.35,7.2,10.35a6.18,6.18,0,0,0,5.43-2.51q1.77-2.52,1.77-7.84c0-3.56-.59-6.19-1.79-7.9a6.12,6.12,0,0,0-5.36-2.55Q694,273,694,283.43Z" style="fill:#fff"/><path d="M760.34,265.63v21.49q0,7-4,10.85t-11.44,3.85q-7.31,0-11.22-3.74t-3.92-10.74V265.63h9.69v20.95q0,3.8,1.42,5.5a6.12,6.12,0,0,0,8.46,0q1.33-1.69,1.33-5.56v-20.9Z" style="fill:#fff"/><path d="M417.44,1776.9l2.14-2.73,5.05-5.48h5.54L423,1776.5l7.59,10.2h-5.67l-5.19-7.3-2.11,1.69v5.61h-4.91v-25.07h4.91v11.18l-.25,4.09Z" style="fill:#fff"/><path d="M444.62,1786.7l-.95-2.45h-.13a7.24,7.24,0,0,1-2.55,2.17,8.32,8.32,0,0,1-3.42.6,5.53,5.53,0,0,1-4.09-1.48,5.7,5.7,0,0,1-1.49-4.22,4.76,4.76,0,0,1,2-4.23,11.6,11.6,0,0,1,6.05-1.51l3.12-.09v-.79c0-1.83-.93-2.74-2.8-2.74a12.8,12.8,0,0,0-5.08,1.3l-1.62-3.32a14.68,14.68,0,0,1,6.89-1.62,8.55,8.55,0,0,1,5.56,1.58,5.82,5.82,0,0,1,1.93,4.8v12Zm-1.45-8.35-1.9.07a6.09,6.09,0,0,0-3.19.77,2.43,2.43,0,0,0-1.05,2.16c0,1.39.8,2.08,2.39,2.08a3.79,3.79,0,0,0,2.73-1,3.47,3.47,0,0,0,1-2.61Z" style="fill:#fff"/><path d="M463,1787a6,6,0,0,1-5-2.3h-.26c.17,1.5.26,2.37.26,2.61v7.3h-4.92v-25.94h4l.69,2.33H458a5.69,5.69,0,0,1,5.11-2.67,5.85,5.85,0,0,1,5,2.46,11.38,11.38,0,0,1,1.81,6.85,13.57,13.57,0,0,1-.85,5,7,7,0,0,1-2.41,3.24A6.16,6.16,0,0,1,463,1787Zm-1.45-14.74a3.09,3.09,0,0,0-2.66,1.12,6.42,6.42,0,0,0-.87,3.7v.53a7.66,7.66,0,0,0,.86,4.16,3.1,3.1,0,0,0,2.73,1.25c2.2,0,3.31-1.81,3.31-5.44a7.79,7.79,0,0,0-.82-4A2.76,2.76,0,0,0,461.56,1772.28Z" style="fill:#fff"/><path d="M478.91,1786.7H474v-25.07h4.91Z" style="fill:#fff"/><path d="M495.51,1786.7l-.95-2.45h-.13a7.26,7.26,0,0,1-2.56,2.17,8.26,8.26,0,0,1-3.42.6,5.51,5.51,0,0,1-4.08-1.48,5.66,5.66,0,0,1-1.49-4.22,4.75,4.75,0,0,1,2-4.23,11.65,11.65,0,0,1,6.05-1.51l3.13-.09v-.79c0-1.83-.94-2.74-2.81-2.74a12.76,12.76,0,0,0-5.07,1.3l-1.63-3.32a14.69,14.69,0,0,1,6.9-1.62,8.57,8.57,0,0,1,5.56,1.58,5.82,5.82,0,0,1,1.93,4.8v12Zm-1.45-8.35-1.9.07a6.06,6.06,0,0,0-3.19.77,2.43,2.43,0,0,0-1.05,2.16c0,1.39.79,2.08,2.38,2.08a3.79,3.79,0,0,0,2.73-1,3.44,3.44,0,0,0,1-2.61Z" style="fill:#fff"/><path d="M520.63,1786.7h-4.92v-10.52a5.09,5.09,0,0,0-.69-2.93,2.54,2.54,0,0,0-2.21-1,3.33,3.33,0,0,0-3,1.38,8.57,8.57,0,0,0-.92,4.57v8.47H504v-18h3.75l.67,2.3h.27a5.16,5.16,0,0,1,2.26-2,7.66,7.66,0,0,1,3.28-.67,6.26,6.26,0,0,1,4.77,1.7,6.79,6.79,0,0,1,1.63,4.9Z" style="fill:#fff"/><path d="M525,1784.4a2.71,2.71,0,0,1,.72-2.05,3,3,0,0,1,2.11-.69,2.83,2.83,0,0,1,2.07.71,2.69,2.69,0,0,1,.74,2,2.66,2.66,0,0,1-.75,2,2.79,2.79,0,0,1-2.06.74,2.87,2.87,0,0,1-2.09-.72A2.66,2.66,0,0,1,525,1784.4Z" style="fill:#fff"/><path d="M542.41,1787q-8.4,0-8.41-9.23c0-3.06.77-5.4,2.29-7a8.61,8.61,0,0,1,6.56-2.42,12.63,12.63,0,0,1,5.61,1.22l-1.45,3.81c-.78-.32-1.5-.57-2.16-.77a6.93,6.93,0,0,0-2-.3q-3.84,0-3.84,5.45,0,5.28,3.84,5.28a8.58,8.58,0,0,0,2.63-.38,9.25,9.25,0,0,0,2.41-1.18v4.21a7.9,7.9,0,0,1-2.41,1A13.15,13.15,0,0,1,542.41,1787Z" style="fill:#fff"/><path d="M568.44,1777.66a9.71,9.71,0,0,1-2.32,6.88,8.39,8.39,0,0,1-6.46,2.48,9,9,0,0,1-4.58-1.13,7.6,7.6,0,0,1-3.05-3.27,10.92,10.92,0,0,1-1.06-5,9.64,9.64,0,0,1,2.3-6.86,8.45,8.45,0,0,1,6.48-2.45,9,9,0,0,1,4.58,1.13,7.51,7.51,0,0,1,3,3.24A10.8,10.8,0,0,1,568.44,1777.66Zm-12.46,0a7.56,7.56,0,0,0,.88,4,3.14,3.14,0,0,0,2.86,1.37,3.1,3.1,0,0,0,2.83-1.37,7.67,7.67,0,0,0,.86-4,7.44,7.44,0,0,0-.87-4,3.7,3.7,0,0,0-5.69,0A7.45,7.45,0,0,0,556,1777.66Z" style="fill:#fff"/><path d="M588.63,1786.7h-4.92v-10.52a5.37,5.37,0,0,0-.65-2.93,2.32,2.32,0,0,0-2-1,3,3,0,0,0-2.74,1.39,9.05,9.05,0,0,0-.86,4.56v8.47H572.5v-18h3.75l.66,2.3h.28a5,5,0,0,1,2.09-1.94,6.75,6.75,0,0,1,3.14-.7q4.05,0,5.48,2.64h.44a4.81,4.81,0,0,1,2.13-2,7.14,7.14,0,0,1,3.18-.69,6.28,6.28,0,0,1,4.64,1.57c1,1,1.57,2.73,1.57,5v11.75h-4.93v-10.52a5.37,5.37,0,0,0-.65-2.93,2.34,2.34,0,0,0-2.06-1,3.07,3.07,0,0,0-2.7,1.29,7.36,7.36,0,0,0-.89,4.09Z" style="fill:#fff"/><path d="M604.21,1784.4a2.71,2.71,0,0,1,.72-2.05,3,3,0,0,1,2.11-.69,2.84,2.84,0,0,1,2.08.71,2.72,2.72,0,0,1,.73,2,2.69,2.69,0,0,1-.74,2,2.82,2.82,0,0,1-2.07.74,2.87,2.87,0,0,1-2.09-.72A2.7,2.7,0,0,1,604.21,1784.4Z" style="fill:#fff"/><path d="M626.88,1781.35a4.93,4.93,0,0,1-1.93,4.22Q623,1787,619.19,1787a17.94,17.94,0,0,1-3.35-.26,13,13,0,0,1-2.59-.78v-4.06a17.07,17.07,0,0,0,3.08,1.08,12.57,12.57,0,0,0,3,.43c1.78,0,2.67-.52,2.67-1.55a1.32,1.32,0,0,0-.35-.94,5.46,5.46,0,0,0-1.23-.82c-.58-.31-1.35-.66-2.32-1.07a14.62,14.62,0,0,1-3-1.61,4.53,4.53,0,0,1-1.42-1.7,5.56,5.56,0,0,1-.44-2.36,4.3,4.3,0,0,1,1.86-3.72,9.1,9.1,0,0,1,5.27-1.31,15,15,0,0,1,6.34,1.42l-1.49,3.54a26.32,26.32,0,0,0-2.53-1,7.81,7.81,0,0,0-2.4-.37c-1.45,0-2.17.39-2.17,1.18a1.37,1.37,0,0,0,.7,1.14,19.12,19.12,0,0,0,3.07,1.43,14.21,14.21,0,0,1,3.09,1.6,4.59,4.59,0,0,1,1.45,1.71A5.24,5.24,0,0,1,626.88,1781.35Z" style="fill:#fff"/><path d="M646.39,1768.69v2.49l-2.82.73a4.9,4.9,0,0,1,.78,2.71,5.47,5.47,0,0,1-2,4.52,8.73,8.73,0,0,1-5.61,1.62l-.89,0-.72-.08a1.61,1.61,0,0,0-.76,1.29c0,.7.9,1.06,2.71,1.06h3.06a7,7,0,0,1,4.52,1.27,4.55,4.55,0,0,1,1.55,3.74,5.53,5.53,0,0,1-2.63,4.9q-2.64,1.74-7.57,1.74a10.54,10.54,0,0,1-5.76-1.31,4.2,4.2,0,0,1-2-3.69,3.84,3.84,0,0,1,1-2.72,5.77,5.77,0,0,1,3-1.56,3.26,3.26,0,0,1-1.32-1.06,2.48,2.48,0,0,1-.57-1.55,2.52,2.52,0,0,1,.6-1.72,7.09,7.09,0,0,1,1.72-1.34,4.86,4.86,0,0,1-2.24-2,5.93,5.93,0,0,1-.83-3.19,5.64,5.64,0,0,1,1.91-4.56,8.33,8.33,0,0,1,5.48-1.61,12.61,12.61,0,0,1,1.8.14c.69.09,1.14.15,1.33.2Zm-13.9,20.56a1.77,1.77,0,0,0,1,1.59,5.33,5.33,0,0,0,2.73.58,9.68,9.68,0,0,0,4.14-.72,2.22,2.22,0,0,0,1.5-2,1.41,1.41,0,0,0-.88-1.41,7.47,7.47,0,0,0-2.74-.38h-2.55a3.86,3.86,0,0,0-2.26.63A2,2,0,0,0,632.49,1789.25Zm1.79-14.67a3.68,3.68,0,0,0,.66,2.32,2.44,2.44,0,0,0,2,.86,2.37,2.37,0,0,0,2-.86,3.74,3.74,0,0,0,.65-2.32c0-2.17-.89-3.25-2.68-3.25S634.28,1772.41,634.28,1774.58Z" style="fill:#fff"/><path d="M348.32,185.29s-16.24,0-16.24-16.24V3.11H750.66V169.05s0,16.24-16.24,16.24Z" style="fill:#2a256c"/><path d="M656.88,47.78h-6.12c14.43,8.69,23.41,18.78,23.41,29.63,0,32.39-68.65,56.2-152.41,56.2-48.4,0-91.46-8.39-119.22-21.44V119c28.75,13.23,71.52,21.63,119.22,21.63,90.47,0,156.86-27.66,156.86-61.63,0-11.36-7.9-22-21.74-31.21" style="fill:#fff"/><path d="M619.15,101.22V78.4c2.77,4.14,15.22,22.82,15.22,22.82h8V65.66h-8.89V88.37c-2.87-4.25-15-22.71-15-22.71h-8.2v35.56Zm-45.73-9.09h12.25l3.65,9.09H599.5L583.89,65.66h-5.52l-15.81,35.56h7Zm6.33-14.63L583.49,87h-7.9Zm-25.4,17.7H541.92V65.66h-8.69v35.56h21.12ZM412.52,65.66h-10v35.56h10Zm44,26.47h12.25l3.65,9.09h10.18L466.94,65.66h-5.53l-15.8,35.56h7Zm6.31-14.63L466.55,87h-7.9Zm40.6,11.17h4.15a18,18,0,0,0,6-.88,11.4,11.4,0,0,0,7.52-10.68,11.63,11.63,0,0,0-2.28-7.4c-2.28-2.87-6.12-4.25-12-4.25H494.6v35.76h8.79Zm0-17.28h2.47c4.44,0,6.42,1.67,6.42,5.53a6.35,6.35,0,0,1-1.88,4.83c-.89.79-2.07,1-5,1h-2ZM438.8,101.22,427.34,83.53h-3.07l10.17-17.87h-7.5c-.09,0-10.37,17.87-10.37,17.87l11.16,17.69Z" style="fill:#fff"/><rect x="306.91" y="1009.88" width="466.17" height="89.42" rx="20" style="fill:#ec3593"/><path d="M431.68,1052.47q0,6.35-3.61,9.72t-10.43,3.37h-7.28v-25.7h8.07q6.29,0,9.77,3.33T431.68,1052.47Zm-5.66.14q0-8.28-7.31-8.28h-2.9v16.73h2.34Q426,1061.06,426,1052.61Z" style="fill:#fff"/><path d="M450.87,1065.56l-1-2.67h-.14a7.86,7.86,0,0,1-2.79,2.37,9,9,0,0,1-3.73.66,6,6,0,0,1-4.46-1.62,6.23,6.23,0,0,1-1.62-4.61,5.2,5.2,0,0,1,2.18-4.61q2.19-1.49,6.61-1.64l3.41-.11v-.86q0-3-3.06-3a13.92,13.92,0,0,0-5.54,1.42l-1.78-3.62a16,16,0,0,1,7.53-1.77,9.35,9.35,0,0,1,6.06,1.72,6.35,6.35,0,0,1,2.11,5.24v13.09Zm-1.58-9.1-2.08.07a6.72,6.72,0,0,0-3.48.84,2.66,2.66,0,0,0-1.14,2.36c0,1.51.87,2.27,2.6,2.27a4.12,4.12,0,0,0,3-1.08,3.76,3.76,0,0,0,1.12-2.84Z" style="fill:#fff"/><path d="M459.12,1045.91H465L468.7,1057a15.31,15.31,0,0,1,.65,3.41h.1a15.29,15.29,0,0,1,.76-3.41l3.64-11.06h5.75l-8.32,22.17a9.59,9.59,0,0,1-3.26,4.6,8.22,8.22,0,0,1-4.95,1.53,12.39,12.39,0,0,1-2.72-.3v-4.25a9.28,9.28,0,0,0,2.11.23A3.82,3.82,0,0,0,465,1069a5.74,5.74,0,0,0,1.66-2.63l.31-1Z" style="fill:#fff"/><path d="M490.43,1065.92a6.39,6.39,0,0,1-5.44-2.69,12.38,12.38,0,0,1-2-7.46c0-3.22.68-5.73,2-7.53a6.53,6.53,0,0,1,5.54-2.7,6.39,6.39,0,0,1,5.66,2.89h.18a22.05,22.05,0,0,1-.41-3.92v-6.3h5.38v27.35h-4.11l-1-2.54H496A6.12,6.12,0,0,1,490.43,1065.92Zm1.88-4.28a3.64,3.64,0,0,0,3-1.19,6.89,6.89,0,0,0,1-4.06v-.58a8.08,8.08,0,0,0-1-4.54,3.63,3.63,0,0,0-3.17-1.37,3.15,3.15,0,0,0-2.79,1.52,8.15,8.15,0,0,0-1,4.42,7.64,7.64,0,0,0,1,4.35A3.26,3.26,0,0,0,492.31,1061.64Z" style="fill:#fff"/><path d="M519.76,1045.54a9,9,0,0,1,1.81.16l-.4,5a6.06,6.06,0,0,0-1.59-.18,5.65,5.65,0,0,0-4,1.32,4.75,4.75,0,0,0-1.44,3.69v10h-5.36v-19.65h4.06l.79,3.31h.27a7.37,7.37,0,0,1,2.47-2.67A6.09,6.09,0,0,1,519.76,1045.54Z" style="fill:#fff"/><path d="M535.83,1065.92a10.15,10.15,0,0,1-7.41-2.62q-2.68-2.62-2.68-7.42c0-3.29.83-5.84,2.47-7.64a8.81,8.81,0,0,1,6.83-2.7,8.64,8.64,0,0,1,6.49,2.38,8.94,8.94,0,0,1,2.32,6.55v2.6H531.17a5.12,5.12,0,0,0,1.36,3.57,4.75,4.75,0,0,0,3.55,1.29,15.17,15.17,0,0,0,3.36-.37,17.12,17.12,0,0,0,3.3-1.18v4.15a12.68,12.68,0,0,1-3,1A18.87,18.87,0,0,1,535.83,1065.92Zm-.75-16.56a3.39,3.39,0,0,0-2.67,1.08,4.94,4.94,0,0,0-1.11,3.07h7.52a4.44,4.44,0,0,0-1-3.07A3.5,3.5,0,0,0,535.08,1049.36Z" style="fill:#fff"/><path d="M562.49,1065.56l-1-2.67h-.14a7.86,7.86,0,0,1-2.79,2.37,9,9,0,0,1-3.73.66,6,6,0,0,1-4.46-1.62,6.23,6.23,0,0,1-1.62-4.61,5.18,5.18,0,0,1,2.19-4.61q2.18-1.49,6.6-1.64l3.41-.11v-.86q0-3-3.06-3a13.92,13.92,0,0,0-5.54,1.42l-1.77-3.62a16,16,0,0,1,7.52-1.77,9.33,9.33,0,0,1,6.06,1.72,6.35,6.35,0,0,1,2.11,5.24v13.09Zm-1.58-9.1-2.08.07a6.72,6.72,0,0,0-3.48.84,2.66,2.66,0,0,0-1.14,2.36c0,1.51.87,2.27,2.6,2.27a4.1,4.1,0,0,0,3-1.08,3.76,3.76,0,0,0,1.12-2.84Z" style="fill:#fff"/><path d="M591.15,1065.56h-5.36v-11.47a5.7,5.7,0,0,0-.72-3.19,2.5,2.5,0,0,0-2.24-1.07,3.25,3.25,0,0,0-3,1.51,9.83,9.83,0,0,0-.94,5v9.24h-5.36v-19.65h4.1l.72,2.52h.3a5.38,5.38,0,0,1,2.28-2.12,7.44,7.44,0,0,1,3.43-.77q4.41,0,6,2.89h.47a5.3,5.3,0,0,1,2.33-2.13,7.69,7.69,0,0,1,3.47-.76,6.85,6.85,0,0,1,5.06,1.72q1.71,1.71,1.71,5.49v12.81H598v-11.47a5.8,5.8,0,0,0-.71-3.19,2.51,2.51,0,0,0-2.24-1.07,3.35,3.35,0,0,0-3,1.41,8,8,0,0,0-1,4.46Z" style="fill:#fff"/><path d="M610.47,1040.83c0-1.74,1-2.62,2.92-2.62s2.92.88,2.92,2.62a2.53,2.53,0,0,1-.73,1.94,3,3,0,0,1-2.19.7C611.45,1043.47,610.47,1042.59,610.47,1040.83Zm5.59,24.73H610.7v-19.65h5.36Z" style="fill:#fff"/><path d="M641.63,1065.56h-5.36v-11.47a5.44,5.44,0,0,0-.76-3.19,2.74,2.74,0,0,0-2.41-1.07,3.62,3.62,0,0,0-3.25,1.5,9.35,9.35,0,0,0-1,5v9.24h-5.36v-19.65h4.09l.72,2.52h.3a5.71,5.71,0,0,1,2.47-2.16,8.51,8.51,0,0,1,3.58-.73,6.84,6.84,0,0,1,5.2,1.86,7.4,7.4,0,0,1,1.78,5.35Z" style="fill:#fff"/><path d="M666.05,1045.91v2.73l-3.07.79a5.37,5.37,0,0,1,.84,3,6,6,0,0,1-2.21,4.93,9.53,9.53,0,0,1-6.12,1.77l-1,0-.79-.09a1.79,1.79,0,0,0-.83,1.4c0,.78,1,1.16,3,1.16h3.34a7.66,7.66,0,0,1,4.93,1.39,5,5,0,0,1,1.69,4.08,6,6,0,0,1-2.87,5.34q-2.88,1.9-8.25,1.9a11.39,11.39,0,0,1-6.29-1.43,4.55,4.55,0,0,1-2.17-4,4.21,4.21,0,0,1,1.11-3,6.33,6.33,0,0,1,3.25-1.7,3.66,3.66,0,0,1-1.44-1.15,2.82,2.82,0,0,1,0-3.57,7.66,7.66,0,0,1,1.89-1.47,5.32,5.32,0,0,1-2.46-2.14,6.58,6.58,0,0,1-.9-3.48,6.15,6.15,0,0,1,2.09-5,9.06,9.06,0,0,1,6-1.76,15.3,15.3,0,0,1,2,.15c.75.1,1.24.17,1.45.22Zm-15.17,22.43a1.94,1.94,0,0,0,1.07,1.74,5.83,5.83,0,0,0,3,.63,10.5,10.5,0,0,0,4.52-.79,2.4,2.4,0,0,0,1.64-2.16,1.52,1.52,0,0,0-1-1.53,7.94,7.94,0,0,0-3-.42h-2.78a4.2,4.2,0,0,0-2.46.69A2.15,2.15,0,0,0,650.88,1068.34Zm2-16a4,4,0,0,0,.73,2.53,2.66,2.66,0,0,0,2.23.93,2.6,2.6,0,0,0,2.21-.93,4.11,4.11,0,0,0,.7-2.53q0-3.55-2.91-3.56T652.83,1052.35Z" style="fill:#fff"/><rect x="306.91" y="1243.45" width="466.17" height="89.42" rx="20" style="fill:#ec1a3e"/><path d="M466.25,1292.61a6.62,6.62,0,0,1-2.5,5.48,10.87,10.87,0,0,1-7,2,16.41,16.41,0,0,1-7.28-1.55v-5.06a29.4,29.4,0,0,0,4.4,1.63,12.89,12.89,0,0,0,3.3.48,4.67,4.67,0,0,0,2.75-.69,2.33,2.33,0,0,0,1-2,2.25,2.25,0,0,0-.42-1.34,4.76,4.76,0,0,0-1.24-1.13,31.74,31.74,0,0,0-3.33-1.75,15.68,15.68,0,0,1-3.54-2.12,8,8,0,0,1-1.88-2.38,6.72,6.72,0,0,1-.7-3.16,6.64,6.64,0,0,1,2.31-5.36,9.61,9.61,0,0,1,6.39-2,15.32,15.32,0,0,1,3.82.47,27.28,27.28,0,0,1,3.81,1.34l-1.76,4.24a24.16,24.16,0,0,0-3.4-1.18,11.14,11.14,0,0,0-2.65-.34,3.5,3.5,0,0,0-2.37.72,2.4,2.4,0,0,0-.82,1.89,2.33,2.33,0,0,0,.33,1.25,3.63,3.63,0,0,0,1.06,1,34.81,34.81,0,0,0,3.46,1.8,13.84,13.84,0,0,1,4.94,3.45A6.76,6.76,0,0,1,466.25,1292.61Z" style="fill:#fff"/><path d="M483.08,1300.1a6.5,6.5,0,0,1-5.43-2.52h-.28c.19,1.65.28,2.59.28,2.85v8h-5.36v-28.31h4.36l.75,2.55h.25a6.2,6.2,0,0,1,5.57-2.91,6.38,6.38,0,0,1,5.45,2.68,12.5,12.5,0,0,1,2,7.48,14.83,14.83,0,0,1-.92,5.46,7.69,7.69,0,0,1-2.63,3.54A6.8,6.8,0,0,1,483.08,1300.1ZM481.5,1284a3.37,3.37,0,0,0-2.9,1.23,7,7,0,0,0-1,4v.58a8.28,8.28,0,0,0,.94,4.54,3.37,3.37,0,0,0,3,1.37q3.6,0,3.6-5.94a8.54,8.54,0,0,0-.88-4.36A3.06,3.06,0,0,0,481.5,1284Z" style="fill:#fff"/><path d="M505.76,1300.1a10.11,10.11,0,0,1-7.41-2.62c-1.78-1.75-2.68-4.22-2.68-7.42s.83-5.84,2.47-7.64a8.8,8.8,0,0,1,6.83-2.69,8.67,8.67,0,0,1,6.49,2.37,9,9,0,0,1,2.32,6.55v2.61H501.11a5.11,5.11,0,0,0,1.35,3.56,4.75,4.75,0,0,0,3.55,1.29,14.6,14.6,0,0,0,3.36-.37,17.12,17.12,0,0,0,3.3-1.18v4.15a12.55,12.55,0,0,1-3,1A19.66,19.66,0,0,1,505.76,1300.1Zm-.75-16.56a3.39,3.39,0,0,0-2.67,1.08,4.94,4.94,0,0,0-1.11,3.07h7.52a4.48,4.48,0,0,0-1-3.07A3.52,3.52,0,0,0,505,1283.54Z" style="fill:#fff"/><path d="M538.08,1299.75h-5.36v-11.48a5.46,5.46,0,0,0-.76-3.19,2.74,2.74,0,0,0-2.41-1.07,3.63,3.63,0,0,0-3.25,1.51c-.67,1-1,2.66-1,5v9.25h-5.36v-19.66H524l.73,2.52h.29a5.76,5.76,0,0,1,2.47-2.16,8.54,8.54,0,0,1,3.58-.72,6.84,6.84,0,0,1,5.2,1.85,7.42,7.42,0,0,1,1.78,5.35Z" style="fill:#fff"/><path d="M551.62,1300.1a6.39,6.39,0,0,1-5.44-2.69,12.35,12.35,0,0,1-2-7.45c0-3.23.68-5.74,2-7.54a6.52,6.52,0,0,1,5.54-2.69,6.4,6.4,0,0,1,5.66,2.88h.18a22,22,0,0,1-.41-3.92v-6.29h5.38v27.35h-4.11l-1-2.55h-.23A6.12,6.12,0,0,1,551.62,1300.1Zm1.88-4.27a3.64,3.64,0,0,0,3-1.2,6.89,6.89,0,0,0,1-4.06V1290a8,8,0,0,0-1-4.53,3.61,3.61,0,0,0-3.17-1.38,3.14,3.14,0,0,0-2.79,1.53,8.11,8.11,0,0,0-1,4.42,7.69,7.69,0,0,0,1,4.35A3.28,3.28,0,0,0,553.5,1295.83Z" style="fill:#fff"/><path d="M569.75,1275c0-1.74,1-2.61,2.92-2.61s2.92.87,2.92,2.61a2.59,2.59,0,0,1-.73,2,3.09,3.09,0,0,1-2.19.69C570.72,1277.65,569.75,1276.77,569.75,1275Zm5.59,24.74H570v-19.66h5.36Z" style="fill:#fff"/><path d="M600.91,1299.75h-5.36v-11.48a5.54,5.54,0,0,0-.76-3.19,2.75,2.75,0,0,0-2.41-1.07,3.63,3.63,0,0,0-3.25,1.51c-.67,1-1,2.66-1,5v9.25h-5.36v-19.66h4.09l.72,2.52h.3a5.71,5.71,0,0,1,2.47-2.16,8.51,8.51,0,0,1,3.58-.72,6.85,6.85,0,0,1,5.2,1.85,7.42,7.42,0,0,1,1.78,5.35Z" style="fill:#fff"/><path d="M625.33,1280.09v2.73l-3.08.79a5.3,5.3,0,0,1,.85,3,6,6,0,0,1-2.21,4.93,9.53,9.53,0,0,1-6.12,1.77l-1,0-.79-.09a1.79,1.79,0,0,0-.83,1.41c0,.77,1,1.16,3,1.16h3.34a7.66,7.66,0,0,1,4.93,1.38,5,5,0,0,1,1.69,4.08,6.07,6.07,0,0,1-2.87,5.35c-1.92,1.26-4.67,1.9-8.25,1.9a11.39,11.39,0,0,1-6.29-1.44,4.53,4.53,0,0,1-2.17-4,4.18,4.18,0,0,1,1.11-3,6.27,6.27,0,0,1,3.25-1.71,3.57,3.57,0,0,1-1.44-1.15,2.82,2.82,0,0,1,0-3.57,7.58,7.58,0,0,1,1.88-1.47,5.29,5.29,0,0,1-2.45-2.14,6.58,6.58,0,0,1-.9-3.48,6.12,6.12,0,0,1,2.09-5,9.06,9.06,0,0,1,6-1.75,17.1,17.1,0,0,1,2,.14c.75.1,1.23.18,1.45.22Zm-15.17,22.43a2,2,0,0,0,1.06,1.74,5.79,5.79,0,0,0,3,.64,10.66,10.66,0,0,0,4.52-.79,2.42,2.42,0,0,0,1.64-2.17,1.55,1.55,0,0,0-1-1.53,8,8,0,0,0-3-.42h-2.78a4.18,4.18,0,0,0-2.47.7A2.13,2.13,0,0,0,610.16,1302.52Zm2-16a4,4,0,0,0,.73,2.53,2.66,2.66,0,0,0,2.23.93,2.6,2.6,0,0,0,2.21-.93,4.11,4.11,0,0,0,.7-2.53q0-3.55-2.91-3.55T612.11,1286.53Z" style="fill:#fff"/><rect x="306.91" y="886.44" width="466.17" height="89.42" rx="20" style="fill:#8fb73e"/><path d="M458.71,930.39h10.2v13.33a28,28,0,0,1-9.14,1.45q-5.82,0-8.89-3.41t-3.06-9.82q0-6.23,3.56-9.7t9.87-3.49a19,19,0,0,1,7.63,1.59l-1.82,4.36a12.87,12.87,0,0,0-5.85-1.41,7.24,7.24,0,0,0-5.66,2.37,9.19,9.19,0,0,0-2.13,6.38,10.26,10.26,0,0,0,1.72,6.39,5.92,5.92,0,0,0,5,2.21,17.89,17.89,0,0,0,3.46-.35v-5.36h-4.87Z" style="fill:#fff"/><path d="M485.3,945.17a10.17,10.17,0,0,1-7.42-2.61q-2.67-2.62-2.67-7.42c0-3.3.82-5.84,2.47-7.64a8.79,8.79,0,0,1,6.83-2.7,8.67,8.67,0,0,1,6.49,2.37,9,9,0,0,1,2.32,6.56v2.6H480.64A5.12,5.12,0,0,0,482,939.9a4.73,4.73,0,0,0,3.55,1.28,15,15,0,0,0,3.35-.36,17,17,0,0,0,3.31-1.18v4.15a13.06,13.06,0,0,1-3,1A18.77,18.77,0,0,1,485.3,945.17Zm-.76-16.55a3.42,3.42,0,0,0-2.67,1.08,5.06,5.06,0,0,0-1.11,3.06h7.53a4.48,4.48,0,0,0-1-3.06A3.52,3.52,0,0,0,484.54,928.62Z" style="fill:#fff"/><path d="M508.37,945.17a10.17,10.17,0,0,1-7.42-2.61q-2.67-2.62-2.67-7.42c0-3.3.82-5.84,2.47-7.64a8.79,8.79,0,0,1,6.83-2.7,8.67,8.67,0,0,1,6.49,2.37,9,9,0,0,1,2.32,6.56v2.6H503.71a5.12,5.12,0,0,0,1.36,3.57,4.73,4.73,0,0,0,3.55,1.28,15,15,0,0,0,3.35-.36,17,17,0,0,0,3.31-1.18v4.15a13.06,13.06,0,0,1-3,1A18.84,18.84,0,0,1,508.37,945.17Zm-.76-16.55a3.42,3.42,0,0,0-2.67,1.08,5.06,5.06,0,0,0-1.11,3.06h7.53a4.48,4.48,0,0,0-1-3.06A3.52,3.52,0,0,0,507.61,928.62Z" style="fill:#fff"/><path d="M527.69,934.14l2.34-3,5.5-6h6.05l-7.8,8.53,8.28,11.12h-6.19l-5.66-8-2.3,1.85v6.11h-5.37V917.47h5.37v12.2l-.29,4.47Z" style="fill:#fff"/><path d="M552.89,945.17a6.38,6.38,0,0,1-5.44-2.68,12.38,12.38,0,0,1-2-7.46q0-4.83,2-7.53a6.53,6.53,0,0,1,5.54-2.7,6.4,6.4,0,0,1,5.66,2.88h.18a21.87,21.87,0,0,1-.41-3.92v-6.29h5.38v27.35h-4.11l-1-2.55h-.23A6.1,6.1,0,0,1,552.89,945.17Zm1.88-4.27a3.67,3.67,0,0,0,3-1.19,7,7,0,0,0,1-4.06v-.58a8.08,8.08,0,0,0-1-4.54,3.64,3.64,0,0,0-3.18-1.37,3.15,3.15,0,0,0-2.78,1.52,8.13,8.13,0,0,0-1,4.42,7.64,7.64,0,0,0,1,4.35A3.26,3.26,0,0,0,554.77,940.9Z" style="fill:#fff"/><path d="M589.11,935a10.57,10.57,0,0,1-2.53,7.51,9.2,9.2,0,0,1-7.05,2.7,9.9,9.9,0,0,1-5-1.23,8.37,8.37,0,0,1-3.33-3.56,12,12,0,0,1-1.16-5.42q0-4.82,2.52-7.49a9.22,9.22,0,0,1,7.06-2.67,9.94,9.94,0,0,1,5,1.23,8.18,8.18,0,0,1,3.32,3.54A11.86,11.86,0,0,1,589.11,935Zm-13.59,0a8.2,8.2,0,0,0,1,4.41,3.42,3.42,0,0,0,3.12,1.5,3.36,3.36,0,0,0,3.08-1.49,8.32,8.32,0,0,0,1-4.42,8.18,8.18,0,0,0-1-4.38,3.45,3.45,0,0,0-3.12-1.45,3.4,3.4,0,0,0-3.09,1.45A8.09,8.09,0,0,0,575.52,935Z" style="fill:#fff"/><path d="M612.93,944.82h-5.36V933.34a5.76,5.76,0,0,0-.71-3.19,2.49,2.49,0,0,0-2.24-1.06,3.24,3.24,0,0,0-3,1.51,10,10,0,0,0-.93,5v9.24h-5.36V925.17h4.09l.73,2.51h.29a5.45,5.45,0,0,1,2.29-2.11,7.44,7.44,0,0,1,3.43-.77q4.41,0,6,2.88h.48a5.29,5.29,0,0,1,2.33-2.12,7.66,7.66,0,0,1,3.47-.76,6.81,6.81,0,0,1,5.05,1.72q1.72,1.71,1.72,5.49v12.81h-5.38V933.34a5.84,5.84,0,0,0-.71-3.19,2.52,2.52,0,0,0-2.25-1.06,3.34,3.34,0,0,0-2.94,1.41,7.94,7.94,0,0,0-1,4.46Z" style="fill:#fff"/><path d="M55.93,1864.81H54.76l-3.13-4.15-.89.79v3.36h-1v-8.57h1v4.25l3.88-4.25H55.8L52.36,1860Z" style="fill:#fff"/><path d="M60.91,1864.81l-.19-.91h0a2.66,2.66,0,0,1-1,.81,2.78,2.78,0,0,1-1.19.22,2.14,2.14,0,0,1-1.5-.5,1.78,1.78,0,0,1-.54-1.4c0-1.29,1-2,3.11-2l1.09,0v-.4a1.65,1.65,0,0,0-.32-1.11,1.35,1.35,0,0,0-1-.36,4.22,4.22,0,0,0-1.82.49l-.3-.75a4.78,4.78,0,0,1,1-.4,4.46,4.46,0,0,1,1.14-.15,2.45,2.45,0,0,1,1.7.51,2.14,2.14,0,0,1,.55,1.64v4.38Zm-2.2-.69a2,2,0,0,0,1.43-.49,1.85,1.85,0,0,0,.52-1.4v-.58l-1,0a3.61,3.61,0,0,0-1.68.36,1.11,1.11,0,0,0-.51,1,1,1,0,0,0,.32.8A1.33,1.33,0,0,0,58.71,1864.12Z" style="fill:#fff"/><path d="M66.62,1864.93a2.83,2.83,0,0,1-1.14-.23,2.17,2.17,0,0,1-.87-.72h-.07a10.27,10.27,0,0,1,.07,1.07v2.64h-1v-9.3h.8l.13.88h0a2.22,2.22,0,0,1,.87-.76,2.58,2.58,0,0,1,1.14-.24,2.37,2.37,0,0,1,2,.87,4.63,4.63,0,0,1,0,4.91A2.39,2.39,0,0,1,66.62,1864.93Zm-.14-5.83a1.73,1.73,0,0,0-1.42.54,2.86,2.86,0,0,0-.45,1.74v.21a3.22,3.22,0,0,0,.45,1.94,1.71,1.71,0,0,0,1.45.58,1.49,1.49,0,0,0,1.3-.67,3.24,3.24,0,0,0,.47-1.86,3.1,3.1,0,0,0-.47-1.84A1.54,1.54,0,0,0,66.48,1859.1Z" style="fill:#fff"/><path d="M72,1864.81H71v-9.12h1Z" style="fill:#fff"/><path d="M78,1864.81l-.19-.91h0a2.66,2.66,0,0,1-1,.81,2.75,2.75,0,0,1-1.19.22,2.13,2.13,0,0,1-1.49-.5,1.75,1.75,0,0,1-.55-1.4c0-1.29,1-2,3.11-2l1.09,0v-.4a1.6,1.6,0,0,0-.32-1.11,1.34,1.34,0,0,0-1-.36,4.22,4.22,0,0,0-1.82.49l-.3-.75a5,5,0,0,1,1-.4,4.46,4.46,0,0,1,1.14-.15,2.45,2.45,0,0,1,1.7.51,2.14,2.14,0,0,1,.55,1.64v4.38Zm-2.19-.69a2,2,0,0,0,1.42-.49,1.85,1.85,0,0,0,.52-1.4v-.58l-1,0a3.57,3.57,0,0,0-1.67.36,1.09,1.09,0,0,0-.52,1,1,1,0,0,0,.32.8A1.34,1.34,0,0,0,75.78,1864.12Z" style="fill:#fff"/><path d="M85.09,1864.81v-4.15a1.68,1.68,0,0,0-.36-1.18,1.46,1.46,0,0,0-1.11-.38,1.85,1.85,0,0,0-1.48.54,2.77,2.77,0,0,0-.47,1.8v3.37h-1v-6.42h.79l.16.88h0a2,2,0,0,1,.84-.74,2.78,2.78,0,0,1,1.2-.26,2.45,2.45,0,0,1,1.75.56,2.38,2.38,0,0,1,.58,1.79v4.19Z" style="fill:#fff"/><path d="M97.83,1864.81h-1v-4H92.32v4h-1v-8.57h1v3.65h4.51v-3.65h1Z" style="fill:#fff"/><path d="M100,1856.65a.63.63,0,0,1,.17-.49.53.53,0,0,1,.41-.16.59.59,0,0,1,.4.16.79.79,0,0,1,0,1,.59.59,0,0,1-.4.16.57.57,0,0,1-.41-.16A.66.66,0,0,1,100,1856.65Zm1.06,8.16h-1v-6.42h1Z" style="fill:#fff"/><path d="M108.32,1858.39v.61l-1.19.14a2.26,2.26,0,0,1,.3.54,2.18,2.18,0,0,1,.13.75,1.88,1.88,0,0,1-.65,1.5,2.58,2.58,0,0,1-1.77.57,3.1,3.1,0,0,1-.54,0,1,1,0,0,0-.62.82.41.41,0,0,0,.22.39,1.48,1.48,0,0,0,.74.13h1.14a2.54,2.54,0,0,1,1.6.44,1.51,1.51,0,0,1,.56,1.28,1.81,1.81,0,0,1-.85,1.62,4.54,4.54,0,0,1-2.5.56,3.33,3.33,0,0,1-1.94-.47,1.49,1.49,0,0,1-.68-1.32,1.47,1.47,0,0,1,.37-1,1.86,1.86,0,0,1,1.06-.58,1,1,0,0,1-.42-.35.93.93,0,0,1-.16-.54,1.08,1.08,0,0,1,.18-.62,2,2,0,0,1,.59-.51,1.76,1.76,0,0,1-.81-.7,2,2,0,0,1-.31-1.12,2.08,2.08,0,0,1,.63-1.63,2.59,2.59,0,0,1,1.8-.57,3.16,3.16,0,0,1,.9.12Zm-5.12,7.5a.87.87,0,0,0,.44.79,2.46,2.46,0,0,0,1.26.27,3.49,3.49,0,0,0,1.82-.37,1.11,1.11,0,0,0,.58-1,.76.76,0,0,0-.32-.72,2.41,2.41,0,0,0-1.21-.21H104.6a1.55,1.55,0,0,0-1,.32A1.15,1.15,0,0,0,103.2,1865.89Zm.53-5.45a1.32,1.32,0,0,0,.38,1,1.54,1.54,0,0,0,1.06.35,1.24,1.24,0,0,0,1.43-1.38,1.28,1.28,0,0,0-1.45-1.45,1.42,1.42,0,0,0-1.05.37A1.45,1.45,0,0,0,103.73,1860.44Z" style="fill:#fff"/><path d="M114,1864.81v-4.15a1.68,1.68,0,0,0-.36-1.18,1.49,1.49,0,0,0-1.12-.38,1.82,1.82,0,0,0-1.48.55,2.78,2.78,0,0,0-.46,1.8v3.36h-1v-9.12h1v2.76a6.25,6.25,0,0,1-.05.83h.06a2,2,0,0,1,.81-.73,2.66,2.66,0,0,1,1.21-.27,2.49,2.49,0,0,1,1.77.56,2.39,2.39,0,0,1,.59,1.78v4.19Z" style="fill:#fff"/><path d="M119.72,1864.93a3,3,0,0,1-2.25-.87,3.35,3.35,0,0,1-.82-2.41,3.74,3.74,0,0,1,.77-2.47,2.54,2.54,0,0,1,2-.91,2.46,2.46,0,0,1,1.91.79,3,3,0,0,1,.7,2.1v.61h-4.42a2.55,2.55,0,0,0,.57,1.72,2,2,0,0,0,1.53.59,5.18,5.18,0,0,0,2-.44v.87a4.85,4.85,0,0,1-1,.32A5.85,5.85,0,0,1,119.72,1864.93Zm-.26-5.84a1.58,1.58,0,0,0-1.24.5,2.38,2.38,0,0,0-.54,1.39H121a2.17,2.17,0,0,0-.41-1.41A1.46,1.46,0,0,0,119.46,1859.09Z" style="fill:#fff"/><path d="M126.67,1858.27a3.61,3.61,0,0,1,.77.07l-.14.9a3.13,3.13,0,0,0-.7-.08,1.71,1.71,0,0,0-1.33.63,2.3,2.3,0,0,0-.56,1.57v3.45h-1v-6.42h.8l.11,1.19h0a2.93,2.93,0,0,1,.86-1A1.94,1.94,0,0,1,126.67,1858.27Z" style="fill:#fff"/><path d="M136.68,1864.81H131.9v-8.57h4.78v.89H132.9v2.76h3.55v.88H132.9v3.15h3.78Z" style="fill:#fff"/><path d="M142.8,1864h-.05a2.29,2.29,0,0,1-2,1,2.4,2.4,0,0,1-2-.86,4.64,4.64,0,0,1,0-4.92,2.6,2.6,0,0,1,4,.07h.07l0-.46,0-.45v-2.62h1v9.12h-.79Zm-1.94.16a1.77,1.77,0,0,0,1.44-.54,2.72,2.72,0,0,0,.45-1.75v-.2a3.18,3.18,0,0,0-.46-1.95,1.71,1.71,0,0,0-1.45-.58,1.5,1.5,0,0,0-1.31.66,3.33,3.33,0,0,0-.45,1.88,3.19,3.19,0,0,0,.45,1.86A1.54,1.54,0,0,0,140.86,1864.11Z" style="fill:#fff"/><path d="M146.7,1858.39v4.16a1.73,1.73,0,0,0,.35,1.18,1.5,1.5,0,0,0,1.12.38,1.82,1.82,0,0,0,1.48-.55,2.8,2.8,0,0,0,.46-1.8v-3.37h1v6.42h-.81l-.14-.86h0a1.94,1.94,0,0,1-.83.72,2.76,2.76,0,0,1-1.21.26,2.44,2.44,0,0,1-1.75-.56,2.36,2.36,0,0,1-.59-1.78v-4.2Z" style="fill:#fff"/><path d="M155.71,1864.93a2.74,2.74,0,0,1-2.15-.86,3.52,3.52,0,0,1-.77-2.43,3.64,3.64,0,0,1,.78-2.49,2.78,2.78,0,0,1,2.21-.88,4.2,4.2,0,0,1,.93.1,3.22,3.22,0,0,1,.72.23l-.3.83a3.58,3.58,0,0,0-.7-.21,3,3,0,0,0-.67-.09c-1.31,0-2,.83-2,2.5a2.93,2.93,0,0,0,.48,1.81,1.63,1.63,0,0,0,1.41.64,4.33,4.33,0,0,0,1.65-.35v.86A3.43,3.43,0,0,1,155.71,1864.93Z" style="fill:#fff"/><path d="M162.81,1864.81l-.19-.91h-.05a2.66,2.66,0,0,1-1,.81,2.78,2.78,0,0,1-1.19.22,2.14,2.14,0,0,1-1.5-.5,1.78,1.78,0,0,1-.54-1.4c0-1.29,1-2,3.11-2l1.09,0v-.4a1.65,1.65,0,0,0-.32-1.11,1.35,1.35,0,0,0-1-.36,4.22,4.22,0,0,0-1.82.49l-.3-.75a4.78,4.78,0,0,1,1-.4,4.46,4.46,0,0,1,1.14-.15,2.45,2.45,0,0,1,1.7.51,2.14,2.14,0,0,1,.55,1.64v4.38Zm-2.2-.69a2,2,0,0,0,1.43-.49,1.85,1.85,0,0,0,.52-1.4v-.58l-1,0a3.65,3.65,0,0,0-1.68.36,1.11,1.11,0,0,0-.51,1,1,1,0,0,0,.32.8A1.33,1.33,0,0,0,160.61,1864.12Z" style="fill:#fff"/><path d="M167.61,1864.12a4.07,4.07,0,0,0,.5,0l.38-.08v.74a2.15,2.15,0,0,1-.47.13,3.86,3.86,0,0,1-.55,0c-1.24,0-1.86-.66-1.86-2v-3.82h-.92v-.47l.92-.4.41-1.37h.56v1.49h1.86v.75h-1.86v3.78a1.3,1.3,0,0,0,.27.89A1,1,0,0,0,167.61,1864.12Z" style="fill:#fff"/><path d="M169.69,1856.65a.63.63,0,0,1,.16-.49.56.56,0,0,1,.41-.16.62.62,0,0,1,.41.16.79.79,0,0,1,0,1,.62.62,0,0,1-.41.16.6.6,0,0,1-.41-.16A.66.66,0,0,1,169.69,1856.65Zm1.05,8.16h-1v-6.42h1Z" style="fill:#fff"/><path d="M178.35,1861.59a3.55,3.55,0,0,1-.79,2.46,2.82,2.82,0,0,1-2.19.88,2.92,2.92,0,0,1-1.53-.41,2.65,2.65,0,0,1-1-1.16,4.05,4.05,0,0,1-.36-1.77,3.54,3.54,0,0,1,.78-2.44,2.77,2.77,0,0,1,2.18-.88,2.73,2.73,0,0,1,2.15.9A3.49,3.49,0,0,1,178.35,1861.59Zm-4.89,0a3.05,3.05,0,0,0,.49,1.88,2,2,0,0,0,2.9,0,3.81,3.81,0,0,0,0-3.74,2,2,0,0,0-2.91,0A3.05,3.05,0,0,0,173.46,1861.59Z" style="fill:#fff"/><path d="M184.45,1864.81v-4.15a1.68,1.68,0,0,0-.36-1.18,1.49,1.49,0,0,0-1.12-.38,1.84,1.84,0,0,0-1.47.54,2.72,2.72,0,0,0-.47,1.8v3.37h-1v-6.42h.8l.15.88h.05a2,2,0,0,1,.84-.74,2.78,2.78,0,0,1,1.2-.26,2.47,2.47,0,0,1,1.75.56,2.38,2.38,0,0,1,.58,1.79v4.19Z" style="fill:#fff"/><path d="M196.07,1864.81l-1.07-2.72h-3.43l-1.06,2.72h-1l3.38-8.6h.84l3.37,8.6Zm-1.38-3.62-1-2.66a11.19,11.19,0,0,1-.4-1.23,11.71,11.71,0,0,1-.37,1.23l-1,2.66Z" style="fill:#fff"/><path d="M200.7,1864.93a2.75,2.75,0,0,1-2.16-.86,3.52,3.52,0,0,1-.77-2.43,3.64,3.64,0,0,1,.78-2.49,2.78,2.78,0,0,1,2.21-.88,4.2,4.2,0,0,1,.93.1,3.05,3.05,0,0,1,.72.23l-.29.83a3.68,3.68,0,0,0-.71-.21,3,3,0,0,0-.67-.09c-1.31,0-2,.83-2,2.5a2.93,2.93,0,0,0,.48,1.81,1.64,1.64,0,0,0,1.41.64,4.33,4.33,0,0,0,1.65-.35v.86A3.41,3.41,0,0,1,200.7,1864.93Z" style="fill:#fff"/><path d="M207.79,1864.81l-.19-.91h0a2.66,2.66,0,0,1-1,.81,2.75,2.75,0,0,1-1.19.22,2.13,2.13,0,0,1-1.49-.5,1.75,1.75,0,0,1-.55-1.4c0-1.29,1-2,3.11-2l1.09,0v-.4a1.6,1.6,0,0,0-.32-1.11,1.34,1.34,0,0,0-1-.36,4.22,4.22,0,0,0-1.82.49l-.3-.75a5,5,0,0,1,1-.4,4.46,4.46,0,0,1,1.14-.15,2.45,2.45,0,0,1,1.7.51,2.14,2.14,0,0,1,.55,1.64v4.38Zm-2.19-.69a2,2,0,0,0,1.42-.49,1.85,1.85,0,0,0,.52-1.4v-.58l-1,0a3.6,3.6,0,0,0-1.67.36,1.09,1.09,0,0,0-.52,1,1,1,0,0,0,.32.8A1.36,1.36,0,0,0,205.6,1864.12Z" style="fill:#fff"/><path d="M214.89,1864h0a2.31,2.31,0,0,1-2,1,2.4,2.4,0,0,1-2-.86,3.8,3.8,0,0,1-.7-2.45,3.86,3.86,0,0,1,.7-2.47,2.36,2.36,0,0,1,2-.88,2.33,2.33,0,0,1,2,1h.08l0-.46,0-.45v-2.62h1v9.12H215Zm-1.95.16a1.78,1.78,0,0,0,1.45-.54,2.72,2.72,0,0,0,.45-1.75v-.2a3.25,3.25,0,0,0-.46-1.95,1.71,1.71,0,0,0-1.45-.58,1.49,1.49,0,0,0-1.31.66,3.33,3.33,0,0,0-.45,1.88,3.19,3.19,0,0,0,.45,1.86A1.54,1.54,0,0,0,212.94,1864.11Z" style="fill:#fff"/><path d="M220.58,1864.93a2.93,2.93,0,0,1-2.24-.87,3.36,3.36,0,0,1-.83-2.41,3.74,3.74,0,0,1,.77-2.47,2.56,2.56,0,0,1,2.05-.91,2.44,2.44,0,0,1,1.91.79,3.05,3.05,0,0,1,.71,2.1v.61h-4.43a2.55,2.55,0,0,0,.57,1.72,2,2,0,0,0,1.53.59,5.18,5.18,0,0,0,2-.44v.87a4.65,4.65,0,0,1-1,.32A5.69,5.69,0,0,1,220.58,1864.93Zm-.26-5.84a1.55,1.55,0,0,0-1.23.5,2.25,2.25,0,0,0-.54,1.39h3.35a2.12,2.12,0,0,0-.41-1.41A1.45,1.45,0,0,0,220.32,1859.09Z" style="fill:#fff"/><path d="M232.79,1864.81v-4.18a1.73,1.73,0,0,0-.33-1.15,1.26,1.26,0,0,0-1-.38,1.64,1.64,0,0,0-1.34.52,2.47,2.47,0,0,0-.43,1.6v3.59h-1v-4.18a1.79,1.79,0,0,0-.32-1.15,1.28,1.28,0,0,0-1-.38,1.6,1.6,0,0,0-1.34.54,3,3,0,0,0-.42,1.8v3.37h-1v-6.42h.79l.16.88h0a1.86,1.86,0,0,1,.78-.74,2.4,2.4,0,0,1,1.12-.26,1.91,1.91,0,0,1,2,1.09h0a2.09,2.09,0,0,1,.84-.8,2.61,2.61,0,0,1,1.24-.29,2.19,2.19,0,0,1,1.63.56,2.5,2.5,0,0,1,.54,1.79v4.19Z" style="fill:#fff"/><path d="M234.75,1858.39h1l1.41,3.66a14.72,14.72,0,0,1,.57,1.81h0c.05-.2.15-.54.32-1s.69-2,1.59-4.45h1L238,1865.7a3.58,3.58,0,0,1-1,1.54,2,2,0,0,1-1.34.45,3.71,3.71,0,0,1-.88-.1v-.78a3.14,3.14,0,0,0,.72.07,1.48,1.48,0,0,0,1.43-1.12l.36-.92Z" style="fill:#fff"/><path d="M251.55,1856.24v5.55a3,3,0,0,1-.89,2.3,3.39,3.39,0,0,1-2.43.84,3.2,3.2,0,0,1-2.39-.85,3.1,3.1,0,0,1-.85-2.32v-5.52h1v5.59a2.2,2.2,0,0,0,.59,1.65,2.38,2.38,0,0,0,1.72.57,2.28,2.28,0,0,0,1.67-.57,2.24,2.24,0,0,0,.59-1.66v-5.58Z" style="fill:#fff"/><path d="M258.59,1864.81h-4.78v-8.57h4.78v.89h-3.78v2.76h3.55v.88h-3.55v3.15h3.78Z" style="fill:#fff"/><path d="M267.18,1864.81H266l-4.68-7.19h-.05c.07.84.1,1.62.1,2.32v4.87h-.92v-8.57h1.12l4.67,7.16h.05c0-.1,0-.44-.05-1s0-1,0-1.23v-4.92h.93Z" style="fill:#fff"/><path d="M275.66,1864.81h-1v-6.11c0-.5,0-1,.05-1.44a3.71,3.71,0,0,1-.28.26c-.1.09-.56.47-1.39,1.14l-.52-.66,2.27-1.76h.82Z" style="fill:#fff"/><path d="M284.55,1859.9q0,5-3.89,5a3.92,3.92,0,0,1-1.08-.12V1864a3.5,3.5,0,0,0,1.07.15,2.58,2.58,0,0,0,2.12-.87,4.36,4.36,0,0,0,.78-2.66h-.07a2.1,2.1,0,0,1-.85.74,2.77,2.77,0,0,1-1.2.25,2.44,2.44,0,0,1-1.81-.68,2.6,2.6,0,0,1-.66-1.9,2.91,2.91,0,0,1,.74-2.11,2.64,2.64,0,0,1,2-.77,2.6,2.6,0,0,1,1.52.45,2.83,2.83,0,0,1,1,1.31A5.37,5.37,0,0,1,284.55,1859.9Zm-2.88-3a1.62,1.62,0,0,0-1.3.54,2.28,2.28,0,0,0-.45,1.5,2,2,0,0,0,.42,1.33,1.62,1.62,0,0,0,1.28.48,2.27,2.27,0,0,0,1-.21,1.83,1.83,0,0,0,.71-.6,1.37,1.37,0,0,0,.26-.78,2.71,2.71,0,0,0-.24-1.14,2,2,0,0,0-.67-.82A1.7,1.7,0,0,0,281.67,1857Z" style="fill:#fff"/><path d="M291.41,1859.9c0,3.35-1.29,5-3.89,5a3.92,3.92,0,0,1-1.08-.12V1864a3.55,3.55,0,0,0,1.07.15,2.57,2.57,0,0,0,2.12-.87,4.43,4.43,0,0,0,.79-2.66h-.07a2.13,2.13,0,0,1-.86.74,2.77,2.77,0,0,1-1.2.25,2.44,2.44,0,0,1-1.81-.68,2.6,2.6,0,0,1-.66-1.9,3,3,0,0,1,.74-2.11,2.87,2.87,0,0,1,3.5-.32,2.81,2.81,0,0,1,1,1.31A5.18,5.18,0,0,1,291.41,1859.9Zm-2.88-3a1.62,1.62,0,0,0-1.3.54,2.28,2.28,0,0,0-.45,1.5,2,2,0,0,0,.42,1.33,1.62,1.62,0,0,0,1.28.48,2.24,2.24,0,0,0,1-.21,1.83,1.83,0,0,0,.71-.6,1.37,1.37,0,0,0,.26-.78,2.71,2.71,0,0,0-.24-1.14,2,2,0,0,0-.67-.82A1.7,1.7,0,0,0,288.53,1857Z" style="fill:#fff"/><path d="M298.68,1862.84h-1.27v2h-.94v-2h-4.16V1862l4.07-5.79h1V1862h1.27Zm-2.21-.88v-2.85q0-.84.06-1.89h0c-.19.37-.37.68-.53.93l-2.68,3.81Z" style="fill:#fff"/><path d="M305.18,1860.51a6.22,6.22,0,0,1-.7,3.32,2.37,2.37,0,0,1-2.14,1.1,2.34,2.34,0,0,1-2.1-1.13,6.11,6.11,0,0,1-.72-3.29,6.32,6.32,0,0,1,.69-3.32,2.6,2.6,0,0,1,4.25,0A6.12,6.12,0,0,1,305.18,1860.51Zm-4.68,0a6.35,6.35,0,0,0,.44,2.73,1.58,1.58,0,0,0,2.81,0,8.53,8.53,0,0,0,0-5.41,1.58,1.58,0,0,0-2.81,0A6.25,6.25,0,0,0,300.5,1860.51Z" style="fill:#fff"/><path d="M312,1859.9q0,5-3.89,5a3.83,3.83,0,0,1-1.08-.12V1864a3.48,3.48,0,0,0,1.06.15,2.61,2.61,0,0,0,2.13-.87,4.36,4.36,0,0,0,.78-2.66h-.07a2.13,2.13,0,0,1-.86.74,2.71,2.71,0,0,1-1.2.25,2.42,2.42,0,0,1-1.8-.68,2.56,2.56,0,0,1-.67-1.9,2.91,2.91,0,0,1,.75-2.11,2.86,2.86,0,0,1,3.49-.32,2.75,2.75,0,0,1,1,1.31A5.17,5.17,0,0,1,312,1859.9Zm-2.89-3a1.58,1.58,0,0,0-1.29.54,2.22,2.22,0,0,0-.46,1.5,2,2,0,0,0,.42,1.33,1.62,1.62,0,0,0,1.29.48,2.3,2.3,0,0,0,1-.21,1.79,1.79,0,0,0,.7-.6,1.3,1.3,0,0,0,.26-.78,2.71,2.71,0,0,0-.24-1.14,2,2,0,0,0-.67-.82A1.7,1.7,0,0,0,309.11,1857Z" style="fill:#fff"/><path d="M318.54,1858.26a2,2,0,0,1-.46,1.34,2.35,2.35,0,0,1-1.31.7v0a2.47,2.47,0,0,1,1.53.66,1.93,1.93,0,0,1,.5,1.38,2.24,2.24,0,0,1-.85,1.89,3.86,3.86,0,0,1-2.41.66,6.84,6.84,0,0,1-1.25-.11,3.73,3.73,0,0,1-1.1-.36v-.92a5.55,5.55,0,0,0,2.38.56q2.22,0,2.22-1.74c0-1-.82-1.56-2.45-1.56h-.84V1860h.85a2.54,2.54,0,0,0,1.59-.44,1.45,1.45,0,0,0,.59-1.23,1.24,1.24,0,0,0-.43-1,1.78,1.78,0,0,0-1.17-.36,3.62,3.62,0,0,0-1.06.15,5,5,0,0,0-1.14.57l-.49-.66a4.14,4.14,0,0,1,1.21-.65,4.41,4.41,0,0,1,1.45-.24,3,3,0,0,1,1.94.57A1.93,1.93,0,0,1,318.54,1858.26Z" style="fill:#fff"/><path d="M322.92,1856.12a2.86,2.86,0,0,1,1.86.55,1.8,1.8,0,0,1,.69,1.5,1.86,1.86,0,0,1-.4,1.16,3.49,3.49,0,0,1-1.25.94,4.3,4.3,0,0,1,1.48,1,1.94,1.94,0,0,1,.44,1.27,2.13,2.13,0,0,1-.74,1.7,3,3,0,0,1-2,.64,3.27,3.27,0,0,1-2.11-.6,2.08,2.08,0,0,1-.74-1.71,2.55,2.55,0,0,1,1.79-2.29,3.42,3.42,0,0,1-1.16-1,2.15,2.15,0,0,1-.35-1.19,1.82,1.82,0,0,1,.69-1.49A2.84,2.84,0,0,1,322.92,1856.12Zm-1.85,6.53a1.33,1.33,0,0,0,.49,1.09,2.12,2.12,0,0,0,1.38.4,2.08,2.08,0,0,0,1.36-.41,1.42,1.42,0,0,0,.48-1.13,1.34,1.34,0,0,0-.46-1,4.7,4.7,0,0,0-1.59-.86,3.62,3.62,0,0,0-1.27.83A1.62,1.62,0,0,0,321.07,1862.65Zm1.84-5.74a1.75,1.75,0,0,0-1.15.35,1.2,1.2,0,0,0-.41.94,1.35,1.35,0,0,0,.34.93,3.79,3.79,0,0,0,1.28.77,3.21,3.21,0,0,0,1.19-.76,1.4,1.4,0,0,0,.35-.94,1.17,1.17,0,0,0-.43-.94A1.79,1.79,0,0,0,322.91,1856.91Z" style="fill:#fff"/><path d="M332.58,1859.9q0,5-3.89,5a3.92,3.92,0,0,1-1.08-.12V1864a3.5,3.5,0,0,0,1.07.15,2.58,2.58,0,0,0,2.12-.87,4.36,4.36,0,0,0,.78-2.66h-.07a2.1,2.1,0,0,1-.85.74,2.77,2.77,0,0,1-1.2.25,2.44,2.44,0,0,1-1.81-.68,2.6,2.6,0,0,1-.67-1.9,2.91,2.91,0,0,1,.75-2.11,2.63,2.63,0,0,1,2-.77,2.6,2.6,0,0,1,1.52.45,2.83,2.83,0,0,1,1,1.31A5.37,5.37,0,0,1,332.58,1859.9Zm-2.88-3a1.62,1.62,0,0,0-1.3.54,2.28,2.28,0,0,0-.45,1.5,2,2,0,0,0,.42,1.33,1.62,1.62,0,0,0,1.28.48,2.27,2.27,0,0,0,1-.21,1.83,1.83,0,0,0,.71-.6,1.37,1.37,0,0,0,.26-.78,2.71,2.71,0,0,0-.24-1.14,2,2,0,0,0-.68-.82A1.65,1.65,0,0,0,329.7,1857Z" style="fill:#fff"/><path d="M340.91,1864.81h-1v-4H335.4v4h-1v-8.57h1v3.65h4.51v-3.65h1Z" style="fill:#fff"/><path d="M344.13,1863.42l.09.13c-.1.39-.25.84-.44,1.36s-.39,1-.6,1.45h-.73c.1-.41.22-.91.35-1.51s.21-1.08.26-1.43Zm-1.19-4.41c0-.52.23-.79.7-.79s.72.27.72.79a.83.83,0,0,1-.2.59.66.66,0,0,1-.52.21.64.64,0,0,1-.52-.21A.87.87,0,0,1,342.94,1859Z" style="fill:#fff"/><path d="M354.46,1856.24h1.07l-3.09,8.57h-1l-3.07-8.57h1.05l2,5.55a14.14,14.14,0,0,1,.54,1.85,16.83,16.83,0,0,1,.55-1.89Z" style="fill:#fff"/><path d="M360.51,1864.81l-.19-.91h-.05a2.66,2.66,0,0,1-1,.81,2.75,2.75,0,0,1-1.19.22,2.16,2.16,0,0,1-1.5-.5,1.78,1.78,0,0,1-.54-1.4c0-1.29,1-2,3.11-2l1.09,0v-.4a1.65,1.65,0,0,0-.32-1.11,1.35,1.35,0,0,0-1-.36,4.22,4.22,0,0,0-1.82.49l-.3-.75a5,5,0,0,1,1-.4,4.46,4.46,0,0,1,1.14-.15,2.45,2.45,0,0,1,1.7.51,2.14,2.14,0,0,1,.55,1.64v4.38Zm-2.2-.69a2,2,0,0,0,1.43-.49,1.85,1.85,0,0,0,.52-1.4v-.58l-1,0a3.65,3.65,0,0,0-1.68.36,1.11,1.11,0,0,0-.51,1,1,1,0,0,0,.32.8A1.33,1.33,0,0,0,358.31,1864.12Z" style="fill:#fff"/><path d="M364.21,1864.81h-1v-9.12h1Z" style="fill:#fff"/><path d="M366.19,1856.65a.63.63,0,0,1,.16-.49.56.56,0,0,1,.41-.16.62.62,0,0,1,.41.16.79.79,0,0,1,0,1,.62.62,0,0,1-.41.16.6.6,0,0,1-.41-.16A.66.66,0,0,1,366.19,1856.65Zm1.05,8.16h-1v-6.42h1Z" style="fill:#fff"/><path d="M373.68,1864h-.05a2.31,2.31,0,0,1-2,1,2.4,2.4,0,0,1-2-.86,3.8,3.8,0,0,1-.7-2.45,3.86,3.86,0,0,1,.7-2.47,2.36,2.36,0,0,1,2-.88,2.33,2.33,0,0,1,2,1h.08l0-.46,0-.45v-2.62h1v9.12h-.79Zm-1.95.16a1.78,1.78,0,0,0,1.45-.54,2.72,2.72,0,0,0,.45-1.75v-.2a3.25,3.25,0,0,0-.46-1.95,1.72,1.72,0,0,0-1.45-.58,1.49,1.49,0,0,0-1.31.66,3.33,3.33,0,0,0-.45,1.88,3.19,3.19,0,0,0,.45,1.86A1.54,1.54,0,0,0,371.73,1864.11Z" style="fill:#fff"/><path d="M376.58,1856.65a.63.63,0,0,1,.16-.49.56.56,0,0,1,.41-.16.62.62,0,0,1,.41.16.79.79,0,0,1,0,1,.62.62,0,0,1-.41.16.6.6,0,0,1-.41-.16A.66.66,0,0,1,376.58,1856.65Zm1.05,8.16h-1v-6.42h1Z" style="fill:#fff"/><path d="M381.77,1864.12a4.07,4.07,0,0,0,.5,0l.38-.08v.74a2.15,2.15,0,0,1-.47.13,3.86,3.86,0,0,1-.55,0c-1.24,0-1.86-.66-1.86-2v-3.82h-.92v-.47l.92-.4.41-1.37h.56v1.49h1.86v.75h-1.86v3.78a1.3,1.3,0,0,0,.27.89A1,1,0,0,0,381.77,1864.12Z" style="fill:#fff"/><path d="M382.91,1858.39h1l1.4,3.66a15.28,15.28,0,0,1,.58,1.81h0c0-.2.16-.54.32-1s.69-2,1.59-4.45h1.05l-2.76,7.31a3.78,3.78,0,0,1-1,1.54,2.07,2.07,0,0,1-1.35.45,3.77,3.77,0,0,1-.88-.1v-.78a3.26,3.26,0,0,0,.72.07,1.48,1.48,0,0,0,1.43-1.12l.36-.92Z" style="fill:#fff"/><path d="M398.28,1864.81h-5.63V1864l2.26-2.27a18.79,18.79,0,0,0,1.36-1.48,4.3,4.3,0,0,0,.49-.87,2.49,2.49,0,0,0,.16-.91,1.47,1.47,0,0,0-.41-1.09,1.65,1.65,0,0,0-1.16-.4,2.87,2.87,0,0,0-1,.18,4,4,0,0,0-1.06.64l-.52-.67a4,4,0,0,1,2.58-1,2.72,2.72,0,0,1,1.89.62,2.11,2.11,0,0,1,.69,1.66,3.16,3.16,0,0,1-.46,1.61,10.16,10.16,0,0,1-1.71,2l-1.87,1.83v.05h4.4Z" style="fill:#fff"/><path d="M405.19,1860.51a6.22,6.22,0,0,1-.7,3.32,2.58,2.58,0,0,1-4.25,0,6.11,6.11,0,0,1-.72-3.29,6.31,6.31,0,0,1,.7-3.32,2.6,2.6,0,0,1,4.25,0A6.12,6.12,0,0,1,405.19,1860.51Zm-4.68,0a6.2,6.2,0,0,0,.44,2.73,1.58,1.58,0,0,0,2.81,0,8.72,8.72,0,0,0,0-5.41,1.58,1.58,0,0,0-2.81,0A6.1,6.1,0,0,0,400.51,1860.51Z" style="fill:#fff"/><path d="M410.07,1856.24l-3.19,8.57h-1l3.2-8.57Z" style="fill:#fff"/><path d="M416.46,1860.51a6.31,6.31,0,0,1-.7,3.32,2.58,2.58,0,0,1-4.25,0,6.11,6.11,0,0,1-.72-3.29,6.22,6.22,0,0,1,.7-3.32,2.59,2.59,0,0,1,4.24,0A6,6,0,0,1,416.46,1860.51Zm-4.68,0a6.38,6.38,0,0,0,.43,2.73,1.49,1.49,0,0,0,1.41.85,1.46,1.46,0,0,0,1.4-.87,8.53,8.53,0,0,0,0-5.41,1.58,1.58,0,0,0-2.81,0A6.28,6.28,0,0,0,411.78,1860.51Z" style="fill:#fff"/><path d="M420.32,1859.58a3.14,3.14,0,0,1,2.13.67,2.3,2.3,0,0,1,.77,1.84,2.65,2.65,0,0,1-.84,2.08,3.41,3.41,0,0,1-2.34.76,4.3,4.3,0,0,1-2.21-.47v-.93a3.68,3.68,0,0,0,1,.41,5.06,5.06,0,0,0,1.2.15,2.38,2.38,0,0,0,1.61-.49,1.73,1.73,0,0,0,.57-1.4c0-1.2-.73-1.8-2.2-1.8a9.12,9.12,0,0,0-1.49.17l-.5-.32.32-4h4.26v.9h-3.43l-.21,2.57A6.76,6.76,0,0,1,420.32,1859.58Z" style="fill:#fff"/><path d="M428.2,1856.24l-3.19,8.57h-1l3.2-8.57Z" style="fill:#fff"/><path d="M434.54,1864.81h-5.63V1864l2.25-2.27a16.94,16.94,0,0,0,1.36-1.48,3.93,3.93,0,0,0,.5-.87,2.49,2.49,0,0,0,.16-.91,1.44,1.44,0,0,0-.42-1.09,1.61,1.61,0,0,0-1.15-.4,2.83,2.83,0,0,0-1,.18,4,4,0,0,0-1.06.64l-.52-.67a4,4,0,0,1,2.58-1,2.74,2.74,0,0,1,1.89.62,2.11,2.11,0,0,1,.69,1.66,3.26,3.26,0,0,1-.46,1.61,10.91,10.91,0,0,1-1.71,2l-1.88,1.83v.05h4.41Z" style="fill:#fff"/><path d="M441.45,1860.51a6.31,6.31,0,0,1-.7,3.32,2.58,2.58,0,0,1-4.25,0,6.11,6.11,0,0,1-.72-3.29,6.22,6.22,0,0,1,.7-3.32,2.59,2.59,0,0,1,4.24,0A6,6,0,0,1,441.45,1860.51Zm-4.68,0a6.2,6.2,0,0,0,.44,2.73,1.57,1.57,0,0,0,2.8,0,8.53,8.53,0,0,0,0-5.41,1.47,1.47,0,0,0-1.4-.86,1.45,1.45,0,0,0-1.4.85A6.1,6.1,0,0,0,436.77,1860.51Z" style="fill:#fff"/><path d="M446.23,1864.81h-.94v-6.11c0-.5,0-1,0-1.44l-.27.26-1.4,1.14-.51-.66,2.26-1.76h.82Z" style="fill:#fff"/><path d="M452.33,1856.12a2.88,2.88,0,0,1,1.86.55,1.82,1.82,0,0,1,.68,1.5,1.91,1.91,0,0,1-.39,1.16,3.45,3.45,0,0,1-1.26.94,4.46,4.46,0,0,1,1.49,1,2,2,0,0,1,.44,1.27,2.11,2.11,0,0,1-.75,1.7,3,3,0,0,1-2,.64,3.29,3.29,0,0,1-2.11-.6,2.08,2.08,0,0,1-.73-1.71,2.53,2.53,0,0,1,1.79-2.29,3.24,3.24,0,0,1-1.16-1,2.08,2.08,0,0,1-.35-1.19,1.82,1.82,0,0,1,.69-1.49A2.82,2.82,0,0,1,452.33,1856.12Zm-1.85,6.53a1.3,1.3,0,0,0,.49,1.09,2.5,2.5,0,0,0,2.73,0,1.42,1.42,0,0,0,.49-1.13,1.38,1.38,0,0,0-.46-1,4.87,4.87,0,0,0-1.6-.86,3.48,3.48,0,0,0-1.26.83A1.62,1.62,0,0,0,450.48,1862.65Zm1.84-5.74a1.75,1.75,0,0,0-1.15.35,1.17,1.17,0,0,0-.42.94,1.36,1.36,0,0,0,.35.93,3.69,3.69,0,0,0,1.28.77,3.16,3.16,0,0,0,1.18-.76,1.4,1.4,0,0,0,.35-.94,1.16,1.16,0,0,0-.42-.94A1.83,1.83,0,0,0,452.32,1856.91Z" style="fill:#fff"/><path d="M456.25,1862v-.89h5v.89Z" style="fill:#fff"/><path d="M466,1864.81H465v-6.11c0-.5,0-1,0-1.44l-.27.26-1.4,1.14-.51-.66,2.27-1.76H466Z" style="fill:#fff"/><path d="M474.85,1859.9q0,5-3.89,5a3.83,3.83,0,0,1-1.08-.12V1864a3.48,3.48,0,0,0,1.06.15,2.61,2.61,0,0,0,2.13-.87,4.36,4.36,0,0,0,.78-2.66h-.07a2.13,2.13,0,0,1-.86.74,2.71,2.71,0,0,1-1.2.25,2.4,2.4,0,0,1-1.8-.68,2.56,2.56,0,0,1-.67-1.9,2.91,2.91,0,0,1,.75-2.11,2.86,2.86,0,0,1,3.49-.32,2.81,2.81,0,0,1,1,1.31A5.17,5.17,0,0,1,474.85,1859.9Zm-2.89-3a1.58,1.58,0,0,0-1.29.54,2.22,2.22,0,0,0-.46,1.5,2,2,0,0,0,.42,1.33,1.62,1.62,0,0,0,1.29.48,2.3,2.3,0,0,0,1-.21,1.79,1.79,0,0,0,.7-.6,1.3,1.3,0,0,0,.26-.78,2.71,2.71,0,0,0-.24-1.14,2,2,0,0,0-.67-.82A1.7,1.7,0,0,0,472,1857Z" style="fill:#fff"/><path d="M479.77,1856.24l-3.19,8.57h-1l3.19-8.57Z" style="fill:#fff"/><path d="M486.16,1860.51a6.22,6.22,0,0,1-.7,3.32,2.58,2.58,0,0,1-4.25,0,6.11,6.11,0,0,1-.72-3.29,6.31,6.31,0,0,1,.7-3.32,2.6,2.6,0,0,1,4.25,0A6.12,6.12,0,0,1,486.16,1860.51Zm-4.68,0a6.35,6.35,0,0,0,.44,2.73,1.58,1.58,0,0,0,2.81,0,8.72,8.72,0,0,0,0-5.41,1.58,1.58,0,0,0-2.81,0A6.25,6.25,0,0,0,481.48,1860.51Z" style="fill:#fff"/><path d="M490,1859.58a3.14,3.14,0,0,1,2.13.67,2.3,2.3,0,0,1,.78,1.84,2.63,2.63,0,0,1-.85,2.08,3.38,3.38,0,0,1-2.33.76,4.27,4.27,0,0,1-2.21-.47v-.93a3.44,3.44,0,0,0,1,.41,4.93,4.93,0,0,0,1.2.15,2.36,2.36,0,0,0,1.6-.49,1.73,1.73,0,0,0,.57-1.4c0-1.2-.73-1.8-2.2-1.8a9,9,0,0,0-1.48.17l-.51-.32.32-4h4.26v.9H488.9l-.22,2.57A6.83,6.83,0,0,1,490,1859.58Z" style="fill:#fff"/><path d="M497.9,1856.24l-3.19,8.57h-1l3.19-8.57Z" style="fill:#fff"/><path d="M504.24,1864.81h-5.63V1864l2.26-2.27a18.79,18.79,0,0,0,1.36-1.48,3.87,3.87,0,0,0,.49-.87,2.49,2.49,0,0,0,.16-.91,1.47,1.47,0,0,0-.41-1.09,1.65,1.65,0,0,0-1.16-.4,2.87,2.87,0,0,0-1,.18,4,4,0,0,0-1.06.64l-.52-.67a4,4,0,0,1,2.58-1,2.71,2.71,0,0,1,1.89.62,2.11,2.11,0,0,1,.69,1.66,3.16,3.16,0,0,1-.46,1.61,10.16,10.16,0,0,1-1.71,2l-1.87,1.83v.05h4.4Z" style="fill:#fff"/><path d="M511.15,1860.51a6.22,6.22,0,0,1-.7,3.32,2.37,2.37,0,0,1-2.14,1.1,2.34,2.34,0,0,1-2.1-1.13,6,6,0,0,1-.73-3.29,6.31,6.31,0,0,1,.7-3.32,2.6,2.6,0,0,1,4.25,0A6.12,6.12,0,0,1,511.15,1860.51Zm-4.68,0a6.35,6.35,0,0,0,.44,2.73,1.58,1.58,0,0,0,2.81,0,8.72,8.72,0,0,0,0-5.41,1.58,1.58,0,0,0-2.81,0A6.25,6.25,0,0,0,506.47,1860.51Z" style="fill:#fff"/><path d="M518,1864.81h-5.63V1864l2.26-2.27a16.94,16.94,0,0,0,1.36-1.48,3.87,3.87,0,0,0,.49-.87,2.49,2.49,0,0,0,.17-.91,1.44,1.44,0,0,0-.42-1.09,1.62,1.62,0,0,0-1.15-.4,2.88,2.88,0,0,0-1,.18,4.19,4.19,0,0,0-1.06.64l-.51-.67a3.94,3.94,0,0,1,2.57-1,2.75,2.75,0,0,1,1.9.62,2.13,2.13,0,0,1,.68,1.66,3.16,3.16,0,0,1-.46,1.61,10.16,10.16,0,0,1-1.71,2l-1.87,1.83v.05H518Z" style="fill:#fff"/><path d="M524.83,1864.81H519.2V1864l2.25-2.27a16.94,16.94,0,0,0,1.36-1.48,3.87,3.87,0,0,0,.49-.87,2.49,2.49,0,0,0,.17-.91,1.44,1.44,0,0,0-.42-1.09,1.62,1.62,0,0,0-1.15-.4,2.79,2.79,0,0,0-1,.18,4.06,4.06,0,0,0-1.07.64l-.51-.67a4,4,0,0,1,2.57-1,2.75,2.75,0,0,1,1.9.62,2.13,2.13,0,0,1,.68,1.66A3.25,3.25,0,0,1,524,1860a10.91,10.91,0,0,1-1.71,2l-1.88,1.83v.05h4.41Z" style="fill:#fff"/><path d="M526.36,1864.19a.9.9,0,0,1,.18-.6.66.66,0,0,1,.51-.2.69.69,0,0,1,.53.2.85.85,0,0,1,.19.6.8.8,0,0,1-.19.58.68.68,0,0,1-.53.21.69.69,0,0,1-.49-.18A.83.83,0,0,1,526.36,1864.19Z" style="fill:#fff"/><path d="M539.15,1864.81H538l-3.12-4.15-.89.79v3.36h-1v-8.57h1v4.25l3.88-4.25H539l-3.45,3.72Z" style="fill:#fff"/><path d="M544.13,1864.81l-.2-.91h0a2.66,2.66,0,0,1-1,.81,2.81,2.81,0,0,1-1.19.22,2.14,2.14,0,0,1-1.5-.5,1.78,1.78,0,0,1-.54-1.4c0-1.29,1-2,3.11-2l1.09,0v-.4a1.6,1.6,0,0,0-.33-1.11,1.32,1.32,0,0,0-1-.36,4.18,4.18,0,0,0-1.81.49l-.3-.75a4.59,4.59,0,0,1,1-.4,4.39,4.39,0,0,1,1.13-.15,2.43,2.43,0,0,1,1.7.51,2.14,2.14,0,0,1,.56,1.64v4.38Zm-2.2-.69a2,2,0,0,0,1.43-.49,1.89,1.89,0,0,0,.52-1.4v-.58l-1,0a3.6,3.6,0,0,0-1.67.36,1.11,1.11,0,0,0-.51,1,1,1,0,0,0,.32.8A1.33,1.33,0,0,0,541.93,1864.12Z" style="fill:#fff"/><path d="M549.84,1864.93a2.88,2.88,0,0,1-1.15-.23,2.31,2.31,0,0,1-.87-.72h-.07a8.11,8.11,0,0,1,.07,1.07v2.64h-1v-9.3h.79l.14.88h0a2.25,2.25,0,0,1,.88-.76,2.58,2.58,0,0,1,1.14-.24,2.37,2.37,0,0,1,2,.87,3.88,3.88,0,0,1,.7,2.45,3.81,3.81,0,0,1-.71,2.46A2.39,2.39,0,0,1,549.84,1864.93Zm-.14-5.83a1.71,1.71,0,0,0-1.42.54,2.79,2.79,0,0,0-.46,1.74v.21a3.14,3.14,0,0,0,.46,1.94,1.7,1.7,0,0,0,1.44.58,1.51,1.51,0,0,0,1.31-.67,3.24,3.24,0,0,0,.47-1.86,3.1,3.1,0,0,0-.47-1.84A1.56,1.56,0,0,0,549.7,1859.1Z" style="fill:#fff"/><path d="M555.18,1864.81h-1v-9.12h1Z" style="fill:#fff"/><path d="M561.19,1864.81l-.19-.91h0a2.66,2.66,0,0,1-1,.81,2.78,2.78,0,0,1-1.19.22,2.14,2.14,0,0,1-1.5-.5,1.78,1.78,0,0,1-.54-1.4c0-1.29,1-2,3.11-2l1.09,0v-.4a1.65,1.65,0,0,0-.32-1.11,1.35,1.35,0,0,0-1-.36,4.22,4.22,0,0,0-1.82.49l-.3-.75a4.78,4.78,0,0,1,1-.4,4.45,4.45,0,0,1,1.13-.15,2.46,2.46,0,0,1,1.71.51,2.14,2.14,0,0,1,.55,1.64v4.38Zm-2.2-.69a2,2,0,0,0,1.43-.49,1.89,1.89,0,0,0,.52-1.4v-.58l-1,0a3.6,3.6,0,0,0-1.67.36,1.11,1.11,0,0,0-.51,1,1,1,0,0,0,.32.8A1.33,1.33,0,0,0,559,1864.12Z" style="fill:#fff"/><path d="M568.31,1864.81v-4.15a1.68,1.68,0,0,0-.36-1.18,1.49,1.49,0,0,0-1.12-.38,1.84,1.84,0,0,0-1.47.54,2.72,2.72,0,0,0-.47,1.8v3.37h-1v-6.42h.8l.15.88h0a2,2,0,0,1,.84-.74,2.78,2.78,0,0,1,1.2-.26,2.48,2.48,0,0,1,1.75.56,2.38,2.38,0,0,1,.58,1.79v4.19Z" style="fill:#fff"/><path d="M581.05,1864.81h-1v-4h-4.51v4h-1v-8.57h1v3.65h4.51v-3.65h1Z" style="fill:#fff"/><path d="M583.17,1856.65a.63.63,0,0,1,.16-.49.56.56,0,0,1,.41-.16.62.62,0,0,1,.41.16.79.79,0,0,1,0,1,.62.62,0,0,1-.41.16.6.6,0,0,1-.41-.16A.66.66,0,0,1,583.17,1856.65Zm1.05,8.16h-1v-6.42h1Z" style="fill:#fff"/><path d="M591.54,1858.39v.61l-1.19.14a2.15,2.15,0,0,1,.42,1.29,1.87,1.87,0,0,1-.64,1.5,2.58,2.58,0,0,1-1.77.57,3.1,3.1,0,0,1-.54,0,1,1,0,0,0-.62.82.41.41,0,0,0,.22.39,1.48,1.48,0,0,0,.74.13h1.14a2.56,2.56,0,0,1,1.6.44,1.54,1.54,0,0,1,.56,1.28,1.82,1.82,0,0,1-.86,1.62,4.5,4.5,0,0,1-2.49.56,3.33,3.33,0,0,1-1.94-.47,1.5,1.5,0,0,1-.69-1.32,1.47,1.47,0,0,1,.38-1,1.87,1.87,0,0,1,1-.58,1.06,1.06,0,0,1-.41-.35.94.94,0,0,1-.17-.54,1,1,0,0,1,.19-.62,1.8,1.8,0,0,1,.59-.51,1.76,1.76,0,0,1-.81-.7,2,2,0,0,1-.31-1.12,2.08,2.08,0,0,1,.63-1.63,2.58,2.58,0,0,1,1.79-.57,3.18,3.18,0,0,1,.91.12Zm-5.12,7.5a.87.87,0,0,0,.44.79,2.41,2.41,0,0,0,1.26.27,3.42,3.42,0,0,0,1.81-.37,1.1,1.1,0,0,0,.59-1,.78.78,0,0,0-.32-.72,2.43,2.43,0,0,0-1.21-.21h-1.17a1.55,1.55,0,0,0-1,.32A1.11,1.11,0,0,0,586.42,1865.89Zm.53-5.45a1.29,1.29,0,0,0,.38,1,1.52,1.52,0,0,0,1.06.35,1.24,1.24,0,0,0,1.42-1.38,1.28,1.28,0,0,0-1.44-1.45,1.39,1.39,0,0,0-1,.37A1.45,1.45,0,0,0,587,1860.44Z" style="fill:#fff"/><path d="M597.25,1864.81v-4.15a1.73,1.73,0,0,0-.35-1.18,1.49,1.49,0,0,0-1.12-.38,1.82,1.82,0,0,0-1.48.55,2.77,2.77,0,0,0-.47,1.8v3.36h-1v-9.12h1v2.76a6.47,6.47,0,0,1,0,.83h.05a2.08,2.08,0,0,1,.82-.73,2.63,2.63,0,0,1,1.21-.27,2.49,2.49,0,0,1,1.77.56,2.39,2.39,0,0,1,.59,1.78v4.19Z" style="fill:#fff"/><path d="M602.94,1864.93a3,3,0,0,1-2.25-.87,3.35,3.35,0,0,1-.82-2.41,3.74,3.74,0,0,1,.76-2.47,2.58,2.58,0,0,1,2.06-.91,2.46,2.46,0,0,1,1.91.79,3.09,3.09,0,0,1,.7,2.1v.61h-4.42a2.5,2.5,0,0,0,.57,1.72,2,2,0,0,0,1.52.59,5.15,5.15,0,0,0,2-.44v.87a4.77,4.77,0,0,1-1,.32A5.85,5.85,0,0,1,602.94,1864.93Zm-.27-5.84a1.58,1.58,0,0,0-1.23.5,2.25,2.25,0,0,0-.54,1.39h3.36a2.17,2.17,0,0,0-.41-1.41A1.48,1.48,0,0,0,602.67,1859.09Z" style="fill:#fff"/><path d="M609.89,1858.27a3.51,3.51,0,0,1,.76.07l-.13.9a3.19,3.19,0,0,0-.7-.08,1.73,1.73,0,0,0-1.34.63,2.3,2.3,0,0,0-.55,1.57v3.45h-1v-6.42h.8l.11,1.19h0a2.82,2.82,0,0,1,.86-1A1.91,1.91,0,0,1,609.89,1858.27Z" style="fill:#fff"/><path d="M619.89,1864.81h-4.77v-8.57h4.77v.89h-3.77v2.76h3.55v.88h-3.55v3.15h3.77Z" style="fill:#fff"/><path d="M626,1864H626a2.28,2.28,0,0,1-2,1,2.4,2.4,0,0,1-2-.86,3.8,3.8,0,0,1-.7-2.45,3.86,3.86,0,0,1,.7-2.47,2.36,2.36,0,0,1,2-.88,2.33,2.33,0,0,1,2,1H626l0-.46,0-.45v-2.62h1v9.12h-.79Zm-1.95.16a1.78,1.78,0,0,0,1.45-.54,2.73,2.73,0,0,0,.44-1.75v-.2a3.25,3.25,0,0,0-.45-1.95,1.72,1.72,0,0,0-1.45-.58,1.49,1.49,0,0,0-1.31.66,3.33,3.33,0,0,0-.45,1.88,3.19,3.19,0,0,0,.45,1.86A1.54,1.54,0,0,0,624.07,1864.11Z" style="fill:#fff"/><path d="M629.91,1858.39v4.16a1.68,1.68,0,0,0,.36,1.18,1.49,1.49,0,0,0,1.12.38,1.81,1.81,0,0,0,1.47-.55,2.79,2.79,0,0,0,.47-1.8v-3.37h1v6.42h-.8l-.14-.86h-.05a1.94,1.94,0,0,1-.83.72,2.79,2.79,0,0,1-1.21.26,2.48,2.48,0,0,1-1.76-.56,2.35,2.35,0,0,1-.58-1.78v-4.2Z" style="fill:#fff"/><path d="M638.93,1864.93a2.75,2.75,0,0,1-2.16-.86,3.52,3.52,0,0,1-.76-2.43,3.69,3.69,0,0,1,.77-2.49,2.8,2.8,0,0,1,2.22-.88,4.18,4.18,0,0,1,.92.1,3.32,3.32,0,0,1,.73.23l-.3.83a3.8,3.8,0,0,0-.7-.21,3,3,0,0,0-.68-.09c-1.3,0-2,.83-2,2.5a2.94,2.94,0,0,0,.47,1.81,1.65,1.65,0,0,0,1.42.64,4.32,4.32,0,0,0,1.64-.35v.86A3.38,3.38,0,0,1,638.93,1864.93Z" style="fill:#fff"/><path d="M646,1864.81l-.2-.91h0a2.66,2.66,0,0,1-1,.81,2.81,2.81,0,0,1-1.19.22,2.14,2.14,0,0,1-1.5-.5,1.78,1.78,0,0,1-.54-1.4c0-1.29,1-2,3.11-2l1.09,0v-.4a1.6,1.6,0,0,0-.33-1.11,1.32,1.32,0,0,0-1-.36,4.18,4.18,0,0,0-1.81.49l-.3-.75a4.59,4.59,0,0,1,1-.4,4.39,4.39,0,0,1,1.13-.15,2.42,2.42,0,0,1,1.7.51,2.14,2.14,0,0,1,.56,1.64v4.38Zm-2.2-.69a2,2,0,0,0,1.43-.49,1.89,1.89,0,0,0,.52-1.4v-.58l-1,0a3.6,3.6,0,0,0-1.67.36,1.11,1.11,0,0,0-.51,1,1,1,0,0,0,.32.8A1.33,1.33,0,0,0,643.83,1864.12Z" style="fill:#fff"/><path d="M650.83,1864.12a3.91,3.91,0,0,0,.49,0l.39-.08v.74a2.32,2.32,0,0,1-.47.13,4,4,0,0,1-.55,0c-1.25,0-1.87-.66-1.87-2v-3.82h-.92v-.47l.92-.4.41-1.37h.57v1.49h1.86v.75H649.8v3.78a1.3,1.3,0,0,0,.27.89A1,1,0,0,0,650.83,1864.12Z" style="fill:#fff"/><path d="M652.91,1856.65a.63.63,0,0,1,.16-.49.56.56,0,0,1,.41-.16.58.58,0,0,1,.4.16.79.79,0,0,1,0,1,.58.58,0,0,1-.4.16.6.6,0,0,1-.41-.16A.66.66,0,0,1,652.91,1856.65Zm1.05,8.16h-1v-6.42h1Z" style="fill:#fff"/><path d="M661.57,1861.59a3.6,3.6,0,0,1-.79,2.46,2.82,2.82,0,0,1-2.19.88,2.92,2.92,0,0,1-1.53-.41,2.65,2.65,0,0,1-1-1.16,4.05,4.05,0,0,1-.36-1.77,3.54,3.54,0,0,1,.78-2.44,2.75,2.75,0,0,1,2.18-.88,2.71,2.71,0,0,1,2.14.9A3.5,3.5,0,0,1,661.57,1861.59Zm-4.9,0a3.05,3.05,0,0,0,.5,1.88,1.69,1.69,0,0,0,1.44.64,1.71,1.71,0,0,0,1.45-.64,3.75,3.75,0,0,0,0-3.74,1.74,1.74,0,0,0-1.46-.63,1.72,1.72,0,0,0-1.44.62A3,3,0,0,0,656.67,1861.59Z" style="fill:#fff"/><path d="M667.67,1864.81v-4.15a1.68,1.68,0,0,0-.36-1.18,1.49,1.49,0,0,0-1.12-.38,1.88,1.88,0,0,0-1.48.54,2.77,2.77,0,0,0-.47,1.8v3.37h-1v-6.42h.79l.16.88h0a2,2,0,0,1,.84-.74,2.75,2.75,0,0,1,1.2-.26,2.44,2.44,0,0,1,1.74.56,2.38,2.38,0,0,1,.59,1.79v4.19Z" style="fill:#fff"/><path d="M673.9,1864.81v-8.57h1v8.57Z" style="fill:#fff"/><path d="M681.49,1864.81v-4.15a1.68,1.68,0,0,0-.35-1.18,1.49,1.49,0,0,0-1.12-.38,1.86,1.86,0,0,0-1.48.54,2.77,2.77,0,0,0-.47,1.8v3.37h-1v-6.42h.79l.16.88h.05a2,2,0,0,1,.83-.74,2.78,2.78,0,0,1,1.2-.26,2.45,2.45,0,0,1,1.75.56,2.38,2.38,0,0,1,.59,1.79v4.19Z" style="fill:#fff"/><path d="M688.61,1863.06a1.61,1.61,0,0,1-.67,1.38,3.18,3.18,0,0,1-1.88.49,4.07,4.07,0,0,1-2-.41v-.9a4.58,4.58,0,0,0,1,.37,4.08,4.08,0,0,0,1,.13,2.32,2.32,0,0,0,1.17-.24.83.83,0,0,0,.08-1.38,4.73,4.73,0,0,0-1.26-.63,7.1,7.1,0,0,1-1.28-.58,1.78,1.78,0,0,1-.56-.57,1.5,1.5,0,0,1-.19-.76,1.47,1.47,0,0,1,.64-1.24,3,3,0,0,1,1.76-.45,5.12,5.12,0,0,1,2,.42l-.34.79a4.77,4.77,0,0,0-1.75-.39,2.09,2.09,0,0,0-1,.21.69.69,0,0,0-.35.6.72.72,0,0,0,.13.44,1.2,1.2,0,0,0,.43.34,9.41,9.41,0,0,0,1.12.48,4.34,4.34,0,0,1,1.55.84A1.5,1.5,0,0,1,688.61,1863.06Z" style="fill:#fff"/><path d="M692.26,1864.12a4,4,0,0,0,.5,0l.38-.08v.74a2,2,0,0,1-.46.13,4,4,0,0,1-.56,0c-1.24,0-1.86-.66-1.86-2v-3.82h-.92v-.47l.92-.4.41-1.37h.56v1.49h1.87v.75h-1.87v3.78a1.25,1.25,0,0,0,.28.89A.93.93,0,0,0,692.26,1864.12Z" style="fill:#fff"/><path d="M694.34,1856.65a.63.63,0,0,1,.17-.49.54.54,0,0,1,.41-.16.59.59,0,0,1,.4.16.79.79,0,0,1,0,1,.59.59,0,0,1-.4.16.58.58,0,0,1-.41-.16A.66.66,0,0,1,694.34,1856.65Zm1.06,8.16h-1v-6.42h1Z" style="fill:#fff"/><path d="M699.54,1864.12a3.91,3.91,0,0,0,.49,0l.38-.08v.74a2,2,0,0,1-.46.13,4,4,0,0,1-.56,0c-1.24,0-1.86-.66-1.86-2v-3.82h-.92v-.47l.92-.4.41-1.37h.56v1.49h1.87v.75H698.5v3.78a1.3,1.3,0,0,0,.28.89A.94.94,0,0,0,699.54,1864.12Z" style="fill:#fff"/><path d="M702.61,1858.39v4.16a1.68,1.68,0,0,0,.36,1.18,1.49,1.49,0,0,0,1.12.38,1.81,1.81,0,0,0,1.47-.55,2.79,2.79,0,0,0,.47-1.8v-3.37h1v6.42h-.8l-.14-.86H706a1.89,1.89,0,0,1-.83.72,2.73,2.73,0,0,1-1.21.26,2.45,2.45,0,0,1-1.75-.56,2.35,2.35,0,0,1-.58-1.78v-4.2Z" style="fill:#fff"/><path d="M711.14,1864.12a3.91,3.91,0,0,0,.49,0l.39-.08v.74a2.15,2.15,0,0,1-.47.13,4,4,0,0,1-.55,0c-1.25,0-1.87-.66-1.87-2v-3.82h-.92v-.47l.92-.4.41-1.37h.57v1.49H712v.75h-1.86v3.78a1.3,1.3,0,0,0,.27.89A1,1,0,0,0,711.14,1864.12Z" style="fill:#fff"/><path d="M716,1864.93a3,3,0,0,1-2.25-.87,3.4,3.4,0,0,1-.82-2.41,3.74,3.74,0,0,1,.77-2.47,2.56,2.56,0,0,1,2-.91,2.46,2.46,0,0,1,1.91.79,3,3,0,0,1,.7,2.1v.61H714a2.55,2.55,0,0,0,.57,1.72,2,2,0,0,0,1.53.59,5.18,5.18,0,0,0,2.05-.44v.87a4.85,4.85,0,0,1-1,.32A5.69,5.69,0,0,1,716,1864.93Zm-.26-5.84a1.58,1.58,0,0,0-1.24.5A2.38,2.38,0,0,0,714,1861h3.36a2.17,2.17,0,0,0-.41-1.41A1.45,1.45,0,0,0,715.75,1859.09Z" style="fill:#fff"/><path d="M729.76,1856.24v5.55a3,3,0,0,1-.88,2.3,3.39,3.39,0,0,1-2.43.84,3.24,3.24,0,0,1-2.4-.85,3.13,3.13,0,0,1-.84-2.32v-5.52h1v5.59a2.2,2.2,0,0,0,.59,1.65,2.36,2.36,0,0,0,1.72.57,2.3,2.3,0,0,0,1.67-.57,2.24,2.24,0,0,0,.59-1.66v-5.58Z" style="fill:#fff"/><path d="M736.81,1864.81H732v-8.57h4.78v.89H733v2.76h3.55v.88H733v3.15h3.78Z" style="fill:#fff"/><path d="M745.4,1864.81h-1.14l-4.68-7.19h-.05c.06.84.1,1.62.1,2.32v4.87h-.92v-8.57h1.12l4.67,7.16h0c0-.1,0-.44-.06-1s0-1,0-1.23v-4.92h.94Z" style="fill:#fff"/><path d="M753.88,1864.81h-1v-6.11c0-.5,0-1,.05-1.44l-.28.26c-.1.09-.56.47-1.39,1.14l-.52-.66,2.27-1.76h.82Z" style="fill:#fff"/><path d="M762.77,1859.9q0,5-3.89,5a3.92,3.92,0,0,1-1.08-.12V1864a3.5,3.5,0,0,0,1.07.15,2.6,2.6,0,0,0,2.12-.87,4.36,4.36,0,0,0,.78-2.66h-.07a2.1,2.1,0,0,1-.85.74,2.77,2.77,0,0,1-1.2.25,2.44,2.44,0,0,1-1.81-.68,2.6,2.6,0,0,1-.67-1.9,2.91,2.91,0,0,1,.75-2.11,2.63,2.63,0,0,1,2-.77,2.6,2.6,0,0,1,1.52.45,2.83,2.83,0,0,1,1,1.31A5.37,5.37,0,0,1,762.77,1859.9Zm-2.88-3a1.62,1.62,0,0,0-1.3.54,2.28,2.28,0,0,0-.46,1.5,2,2,0,0,0,.43,1.33,1.62,1.62,0,0,0,1.28.48,2.27,2.27,0,0,0,1-.21,1.83,1.83,0,0,0,.71-.6,1.37,1.37,0,0,0,.26-.78,2.71,2.71,0,0,0-.24-1.14,2,2,0,0,0-.68-.82A1.65,1.65,0,0,0,759.89,1857Z" style="fill:#fff"/><path d="M766.84,1856.12a2.83,2.83,0,0,1,1.85.55,1.8,1.8,0,0,1,.69,1.5,1.91,1.91,0,0,1-.39,1.16,3.54,3.54,0,0,1-1.26.94,4.3,4.3,0,0,1,1.48,1,1.94,1.94,0,0,1,.44,1.27,2.1,2.1,0,0,1-.74,1.7,3,3,0,0,1-2,.64,3.27,3.27,0,0,1-2.11-.6,2.08,2.08,0,0,1-.74-1.71,2.54,2.54,0,0,1,1.8-2.29,3.24,3.24,0,0,1-1.16-1,2.08,2.08,0,0,1-.36-1.19,1.82,1.82,0,0,1,.69-1.49A2.87,2.87,0,0,1,766.84,1856.12Zm-1.86,6.53a1.33,1.33,0,0,0,.49,1.09,2.12,2.12,0,0,0,1.38.4,2.08,2.08,0,0,0,1.36-.41,1.42,1.42,0,0,0,.48-1.13,1.37,1.37,0,0,0-.45-1,4.87,4.87,0,0,0-1.6-.86,3.48,3.48,0,0,0-1.26.83A1.63,1.63,0,0,0,765,1862.65Zm1.84-5.74a1.73,1.73,0,0,0-1.14.35,1.17,1.17,0,0,0-.42.94,1.36,1.36,0,0,0,.35.93,3.72,3.72,0,0,0,1.27.77,3.13,3.13,0,0,0,1.19-.76,1.4,1.4,0,0,0,.35-.94,1.14,1.14,0,0,0-.43-.94A1.79,1.79,0,0,0,766.82,1856.91Z" style="fill:#fff"/><path d="M771,1861.15a6.1,6.1,0,0,1,1-3.78,3.49,3.49,0,0,1,2.91-1.25,4.07,4.07,0,0,1,1,.11v.84a3.28,3.28,0,0,0-1-.15,2.63,2.63,0,0,0-2.11.86,4.38,4.38,0,0,0-.79,2.7H772a2.25,2.25,0,0,1,2-1,2.39,2.39,0,0,1,1.82.7,2.62,2.62,0,0,1,.66,1.89,2.9,2.9,0,0,1-.73,2.1,2.58,2.58,0,0,1-2,.77,2.55,2.55,0,0,1-2.11-1A4.42,4.42,0,0,1,771,1861.15Zm2.88,2.95a1.63,1.63,0,0,0,1.29-.52,2.23,2.23,0,0,0,.46-1.52,1.92,1.92,0,0,0-.43-1.33,1.59,1.59,0,0,0-1.28-.49,2.05,2.05,0,0,0-1,.22,1.76,1.76,0,0,0-.7.59,1.35,1.35,0,0,0-.26.79,2.82,2.82,0,0,0,.23,1.13,2,2,0,0,0,.67.83A1.65,1.65,0,0,0,773.84,1864.1Z" style="fill:#fff"/><path d="M783.4,1860.51a6.22,6.22,0,0,1-.7,3.32,2.37,2.37,0,0,1-2.14,1.1,2.34,2.34,0,0,1-2.1-1.13,6,6,0,0,1-.73-3.29,6.31,6.31,0,0,1,.7-3.32,2.6,2.6,0,0,1,4.25,0A6.12,6.12,0,0,1,783.4,1860.51Zm-4.68,0a6.35,6.35,0,0,0,.44,2.73,1.58,1.58,0,0,0,2.81,0,8.72,8.72,0,0,0,0-5.41,1.58,1.58,0,0,0-2.81,0A6.25,6.25,0,0,0,778.72,1860.51Z" style="fill:#fff"/><path d="M790.26,1860.51a6.22,6.22,0,0,1-.7,3.32,2.37,2.37,0,0,1-2.14,1.1,2.34,2.34,0,0,1-2.1-1.13,6.11,6.11,0,0,1-.72-3.29,6.32,6.32,0,0,1,.69-3.32,2.6,2.6,0,0,1,4.25,0A6.12,6.12,0,0,1,790.26,1860.51Zm-4.68,0a6.35,6.35,0,0,0,.44,2.73,1.58,1.58,0,0,0,2.81,0,8.53,8.53,0,0,0,0-5.41,1.58,1.58,0,0,0-2.81,0A6.25,6.25,0,0,0,785.58,1860.51Z" style="fill:#fff"/><path d="M797.12,1860.51a6.22,6.22,0,0,1-.7,3.32,2.57,2.57,0,0,1-4.24,0,6.11,6.11,0,0,1-.72-3.29,6.32,6.32,0,0,1,.69-3.32,2.6,2.6,0,0,1,4.25,0A6.12,6.12,0,0,1,797.12,1860.51Zm-4.68,0a6.35,6.35,0,0,0,.44,2.73,1.58,1.58,0,0,0,2.81,0,8.53,8.53,0,0,0,0-5.41,1.58,1.58,0,0,0-2.81,0A6.25,6.25,0,0,0,792.44,1860.51Z" style="fill:#fff"/><path d="M804.34,1862.84h-1.27v2h-.93v-2H798V1862l4.07-5.79h1V1862h1.27Zm-2.2-.88v-2.85q0-.84.06-1.89h-.05a9,9,0,0,1-.53.93L799,1862Z" style="fill:#fff"/><path d="M811.2,1862.84h-1.27v2H809v-2h-4.17V1862l4.07-5.79h1V1862h1.27ZM809,1862v-2.85q0-.84.06-1.89h0a9,9,0,0,1-.53.93l-2.67,3.81Z" style="fill:#fff"/><path d="M819.31,1864.81h-1.13l-4.69-7.19h0c.06.84.09,1.62.09,2.32v4.87h-.92v-8.57h1.13l4.67,7.16h0c0-.1,0-.44-.05-1s0-1,0-1.23v-4.92h.93Z" style="fill:#fff"/><path d="M822.54,1863.42l.09.13c-.1.39-.25.84-.44,1.36s-.39,1-.6,1.45h-.73c.1-.41.22-.91.35-1.51s.21-1.08.26-1.43Zm-1.19-4.41c0-.52.23-.79.7-.79s.72.27.72.79a.82.82,0,0,1-.19.59.69.69,0,0,1-.53.21.64.64,0,0,1-.52-.21A.87.87,0,0,1,821.35,1859Z" style="fill:#fff"/><path d="M832.87,1856.24h1.07l-3.08,8.57h-1l-3.07-8.57h1.06l2,5.55a14.14,14.14,0,0,1,.54,1.85,16.83,16.83,0,0,1,.55-1.89Z" style="fill:#fff"/><path d="M838.92,1864.81l-.19-.91h-.05a2.72,2.72,0,0,1-.95.81,2.83,2.83,0,0,1-1.2.22,2.13,2.13,0,0,1-1.49-.5,1.75,1.75,0,0,1-.55-1.4c0-1.29,1-2,3.12-2l1.09,0v-.4a1.6,1.6,0,0,0-.33-1.11,1.34,1.34,0,0,0-1-.36,4.25,4.25,0,0,0-1.82.49l-.3-.75a4.86,4.86,0,0,1,1-.4,4.33,4.33,0,0,1,1.13-.15,2.45,2.45,0,0,1,1.7.51,2.14,2.14,0,0,1,.55,1.64v4.38Zm-2.19-.69a2,2,0,0,0,1.42-.49,1.85,1.85,0,0,0,.52-1.4v-.58l-1,0a3.6,3.6,0,0,0-1.67.36,1.09,1.09,0,0,0-.52,1,1,1,0,0,0,.32.8A1.36,1.36,0,0,0,836.73,1864.12Z" style="fill:#fff"/><path d="M842.62,1864.81h-1v-9.12h1Z" style="fill:#fff"/><path d="M844.6,1856.65a.63.63,0,0,1,.17-.49.54.54,0,0,1,.41-.16.59.59,0,0,1,.4.16.79.79,0,0,1,0,1,.59.59,0,0,1-.4.16.58.58,0,0,1-.41-.16A.66.66,0,0,1,844.6,1856.65Zm1.06,8.16h-1v-6.42h1Z" style="fill:#fff"/><path d="M852.09,1864H852a2.29,2.29,0,0,1-2,1,2.4,2.4,0,0,1-2-.86,3.8,3.8,0,0,1-.7-2.45,3.92,3.92,0,0,1,.7-2.47,2.61,2.61,0,0,1,4,.07h.07l0-.46,0-.45v-2.62h1v9.12h-.79Zm-2,.16a1.78,1.78,0,0,0,1.45-.54,2.72,2.72,0,0,0,.45-1.75v-.2a3.18,3.18,0,0,0-.46-1.95,1.71,1.71,0,0,0-1.45-.58,1.5,1.5,0,0,0-1.31.66,3.33,3.33,0,0,0-.45,1.88,3.19,3.19,0,0,0,.45,1.86A1.54,1.54,0,0,0,850.14,1864.11Z" style="fill:#fff"/><path d="M855,1856.65a.67.67,0,0,1,.16-.49.56.56,0,0,1,.41-.16.6.6,0,0,1,.41.16.79.79,0,0,1,0,1,.61.61,0,0,1-.82,0A.7.7,0,0,1,855,1856.65Zm1.06,8.16h-1v-6.42h1Z" style="fill:#fff"/><path d="M860.18,1864.12a4.07,4.07,0,0,0,.5,0l.38-.08v.74a2,2,0,0,1-.47.13,3.74,3.74,0,0,1-.55,0c-1.24,0-1.86-.66-1.86-2v-3.82h-.92v-.47l.92-.4.41-1.37h.56v1.49H861v.75h-1.86v3.78a1.25,1.25,0,0,0,.28.89A.93.93,0,0,0,860.18,1864.12Z" style="fill:#fff"/><path d="M861.32,1858.39h1l1.4,3.66a15.28,15.28,0,0,1,.58,1.81h0c.06-.2.16-.54.32-1s.7-2,1.59-4.45h1.05l-2.76,7.31a3.67,3.67,0,0,1-1,1.54,2,2,0,0,1-1.34.45,3.71,3.71,0,0,1-.88-.1v-.78a3.14,3.14,0,0,0,.72.07,1.48,1.48,0,0,0,1.43-1.12l.35-.92Z" style="fill:#fff"/><path d="M874.67,1864.81h-.95v-6.11c0-.5,0-1,0-1.44l-.27.26-1.4,1.14-.51-.66,2.27-1.76h.82Z" style="fill:#fff"/><path d="M879,1864.81l3.55-7.67h-4.67v-.9h5.7v.78l-3.5,7.79Z" style="fill:#fff"/><path d="M888.48,1856.24l-3.19,8.57h-1l3.19-8.57Z" style="fill:#fff"/><path d="M894.87,1860.51a6.22,6.22,0,0,1-.7,3.32,2.58,2.58,0,0,1-4.25,0,6.11,6.11,0,0,1-.72-3.29,6.31,6.31,0,0,1,.7-3.32,2.6,2.6,0,0,1,4.25,0A6.12,6.12,0,0,1,894.87,1860.51Zm-4.68,0a6.2,6.2,0,0,0,.44,2.73,1.58,1.58,0,0,0,2.81,0,8.72,8.72,0,0,0,0-5.41,1.58,1.58,0,0,0-2.81,0A6.1,6.1,0,0,0,890.19,1860.51Z" style="fill:#fff"/><path d="M898.89,1856.12a2.88,2.88,0,0,1,1.86.55,1.82,1.82,0,0,1,.68,1.5,1.91,1.91,0,0,1-.39,1.16,3.49,3.49,0,0,1-1.25.94,4.51,4.51,0,0,1,1.48,1,2,2,0,0,1,.44,1.27,2.11,2.11,0,0,1-.75,1.7,3,3,0,0,1-2,.64,3.29,3.29,0,0,1-2.11-.6,2.08,2.08,0,0,1-.73-1.71,2.53,2.53,0,0,1,1.79-2.29,3.24,3.24,0,0,1-1.16-1,2.08,2.08,0,0,1-.35-1.19,1.82,1.82,0,0,1,.69-1.49A2.84,2.84,0,0,1,898.89,1856.12Zm-1.85,6.53a1.3,1.3,0,0,0,.49,1.09,2.5,2.5,0,0,0,2.73,0,1.42,1.42,0,0,0,.49-1.13,1.38,1.38,0,0,0-.46-1,4.91,4.91,0,0,0-1.59-.86,3.44,3.44,0,0,0-1.27.83A1.62,1.62,0,0,0,897,1862.65Zm1.84-5.74a1.75,1.75,0,0,0-1.15.35,1.17,1.17,0,0,0-.42.94,1.36,1.36,0,0,0,.35.93,3.69,3.69,0,0,0,1.28.77,3.16,3.16,0,0,0,1.18-.76,1.4,1.4,0,0,0,.35-.94,1.16,1.16,0,0,0-.42-.94A1.83,1.83,0,0,0,898.88,1856.91Z" style="fill:#fff"/><path d="M906.61,1856.24l-3.19,8.57h-1l3.19-8.57Z" style="fill:#fff"/><path d="M913,1864.81h-5.63V1864l2.26-2.27a18.79,18.79,0,0,0,1.36-1.48,4.3,4.3,0,0,0,.49-.87,2.49,2.49,0,0,0,.16-.91,1.47,1.47,0,0,0-.41-1.09,1.65,1.65,0,0,0-1.16-.4,2.87,2.87,0,0,0-1,.18,4,4,0,0,0-1.06.64l-.52-.67a4,4,0,0,1,2.58-1,2.72,2.72,0,0,1,1.89.62,2.11,2.11,0,0,1,.69,1.66,3.16,3.16,0,0,1-.46,1.61,10.16,10.16,0,0,1-1.71,2l-1.87,1.83v.05H913Z" style="fill:#fff"/><path d="M919.86,1860.51a6.22,6.22,0,0,1-.7,3.32,2.58,2.58,0,0,1-4.25,0,6.11,6.11,0,0,1-.72-3.29,6.31,6.31,0,0,1,.7-3.32,2.6,2.6,0,0,1,4.25,0A6.12,6.12,0,0,1,919.86,1860.51Zm-4.68,0a6.2,6.2,0,0,0,.44,2.73,1.58,1.58,0,0,0,2.81,0,8.72,8.72,0,0,0,0-5.41,1.58,1.58,0,0,0-2.81,0A6.1,6.1,0,0,0,915.18,1860.51Z" style="fill:#fff"/><path d="M924.65,1864.81h-.95v-6.11c0-.5,0-1,0-1.44l-.27.26-1.4,1.14-.51-.66,2.27-1.76h.82Z" style="fill:#fff"/><path d="M930.74,1856.12a2.88,2.88,0,0,1,1.86.55,1.82,1.82,0,0,1,.68,1.5,1.91,1.91,0,0,1-.39,1.16,3.49,3.49,0,0,1-1.25.94,4.4,4.4,0,0,1,1.48,1,2,2,0,0,1,.44,1.27,2.11,2.11,0,0,1-.75,1.7,3,3,0,0,1-2,.64,3.25,3.25,0,0,1-2.11-.6,2.06,2.06,0,0,1-.74-1.71,2.55,2.55,0,0,1,1.79-2.29,3.33,3.33,0,0,1-1.16-1,2.15,2.15,0,0,1-.35-1.19,1.82,1.82,0,0,1,.69-1.49A2.84,2.84,0,0,1,930.74,1856.12Zm-1.85,6.53a1.3,1.3,0,0,0,.49,1.09,2.5,2.5,0,0,0,2.73,0,1.39,1.39,0,0,0,.49-1.13,1.34,1.34,0,0,0-.46-1,4.8,4.8,0,0,0-1.59-.86,3.44,3.44,0,0,0-1.27.83A1.62,1.62,0,0,0,928.89,1862.65Zm1.84-5.74a1.75,1.75,0,0,0-1.15.35,1.17,1.17,0,0,0-.42.94,1.36,1.36,0,0,0,.35.93,3.79,3.79,0,0,0,1.28.77,3.08,3.08,0,0,0,1.18-.76,1.36,1.36,0,0,0,.35-.94,1.16,1.16,0,0,0-.42-.94A1.83,1.83,0,0,0,930.73,1856.91Z" style="fill:#fff"/><path d="M934.66,1862v-.89h5v.89Z" style="fill:#fff"/><path d="M944.37,1864.81h-1v-6.11c0-.5,0-1,.05-1.44l-.28.26c-.1.09-.56.47-1.39,1.14l-.52-.66,2.27-1.76h.82Z" style="fill:#fff"/><path d="M947.73,1861.15a6,6,0,0,1,1-3.78,3.47,3.47,0,0,1,2.9-1.25,4,4,0,0,1,1,.11v.84a3.24,3.24,0,0,0-1-.15,2.61,2.61,0,0,0-2.1.86,4.44,4.44,0,0,0-.8,2.7h.07a2.25,2.25,0,0,1,2-1,2.37,2.37,0,0,1,1.82.7,2.63,2.63,0,0,1,.67,1.89,3,3,0,0,1-.73,2.1,2.61,2.61,0,0,1-2,.77,2.55,2.55,0,0,1-2.11-1A4.42,4.42,0,0,1,947.73,1861.15Zm2.87,2.95a1.64,1.64,0,0,0,1.3-.52,2.28,2.28,0,0,0,.46-1.52,2,2,0,0,0-.43-1.33,1.6,1.6,0,0,0-1.28-.49,2.13,2.13,0,0,0-1,.22,1.83,1.83,0,0,0-.7.59,1.43,1.43,0,0,0-.26.79A2.66,2.66,0,0,0,949,1863a2,2,0,0,0,.66.83A1.69,1.69,0,0,0,950.6,1864.1Z" style="fill:#fff"/><path d="M958.19,1856.24l-3.2,8.57h-1l3.19-8.57Z" style="fill:#fff"/><path d="M964.57,1860.51a6.22,6.22,0,0,1-.7,3.32,2.57,2.57,0,0,1-4.24,0,6.11,6.11,0,0,1-.72-3.29,6.32,6.32,0,0,1,.69-3.32,2.6,2.6,0,0,1,4.25,0A6.12,6.12,0,0,1,964.57,1860.51Zm-4.68,0a6.35,6.35,0,0,0,.44,2.73,1.58,1.58,0,0,0,2.81,0,8.53,8.53,0,0,0,0-5.41,1.58,1.58,0,0,0-2.81,0A6.25,6.25,0,0,0,959.89,1860.51Z" style="fill:#fff"/><path d="M968.59,1856.12a2.88,2.88,0,0,1,1.86.55,1.79,1.79,0,0,1,.68,1.5,1.91,1.91,0,0,1-.39,1.16,3.49,3.49,0,0,1-1.25.94,4.4,4.4,0,0,1,1.48,1,2,2,0,0,1,.44,1.27,2.13,2.13,0,0,1-.74,1.7,3,3,0,0,1-2,.64,3.25,3.25,0,0,1-2.11-.6,2.08,2.08,0,0,1-.74-1.71,2.55,2.55,0,0,1,1.79-2.29,3.33,3.33,0,0,1-1.16-1,2.15,2.15,0,0,1-.35-1.19,1.82,1.82,0,0,1,.69-1.49A2.84,2.84,0,0,1,968.59,1856.12Zm-1.85,6.53a1.3,1.3,0,0,0,.49,1.09,2.09,2.09,0,0,0,1.37.4,2,2,0,0,0,1.36-.41,1.39,1.39,0,0,0,.49-1.13,1.34,1.34,0,0,0-.46-1,4.7,4.7,0,0,0-1.59-.86,3.53,3.53,0,0,0-1.27.83A1.62,1.62,0,0,0,966.74,1862.65Zm1.84-5.74a1.75,1.75,0,0,0-1.15.35,1.17,1.17,0,0,0-.41.94,1.35,1.35,0,0,0,.34.93,3.79,3.79,0,0,0,1.28.77,3.21,3.21,0,0,0,1.19-.76,1.4,1.4,0,0,0,.34-.94,1.16,1.16,0,0,0-.42-.94A1.79,1.79,0,0,0,968.58,1856.91Z" style="fill:#fff"/><path d="M976.31,1856.24l-3.19,8.57h-1l3.19-8.57Z" style="fill:#fff"/><path d="M982.65,1864.81H977V1864l2.26-2.27a16.94,16.94,0,0,0,1.36-1.48,3.87,3.87,0,0,0,.49-.87,2.49,2.49,0,0,0,.17-.91,1.44,1.44,0,0,0-.42-1.09,1.63,1.63,0,0,0-1.16-.4,2.87,2.87,0,0,0-1,.18,4.19,4.19,0,0,0-1.06.64l-.52-.67a4,4,0,0,1,2.58-1,2.75,2.75,0,0,1,1.9.62,2.13,2.13,0,0,1,.68,1.66,3.16,3.16,0,0,1-.46,1.61,10.16,10.16,0,0,1-1.71,2l-1.87,1.83v.05h4.4Z" style="fill:#fff"/><path d="M989.56,1860.51a6.22,6.22,0,0,1-.7,3.32,2.57,2.57,0,0,1-4.24,0,6.11,6.11,0,0,1-.72-3.29,6.32,6.32,0,0,1,.69-3.32,2.6,2.6,0,0,1,4.25,0A6.12,6.12,0,0,1,989.56,1860.51Zm-4.68,0a6.35,6.35,0,0,0,.44,2.73,1.58,1.58,0,0,0,2.81,0,8.53,8.53,0,0,0,0-5.41,1.58,1.58,0,0,0-2.81,0A6.25,6.25,0,0,0,984.88,1860.51Z" style="fill:#fff"/><path d="M996.38,1864.81h-5.63V1864l2.25-2.27a16.94,16.94,0,0,0,1.36-1.48,3.87,3.87,0,0,0,.49-.87,2.49,2.49,0,0,0,.17-.91,1.44,1.44,0,0,0-.42-1.09,1.62,1.62,0,0,0-1.15-.4,2.83,2.83,0,0,0-1,.18,4.06,4.06,0,0,0-1.07.64l-.51-.67a4,4,0,0,1,2.58-1,2.74,2.74,0,0,1,1.89.62,2.1,2.1,0,0,1,.68,1.66,3.25,3.25,0,0,1-.45,1.61,10.91,10.91,0,0,1-1.71,2l-1.88,1.83v.05h4.41Z" style="fill:#fff"/><path d="M1003.24,1864.81h-5.63V1864l2.25-2.27a16.94,16.94,0,0,0,1.36-1.48,3.51,3.51,0,0,0,.49-.87,2.49,2.49,0,0,0,.17-.91,1.44,1.44,0,0,0-.42-1.09,1.61,1.61,0,0,0-1.15-.4,2.83,2.83,0,0,0-1,.18,4.23,4.23,0,0,0-1.07.64l-.51-.67a4,4,0,0,1,2.58-1,2.74,2.74,0,0,1,1.89.62,2.11,2.11,0,0,1,.69,1.66,3.26,3.26,0,0,1-.46,1.61,10.91,10.91,0,0,1-1.71,2l-1.88,1.83v.05h4.41Z" style="fill:#fff"/><path d="M1004.77,1864.19a.9.9,0,0,1,.18-.6.66.66,0,0,1,.51-.2.73.73,0,0,1,.54.2.9.9,0,0,1,.19.6.8.8,0,0,1-.2.58.68.68,0,0,1-.53.21.71.71,0,0,1-.49-.18A.83.83,0,0,1,1004.77,1864.19Z" style="fill:#fff"/><path d="M48.49,1881.47a2,2,0,0,1-.86-.16v-.85a3,3,0,0,0,.86.11,1.1,1.1,0,0,0,.89-.35,1.5,1.5,0,0,0,.3-1v-8.57h1v8.49a2.43,2.43,0,0,1-.56,1.72A2.07,2.07,0,0,1,48.49,1881.47Z" style="fill:#fff"/><path d="M58.34,1876a3.51,3.51,0,0,1-.79,2.45,2.76,2.76,0,0,1-2.18.89,2.87,2.87,0,0,1-1.53-.41,2.59,2.59,0,0,1-1-1.16,3.91,3.91,0,0,1-.37-1.77,3.54,3.54,0,0,1,.79-2.44,2.75,2.75,0,0,1,2.18-.88,2.71,2.71,0,0,1,2.14.9A3.49,3.49,0,0,1,58.34,1876Zm-4.89,0a3.12,3.12,0,0,0,.49,1.88,2,2,0,0,0,2.9,0,3.75,3.75,0,0,0,0-3.74,1.75,1.75,0,0,0-1.46-.63,1.72,1.72,0,0,0-1.44.62A3,3,0,0,0,53.45,1876Z" style="fill:#fff"/><path d="M63,1872.68a2.37,2.37,0,0,1,2,.87,3.75,3.75,0,0,1,.7,2.44,3.81,3.81,0,0,1-.7,2.46,2.4,2.4,0,0,1-2,.88,2.88,2.88,0,0,1-1.15-.23,2.31,2.31,0,0,1-.87-.72H61l-.2.83h-.7v-9.12h1v2.22c0,.49,0,.94-.05,1.33H61A2.31,2.31,0,0,1,63,1872.68Zm-.14.82a1.7,1.7,0,0,0-1.44.57,4.41,4.41,0,0,0,0,3.86,1.72,1.72,0,0,0,1.45.58,1.52,1.52,0,0,0,1.34-.65,3.39,3.39,0,0,0,.44-1.88,3.27,3.27,0,0,0-.44-1.87A1.57,1.57,0,0,0,62.9,1873.5Z" style="fill:#fff"/><path d="M71.55,1877.46a1.61,1.61,0,0,1-.67,1.38,3.18,3.18,0,0,1-1.88.49,4.07,4.07,0,0,1-2-.41v-.9a4.69,4.69,0,0,0,1,.37,4.21,4.21,0,0,0,1,.13,2.37,2.37,0,0,0,1.17-.24.83.83,0,0,0,.08-1.38,4.84,4.84,0,0,0-1.27-.63,7.27,7.27,0,0,1-1.27-.58,1.78,1.78,0,0,1-.56-.57,1.41,1.41,0,0,1-.19-.76,1.47,1.47,0,0,1,.64-1.24,3,3,0,0,1,1.75-.45,5.16,5.16,0,0,1,2,.42l-.35.79a4.68,4.68,0,0,0-1.75-.39,2,2,0,0,0-1,.21.69.69,0,0,0-.35.6.72.72,0,0,0,.13.44,1.25,1.25,0,0,0,.42.34,10.68,10.68,0,0,0,1.13.48,4.18,4.18,0,0,1,1.54.84A1.46,1.46,0,0,1,71.55,1877.46Z" style="fill:#fff"/><path d="M84.43,1879.21V1875a1.73,1.73,0,0,0-.33-1.15,1.26,1.26,0,0,0-1-.38,1.64,1.64,0,0,0-1.34.52,2.47,2.47,0,0,0-.43,1.6v3.59h-1V1875a1.79,1.79,0,0,0-.32-1.15,1.27,1.27,0,0,0-1-.38,1.6,1.6,0,0,0-1.34.54,3,3,0,0,0-.42,1.8v3.37h-1v-6.42H77l.15.88h0a1.86,1.86,0,0,1,.78-.74,2.4,2.4,0,0,1,1.12-.26,1.91,1.91,0,0,1,2,1.09h0a2.09,2.09,0,0,1,.84-.8,2.61,2.61,0,0,1,1.24-.29,2.17,2.17,0,0,1,1.63.56,2.5,2.5,0,0,1,.54,1.79v4.19Z" style="fill:#fff"/><path d="M90.12,1879.33a3,3,0,0,1-2.25-.87,3.35,3.35,0,0,1-.82-2.41,3.74,3.74,0,0,1,.76-2.47,2.58,2.58,0,0,1,2.06-.91,2.46,2.46,0,0,1,1.91.79,3,3,0,0,1,.7,2.1v.61H88.06a2.55,2.55,0,0,0,.57,1.72,2,2,0,0,0,1.52.59,5.19,5.19,0,0,0,2.06-.44v.87a4.85,4.85,0,0,1-1,.32A5.85,5.85,0,0,1,90.12,1879.33Zm-.26-5.84a1.58,1.58,0,0,0-1.24.5,2.31,2.31,0,0,0-.54,1.39h3.36A2.17,2.17,0,0,0,91,1874,1.47,1.47,0,0,0,89.86,1873.49Z" style="fill:#fff"/><path d="M98.53,1879.21v-4.15a1.73,1.73,0,0,0-.35-1.18,1.5,1.5,0,0,0-1.12-.38,1.85,1.85,0,0,0-1.48.54,2.76,2.76,0,0,0-.47,1.8v3.37h-1v-6.42h.79l.16.88h0a2,2,0,0,1,.84-.74,2.78,2.78,0,0,1,1.2-.26,2.45,2.45,0,0,1,1.75.56,2.38,2.38,0,0,1,.59,1.79v4.19Z" style="fill:#fff"/><path d="M103.58,1878.52a4.07,4.07,0,0,0,.5,0l.38-.08v.74a2.15,2.15,0,0,1-.47.13,3.86,3.86,0,0,1-.55,0c-1.24,0-1.87-.66-1.87-2v-3.82h-.92v-.47l.92-.4.41-1.37h.57v1.49h1.86v.75h-1.86v3.78a1.3,1.3,0,0,0,.27.89A1,1,0,0,0,103.58,1878.52Z" style="fill:#fff"/><path d="M105.66,1871.05a.63.63,0,0,1,.16-.49.56.56,0,0,1,.41-.16.62.62,0,0,1,.41.16.79.79,0,0,1,0,1,.62.62,0,0,1-.41.16.6.6,0,0,1-.41-.16A.66.66,0,0,1,105.66,1871.05Zm1,8.16h-1v-6.42h1Z" style="fill:#fff"/><path d="M114.32,1876a3.55,3.55,0,0,1-.79,2.45,2.8,2.8,0,0,1-2.19.89,2.92,2.92,0,0,1-1.53-.41,2.65,2.65,0,0,1-1-1.16,4.05,4.05,0,0,1-.36-1.77,3.54,3.54,0,0,1,.78-2.44,2.77,2.77,0,0,1,2.18-.88,2.69,2.69,0,0,1,2.14.9A3.5,3.5,0,0,1,114.32,1876Zm-4.89,0a3.05,3.05,0,0,0,.49,1.88,2,2,0,0,0,2.9,0,3.81,3.81,0,0,0,0-3.74,2,2,0,0,0-2.91,0A3.05,3.05,0,0,0,109.43,1876Z" style="fill:#fff"/><path d="M120.42,1879.21v-4.15a1.68,1.68,0,0,0-.36-1.18,1.49,1.49,0,0,0-1.12-.38,1.88,1.88,0,0,0-1.48.54,2.76,2.76,0,0,0-.46,1.8v3.37h-1v-6.42h.79l.16.88h0a2,2,0,0,1,.84-.74,2.78,2.78,0,0,1,1.2-.26,2.44,2.44,0,0,1,1.74.56,2.34,2.34,0,0,1,.59,1.79v4.19Z" style="fill:#fff"/><path d="M126.1,1879.33a3,3,0,0,1-2.25-.87,3.4,3.4,0,0,1-.82-2.41,3.74,3.74,0,0,1,.77-2.47,2.56,2.56,0,0,1,2-.91,2.46,2.46,0,0,1,1.91.79,3,3,0,0,1,.7,2.1v.61H124a2.55,2.55,0,0,0,.57,1.72,2,2,0,0,0,1.53.59,5.18,5.18,0,0,0,2-.44v.87a4.85,4.85,0,0,1-1,.32A5.69,5.69,0,0,1,126.1,1879.33Zm-.26-5.84a1.58,1.58,0,0,0-1.24.5,2.38,2.38,0,0,0-.54,1.39h3.36A2.17,2.17,0,0,0,127,1874,1.45,1.45,0,0,0,125.84,1873.49Z" style="fill:#fff"/><path d="M134.49,1878.35h-.05a2.29,2.29,0,0,1-2,1,2.4,2.4,0,0,1-2-.86,4.64,4.64,0,0,1,0-4.92,2.6,2.6,0,0,1,4,.07h.07l0-.46,0-.45v-2.62h1v9.12h-.79Zm-1.94.16A1.77,1.77,0,0,0,134,1878a2.72,2.72,0,0,0,.45-1.75v-.2a3.25,3.25,0,0,0-.45-2,1.73,1.73,0,0,0-1.45-.58,1.48,1.48,0,0,0-1.31.66,3.24,3.24,0,0,0-.46,1.88,3.19,3.19,0,0,0,.45,1.86A1.54,1.54,0,0,0,132.55,1878.51Z" style="fill:#fff"/><path d="M144.54,1879.21l-.19-.91h0a2.66,2.66,0,0,1-1,.81,2.78,2.78,0,0,1-1.19.22,2.14,2.14,0,0,1-1.5-.5,1.78,1.78,0,0,1-.54-1.4c0-1.29,1-2,3.11-2l1.09,0v-.4a1.65,1.65,0,0,0-.32-1.11,1.35,1.35,0,0,0-1-.36,4.22,4.22,0,0,0-1.82.49l-.3-.75a5,5,0,0,1,1-.4,4.46,4.46,0,0,1,1.14-.15,2.45,2.45,0,0,1,1.7.51,2.14,2.14,0,0,1,.55,1.64v4.38Zm-2.2-.69a2,2,0,0,0,1.43-.49,1.85,1.85,0,0,0,.52-1.4v-.58l-1,0a3.65,3.65,0,0,0-1.68.36,1.11,1.11,0,0,0-.51,1,1,1,0,0,0,.32.8A1.33,1.33,0,0,0,142.34,1878.52Z" style="fill:#fff"/><path d="M150.2,1872.67a3.51,3.51,0,0,1,.76.07l-.13.9a3.19,3.19,0,0,0-.7-.08,1.73,1.73,0,0,0-1.34.63,2.3,2.3,0,0,0-.55,1.57v3.45h-1v-6.42h.8l.11,1.19h0a2.72,2.72,0,0,1,.86-1A1.89,1.89,0,0,1,150.2,1872.67Z" style="fill:#fff"/><path d="M154.88,1879.33a3,3,0,0,1-2.25-.87,3.35,3.35,0,0,1-.82-2.41,3.74,3.74,0,0,1,.76-2.47,2.58,2.58,0,0,1,2.06-.91,2.46,2.46,0,0,1,1.91.79,3.09,3.09,0,0,1,.7,2.1v.61h-4.43a2.5,2.5,0,0,0,.58,1.72,2,2,0,0,0,1.52.59A5.15,5.15,0,0,0,157,1878v.87a4.77,4.77,0,0,1-1,.32A5.85,5.85,0,0,1,154.88,1879.33Zm-.27-5.84a1.58,1.58,0,0,0-1.23.5,2.25,2.25,0,0,0-.54,1.39h3.36a2.17,2.17,0,0,0-.41-1.41A1.48,1.48,0,0,0,154.61,1873.49Z" style="fill:#fff"/><path d="M164.91,1873.54h-1.64v5.67h-1v-5.67h-1.15v-.44l1.15-.35v-.35q0-2.37,2.07-2.37a4.41,4.41,0,0,1,1.19.2l-.25.78a3.19,3.19,0,0,0-1-.18.91.91,0,0,0-.81.37,2,2,0,0,0-.27,1.17v.42h1.64Z" style="fill:#fff"/><path d="M171.62,1876a3.51,3.51,0,0,1-.79,2.45,2.78,2.78,0,0,1-2.18.89,2.87,2.87,0,0,1-1.53-.41,2.59,2.59,0,0,1-1-1.16,3.91,3.91,0,0,1-.37-1.77,3.5,3.5,0,0,1,.79-2.44,2.75,2.75,0,0,1,2.18-.88,2.71,2.71,0,0,1,2.14.9A3.49,3.49,0,0,1,171.62,1876Zm-4.89,0a3.05,3.05,0,0,0,.49,1.88,2,2,0,0,0,2.9,0,3.75,3.75,0,0,0,0-3.74,1.75,1.75,0,0,0-1.46-.63,1.72,1.72,0,0,0-1.44.62A3,3,0,0,0,166.73,1876Z" style="fill:#fff"/><path d="M176.26,1872.67a3.67,3.67,0,0,1,.77.07l-.14.9a3.13,3.13,0,0,0-.7-.08,1.73,1.73,0,0,0-1.34.63,2.35,2.35,0,0,0-.55,1.57v3.45h-1v-6.42h.8l.11,1.19h0a2.82,2.82,0,0,1,.86-1A1.94,1.94,0,0,1,176.26,1872.67Z" style="fill:#fff"/><path d="M181.26,1871.05a.63.63,0,0,1,.17-.49.54.54,0,0,1,.41-.16.59.59,0,0,1,.4.16.79.79,0,0,1,0,1,.59.59,0,0,1-.4.16.58.58,0,0,1-.41-.16A.66.66,0,0,1,181.26,1871.05Zm1.06,8.16h-1v-6.42h1Z" style="fill:#fff"/><path d="M185.35,1879.21h-1v-9.12h1Z" style="fill:#fff"/><path d="M188.39,1879.21h-1v-9.12h1Z" style="fill:#fff"/><path d="M191.36,1872.79V1877a1.68,1.68,0,0,0,.36,1.18,1.49,1.49,0,0,0,1.12.38,1.81,1.81,0,0,0,1.47-.55,2.79,2.79,0,0,0,.47-1.8v-3.37h1v6.42H195l-.14-.86h-.05a1.94,1.94,0,0,1-.83.72,2.79,2.79,0,0,1-1.21.26,2.48,2.48,0,0,1-1.76-.56,2.35,2.35,0,0,1-.58-1.78v-4.2Z" style="fill:#fff"/><path d="M202,1877.46a1.61,1.61,0,0,1-.67,1.38,3.18,3.18,0,0,1-1.88.49,4.07,4.07,0,0,1-2-.41v-.9a4.58,4.58,0,0,0,1,.37,4.08,4.08,0,0,0,1,.13,2.32,2.32,0,0,0,1.17-.24.83.83,0,0,0,.08-1.38,4.9,4.9,0,0,0-1.26-.63,7.1,7.1,0,0,1-1.28-.58,1.78,1.78,0,0,1-.56-.57,1.5,1.5,0,0,1-.19-.76,1.47,1.47,0,0,1,.64-1.24,3,3,0,0,1,1.76-.45,5.12,5.12,0,0,1,2,.42l-.34.79a4.77,4.77,0,0,0-1.76-.39,2.07,2.07,0,0,0-1,.21.69.69,0,0,0-.35.6.72.72,0,0,0,.13.44,1.2,1.2,0,0,0,.43.34,9.41,9.41,0,0,0,1.12.48,4.34,4.34,0,0,1,1.55.84A1.5,1.5,0,0,1,202,1877.46Z" style="fill:#fff"/><path d="M205.61,1878.52a4,4,0,0,0,.5,0l.38-.08v.74a2,2,0,0,1-.46.13,4,4,0,0,1-.56,0c-1.24,0-1.86-.66-1.86-2v-3.82h-.92v-.47l.92-.4.41-1.37h.56v1.49h1.87v.75h-1.87v3.78a1.25,1.25,0,0,0,.28.89A.93.93,0,0,0,205.61,1878.52Z" style="fill:#fff"/><path d="M210.71,1872.67a3.51,3.51,0,0,1,.76.07l-.13.9a3.21,3.21,0,0,0-.71-.08,1.72,1.72,0,0,0-1.33.63,2.3,2.3,0,0,0-.55,1.57v3.45h-1v-6.42h.8l.11,1.19h.05a2.72,2.72,0,0,1,.86-1A1.89,1.89,0,0,1,210.71,1872.67Z" style="fill:#fff"/><path d="M216.62,1879.21l-.19-.91h-.05a2.66,2.66,0,0,1-1,.81,2.75,2.75,0,0,1-1.19.22,2.13,2.13,0,0,1-1.49-.5,1.75,1.75,0,0,1-.55-1.4c0-1.29,1-2,3.11-2l1.09,0v-.4a1.6,1.6,0,0,0-.32-1.11,1.34,1.34,0,0,0-1-.36,4.22,4.22,0,0,0-1.82.49l-.3-.75a5,5,0,0,1,1-.4,4.46,4.46,0,0,1,1.14-.15,2.45,2.45,0,0,1,1.7.51,2.14,2.14,0,0,1,.55,1.64v4.38Zm-2.19-.69a2,2,0,0,0,1.42-.49,1.85,1.85,0,0,0,.52-1.4v-.58l-1,0a3.6,3.6,0,0,0-1.67.36,1.09,1.09,0,0,0-.52,1,1,1,0,0,0,.32.8A1.36,1.36,0,0,0,214.43,1878.52Z" style="fill:#fff"/><path d="M221.42,1878.52a4.07,4.07,0,0,0,.5,0l.38-.08v.74a2,2,0,0,1-.46.13,4,4,0,0,1-.56,0c-1.24,0-1.86-.66-1.86-2v-3.82h-.92v-.47l.92-.4.41-1.37h.56v1.49h1.86v.75h-1.86v3.78a1.25,1.25,0,0,0,.28.89A.93.93,0,0,0,221.42,1878.52Z" style="fill:#fff"/><path d="M223.5,1871.05a.63.63,0,0,1,.17-.49.54.54,0,0,1,.41-.16.59.59,0,0,1,.4.16.79.79,0,0,1,0,1,.59.59,0,0,1-.4.16.58.58,0,0,1-.41-.16A.66.66,0,0,1,223.5,1871.05Zm1.06,8.16h-1v-6.42h1Z" style="fill:#fff"/><path d="M232.16,1876a3.51,3.51,0,0,1-.79,2.45,2.78,2.78,0,0,1-2.18.89,2.87,2.87,0,0,1-1.53-.41,2.59,2.59,0,0,1-1-1.16,3.91,3.91,0,0,1-.37-1.77,3.5,3.5,0,0,1,.79-2.44,2.75,2.75,0,0,1,2.18-.88,2.71,2.71,0,0,1,2.14.9A3.49,3.49,0,0,1,232.16,1876Zm-4.89,0a3.05,3.05,0,0,0,.49,1.88,2,2,0,0,0,2.9,0,3.81,3.81,0,0,0,0-3.74,1.75,1.75,0,0,0-1.46-.63,1.72,1.72,0,0,0-1.44.62A3,3,0,0,0,227.27,1876Z" style="fill:#fff"/><path d="M238.26,1879.21v-4.15a1.68,1.68,0,0,0-.36-1.18,1.46,1.46,0,0,0-1.11-.38,1.85,1.85,0,0,0-1.48.54,2.76,2.76,0,0,0-.47,1.8v3.37h-1v-6.42h.79l.16.88h0a2,2,0,0,1,.84-.74,2.78,2.78,0,0,1,1.2-.26,2.45,2.45,0,0,1,1.75.56,2.38,2.38,0,0,1,.58,1.79v4.19Z" style="fill:#fff"/><path d="M247.34,1879.33a2.88,2.88,0,0,1-1.15-.23,2.31,2.31,0,0,1-.87-.72h-.07a8.11,8.11,0,0,1,.07,1.07v2.64h-1v-9.3h.79l.14.88h0a2.29,2.29,0,0,1,.88-.77,2.73,2.73,0,0,1,1.14-.23,2.37,2.37,0,0,1,2,.87A3.88,3.88,0,0,1,250,1876a3.81,3.81,0,0,1-.7,2.46A2.4,2.4,0,0,1,247.34,1879.33Zm-.14-5.83a1.75,1.75,0,0,0-1.43.54,2.84,2.84,0,0,0-.45,1.74v.21a3.22,3.22,0,0,0,.45,1.94,1.72,1.72,0,0,0,1.45.58,1.48,1.48,0,0,0,1.3-.67A3.16,3.16,0,0,0,249,1876a3,3,0,0,0-.48-1.84A1.53,1.53,0,0,0,247.2,1873.5Z" style="fill:#fff"/><path d="M252.62,1872.79V1877a1.73,1.73,0,0,0,.35,1.18,1.5,1.5,0,0,0,1.12.38,1.82,1.82,0,0,0,1.48-.55,2.8,2.8,0,0,0,.46-1.8v-3.37h1v6.42h-.81l-.14-.86H256a1.94,1.94,0,0,1-.83.72,2.76,2.76,0,0,1-1.21.26,2.44,2.44,0,0,1-1.75-.56,2.36,2.36,0,0,1-.59-1.78v-4.2Z" style="fill:#fff"/><path d="M262,1872.67a3.67,3.67,0,0,1,.77.07l-.14.9a3.13,3.13,0,0,0-.7-.08,1.73,1.73,0,0,0-1.34.63,2.35,2.35,0,0,0-.55,1.57v3.45h-1v-6.42h.8L260,1874h0a2.82,2.82,0,0,1,.86-1A1.94,1.94,0,0,1,262,1872.67Z" style="fill:#fff"/><path d="M267,1879.33a2.88,2.88,0,0,1-1.15-.23,2.17,2.17,0,0,1-.87-.72h-.07a8.11,8.11,0,0,1,.07,1.07v2.64h-1v-9.3h.79l.13.88h.05a2.34,2.34,0,0,1,.87-.77,2.78,2.78,0,0,1,1.15-.23,2.39,2.39,0,0,1,2,.87,3.88,3.88,0,0,1,.69,2.45,3.81,3.81,0,0,1-.7,2.46A2.41,2.41,0,0,1,267,1879.33Zm-.15-5.83a1.73,1.73,0,0,0-1.42.54,2.84,2.84,0,0,0-.45,1.74v.21a3.22,3.22,0,0,0,.45,1.94,1.71,1.71,0,0,0,1.45.58,1.49,1.49,0,0,0,1.3-.67,3.16,3.16,0,0,0,.47-1.86,3,3,0,0,0-.47-1.84A1.54,1.54,0,0,0,266.81,1873.5Z" style="fill:#fff"/><path d="M276.86,1876a3.51,3.51,0,0,1-.79,2.45,2.76,2.76,0,0,1-2.18.89,2.87,2.87,0,0,1-1.53-.41,2.59,2.59,0,0,1-1-1.16A3.91,3.91,0,0,1,271,1876a3.5,3.5,0,0,1,.79-2.44,2.75,2.75,0,0,1,2.18-.88,2.71,2.71,0,0,1,2.14.9A3.49,3.49,0,0,1,276.86,1876Zm-4.89,0a3.05,3.05,0,0,0,.49,1.88,2,2,0,0,0,2.9,0,3.75,3.75,0,0,0,0-3.74,1.75,1.75,0,0,0-1.46-.63,1.72,1.72,0,0,0-1.44.62A3,3,0,0,0,272,1876Z" style="fill:#fff"/><path d="M282.71,1877.46a1.59,1.59,0,0,1-.67,1.38,3.15,3.15,0,0,1-1.87.49,4,4,0,0,1-2-.41v-.9a4.5,4.5,0,0,0,1,.37,4.08,4.08,0,0,0,1,.13,2.32,2.32,0,0,0,1.17-.24.84.84,0,0,0,.09-1.38,5,5,0,0,0-1.27-.63,6.93,6.93,0,0,1-1.27-.58,1.82,1.82,0,0,1-.57-.57,1.5,1.5,0,0,1-.18-.76,1.45,1.45,0,0,1,.64-1.24,3,3,0,0,1,1.75-.45,5.16,5.16,0,0,1,2,.42l-.35.79a4.72,4.72,0,0,0-1.75-.39,2,2,0,0,0-1,.21.68.68,0,0,0-.36.6.72.72,0,0,0,.14.44,1.15,1.15,0,0,0,.42.34,9.8,9.8,0,0,0,1.13.48,4.27,4.27,0,0,1,1.54.84A1.46,1.46,0,0,1,282.71,1877.46Z" style="fill:#fff"/><path d="M287,1879.33a3,3,0,0,1-2.25-.87,3.35,3.35,0,0,1-.82-2.41,3.74,3.74,0,0,1,.76-2.47,2.56,2.56,0,0,1,2.05-.91,2.43,2.43,0,0,1,1.91.79,3.05,3.05,0,0,1,.71,2.1v.61h-4.43a2.55,2.55,0,0,0,.57,1.72,2,2,0,0,0,1.53.59,5.15,5.15,0,0,0,2-.44v.87a4.77,4.77,0,0,1-1,.32A5.85,5.85,0,0,1,287,1879.33Zm-.27-5.84a1.58,1.58,0,0,0-1.23.5,2.25,2.25,0,0,0-.54,1.39h3.35a2.12,2.12,0,0,0-.41-1.41A1.45,1.45,0,0,0,286.74,1873.49Z" style="fill:#fff"/><path d="M295.17,1877.46a1.59,1.59,0,0,1-.67,1.38,3.17,3.17,0,0,1-1.87.49,4.09,4.09,0,0,1-2-.41v-.9a4.58,4.58,0,0,0,1,.37,4.08,4.08,0,0,0,1,.13,2.32,2.32,0,0,0,1.17-.24.81.81,0,0,0,.41-.74.82.82,0,0,0-.32-.64,5,5,0,0,0-1.27-.63,7.1,7.1,0,0,1-1.28-.58,1.78,1.78,0,0,1-.56-.57,1.5,1.5,0,0,1-.18-.76,1.46,1.46,0,0,1,.63-1.24,3,3,0,0,1,1.76-.45,5.12,5.12,0,0,1,2,.42l-.34.79a4.77,4.77,0,0,0-1.75-.39,2.09,2.09,0,0,0-1.05.21.69.69,0,0,0-.35.6.79.79,0,0,0,.13.44,1.2,1.2,0,0,0,.43.34,9.41,9.41,0,0,0,1.12.48,4.34,4.34,0,0,1,1.55.84A1.5,1.5,0,0,1,295.17,1877.46Z" style="fill:#fff"/><path d="M305.41,1876a3.51,3.51,0,0,1-.79,2.45,2.8,2.8,0,0,1-2.19.89,2.92,2.92,0,0,1-1.53-.41,2.72,2.72,0,0,1-1-1.16,4.05,4.05,0,0,1-.36-1.77,3.5,3.5,0,0,1,.79-2.44,3.07,3.07,0,0,1,4.32,0A3.49,3.49,0,0,1,305.41,1876Zm-4.89,0a3.05,3.05,0,0,0,.49,1.88,2,2,0,0,0,2.9,0,3.81,3.81,0,0,0,0-3.74,2,2,0,0,0-2.91,0A3.05,3.05,0,0,0,300.52,1876Z" style="fill:#fff"/><path d="M311.51,1879.21v-4.15a1.68,1.68,0,0,0-.36-1.18,1.49,1.49,0,0,0-1.12-.38,1.84,1.84,0,0,0-1.47.54,2.7,2.7,0,0,0-.47,1.8v3.37h-1v-6.42h.79l.15.88h.05a2,2,0,0,1,.84-.74,2.78,2.78,0,0,1,1.2-.26,2.47,2.47,0,0,1,1.75.56,2.38,2.38,0,0,1,.58,1.79v4.19Z" style="fill:#fff"/><path d="M315.45,1879.21h-1v-9.12h1Z" style="fill:#fff"/><path d="M316.5,1872.79h1l1.41,3.66a14.72,14.72,0,0,1,.57,1.81h.05c.05-.2.15-.54.32-1s.69-2,1.59-4.45h1l-2.76,7.31a3.58,3.58,0,0,1-1,1.54,2,2,0,0,1-1.34.45,3.71,3.71,0,0,1-.88-.1v-.78a3.14,3.14,0,0,0,.72.07,1.48,1.48,0,0,0,1.43-1.12l.36-.92Z" style="fill:#fff"/><path d="M323.42,1878.59a.9.9,0,0,1,.18-.6.66.66,0,0,1,.51-.2.69.69,0,0,1,.53.2.85.85,0,0,1,.19.6.8.8,0,0,1-.19.58.68.68,0,0,1-.53.21.66.66,0,0,1-.49-.19A.79.79,0,0,1,323.42,1878.59Z" style="fill:#fff"/><rect x="1.56" y="1888.59" width="33" height="33" style="fill:none"/></g></g></svg>