<svg xmlns="http://www.w3.org/2000/svg" viewBox="0 0 1080 1920.48"><title>Asset 13</title><g id="Layer_2" data-name="Layer 2"><g id="Layer_1-2" data-name="Layer 1"><rect y="0.06" width="1080" height="1920.42" style="fill:#ec1a3e"/><path d="M538.91,1385.72a29.21,29.21,0,1,1-29.34,28.72A29.25,29.25,0,0,1,538.91,1385.72Zm-.16,52.56a23.35,23.35,0,1,0-23.33-23.63A23.37,23.37,0,0,0,538.75,1438.28Z"/><path d="M531.28,1412h22a2.92,2.92,0,0,1,2.81,4,2.87,2.87,0,0,1-2.76,1.87c-3.08,0-6.15,0-9.23,0H531.3c.22.25.33.4.46.53l7.37,7.38a2.92,2.92,0,1,1-4.08,4.16c-3.93-3.9-7.85-7.83-11.77-11.75-.39-.39-.78-.76-1.15-1.16a2.91,2.91,0,0,1,0-4.17q6.45-6.46,12.93-12.91a2.92,2.92,0,1,1,4.11,4.14c-2.47,2.5-5,5-7.45,7.46A6.51,6.51,0,0,0,531.28,1412Z"/><path d="M427.72,341.56q0,13-6.36,19.73T402.73,368q-12.09,0-18.55-6.79t-6.45-19.76q0-12.83,6.42-19.6t18.65-6.76q12.27,0,18.6,6.71T427.72,341.56Zm-35.36,0q0,14.91,10.37,14.91,5.26,0,7.82-3.62t2.55-11.29q0-7.69-2.58-11.37a8.83,8.83,0,0,0-7.72-3.67Q392.36,326.52,392.36,341.56Z" style="fill:#fff"/><path d="M476.11,332.28q0,8.63-5.08,13.31t-14.44,4.69h-3.9v17.05H438.81v-51.4h17.78q9.75,0,14.63,4.26C474.48,323,476.11,327.06,476.11,332.28ZM452.69,339h2.53a6.89,6.89,0,0,0,5-1.76,6.36,6.36,0,0,0,1.84-4.85q0-5.21-5.76-5.2h-3.59Z" style="fill:#fff"/><path d="M516.61,367.33H486.1v-51.4h30.51v11.15H500v8.08h15.4v11.15H500V356h16.63Z" style="fill:#fff"/><path d="M576.35,367.33H558.14l-18.77-36.21h-.32q.68,8.55.67,13v23.17H527.41v-51.4h18.14l18.71,35.72h.21q-.5-7.77-.49-12.48V315.93h12.37Z" style="fill:#fff"/><path d="M632.44,367.33H618.55v-40H606V315.93h39v11.36H632.44Z" style="fill:#fff"/><path d="M702.2,341.56q0,13-6.37,19.73T677.2,368q-12.09,0-18.54-6.79t-6.46-19.76q0-12.83,6.42-19.6t18.65-6.76q12.27,0,18.6,6.71T702.2,341.56Zm-35.37,0q0,14.91,10.37,14.91c3.52,0,6.12-1.21,7.82-3.62s2.55-6.18,2.55-11.29-.86-8.92-2.58-11.37a8.83,8.83,0,0,0-7.72-3.67Q666.83,326.52,666.83,341.56Z" style="fill:#fff"/><path d="M364.86,432.24a15.13,15.13,0,0,1-2.43,8.49,15.88,15.88,0,0,1-7,5.77,26,26,0,0,1-10.73,2.05,43.4,43.4,0,0,1-8.61-.72,32.22,32.22,0,0,1-7.24-2.51V432.94a41.86,41.86,0,0,0,8.26,3.19,30.83,30.83,0,0,0,7.88,1.14,7.67,7.67,0,0,0,4.53-1.07,3.31,3.31,0,0,0,1.44-2.76,3,3,0,0,0-.58-1.85,6.84,6.84,0,0,0-1.86-1.6q-1.29-.81-6.84-3.3a33.15,33.15,0,0,1-7.54-4.43,13.59,13.59,0,0,1-3.73-4.92,16.38,16.38,0,0,1-1.21-6.58,13.16,13.16,0,0,1,5.17-11.07q5.16-4,14.2-4a39.73,39.73,0,0,1,16.28,3.7l-4.26,10.72q-7.2-3.3-12.44-3.31a6.5,6.5,0,0,0-3.94.95,2.89,2.89,0,0,0-1.23,2.36,3.4,3.4,0,0,0,1.57,2.71,59.36,59.36,0,0,0,8.49,4.35q6.65,3,9.22,6.42A13.9,13.9,0,0,1,364.86,432.24Z" style="fill:#fff"/><path d="M411.9,412.8q0,8.61-5.08,13.31t-14.43,4.69h-3.9v17.05H374.6v-51.4h17.79q9.74,0,14.63,4.26T411.9,412.8Zm-23.41,6.68H391a6.93,6.93,0,0,0,5-1.76,6.38,6.38,0,0,0,1.84-4.85q0-5.21-5.76-5.2h-3.59Z" style="fill:#fff"/><path d="M452.41,447.85H421.9v-51.4h30.51V407.6H435.78v8.08h15.4v11.15h-15.4v9.7h16.63Z" style="fill:#fff"/><path d="M512.15,447.85H493.94l-18.77-36.21h-.32q.66,8.55.67,13v23.17H463.21v-51.4h18.14l18.71,35.72h.21q-.5-7.77-.5-12.48V396.45h12.38Z" style="fill:#fff"/><path d="M568.69,421.06q0,12.87-7.09,19.83t-19.91,7H525.06v-51.4h17.79q12.38,0,19.11,6.33T568.69,421.06Zm-14.42.49q0-7.07-2.79-10.47c-1.86-2.28-4.69-3.41-8.49-3.41h-4v28.79H542q6.33,0,9.28-3.67T554.27,421.55Z" style="fill:#fff"/><path d="M579.7,447.85v-51.4h14v51.4Z" style="fill:#fff"/><path d="M655.5,447.85H637.29l-18.77-36.21h-.32q.67,8.55.67,13v23.17H606.56v-51.4h18.15l18.7,35.72h.21q-.5-7.77-.49-12.48V396.45H655.5Z" style="fill:#fff"/><path d="M689.05,417.76h22.18v27.7a61,61,0,0,1-19.86,3.09q-11.88,0-18.37-6.89T666.51,422q0-12.45,7.1-19.37t19.9-6.93a44,44,0,0,1,9.16.92,38.77,38.77,0,0,1,7.51,2.32l-4.4,10.9a27.15,27.15,0,0,0-12.2-2.75q-6.08,0-9.4,4t-3.32,11.3q0,7.22,3,11c2,2.52,4.89,3.78,8.67,3.78a25.28,25.28,0,0,0,5.69-.6v-8h-9.17Z" style="fill:#fff"/><path d="M728.33,429.71v-3a11.2,11.2,0,0,1,1.4-5.82,14.79,14.79,0,0,1,5-4.62,18.87,18.87,0,0,0,4.1-3.24,4.91,4.91,0,0,0,1.25-3.3,2.65,2.65,0,0,0-1.34-2.34,6.28,6.28,0,0,0-3.48-.86q-5.31,0-12.41,3.76L718,400.71a36.4,36.4,0,0,1,18.29-5q7.83,0,12.3,3.45a11.22,11.22,0,0,1,4.46,9.39,13.41,13.41,0,0,1-2,7.36,20.2,20.2,0,0,1-6.35,5.89,24.23,24.23,0,0,0-4.62,3.5,4,4,0,0,0-.93,2.62v1.79ZM726.81,442a6.51,6.51,0,0,1,1.88-5,7.86,7.86,0,0,1,5.54-1.76,7.59,7.59,0,0,1,5.4,1.78,6.51,6.51,0,0,1,1.88,5,6.32,6.32,0,0,1-2,5,7.68,7.68,0,0,1-5.33,1.76,7.94,7.94,0,0,1-5.45-1.74A6.3,6.3,0,0,1,726.81,442Z" style="fill:#fff"/><path d="M385.44,548.94l13-19.55h2.79l-15.09,22.3-2.59,12.68h-2.51l2.85-13-5.67-21.94h2.39Z" style="fill:#fff"/><path d="M430.28,542.57A29.72,29.72,0,0,1,428,554.09a18,18,0,0,1-6,8.09,14.75,14.75,0,0,1-8.73,2.67q-6,0-9.22-3.57T400.82,551a28.62,28.62,0,0,1,2.23-11.42,18.34,18.34,0,0,1,6.1-7.92,15,15,0,0,1,8.92-2.76q5.91,0,9.06,3.55T430.28,542.57Zm-12.54-11.43a11.94,11.94,0,0,0-7.38,2.41,16.24,16.24,0,0,0-5.13,7.13,26.19,26.19,0,0,0-1.92,10c0,3.91.88,6.88,2.62,8.92s4.3,3.07,7.65,3.07a11.61,11.61,0,0,0,7.17-2.36,16,16,0,0,0,5-7.18,28,28,0,0,0,1.89-10.3c0-3.83-.84-6.73-2.5-8.71S421,531.14,417.74,531.14Z" style="fill:#fff"/><path d="M465.11,529.39l-4.95,23.37c-.92,4.31-2.5,7.4-4.71,9.28s-5.21,2.81-9,2.81q-10.52,0-10.52-9.6a22.22,22.22,0,0,1,.64-4.81L441,529.39h2.47l-4.62,21.51a20,20,0,0,0-.48,4.4q0,7.4,8.18,7.39a10.91,10.91,0,0,0,7.36-2.31q2.7-2.29,3.79-7.62l5-23.37Z" style="fill:#fff"/><path d="M500.24,531.14a14.61,14.61,0,0,0-8.41,2.5,16.91,16.91,0,0,0-5.87,7.28,25.36,25.36,0,0,0-2.16,10.55q0,5.38,2.64,8.28t7.6,2.9a24.69,24.69,0,0,0,7.27-1.22v2.24a24.86,24.86,0,0,1-7.56,1.18q-6,0-9.23-3.47t-3.21-9.81a27,27,0,0,1,2.5-11.68,19.44,19.44,0,0,1,6.81-8.16,17.1,17.1,0,0,1,9.62-2.84,15.68,15.68,0,0,1,7.34,1.62l-1.08,2.16a12.14,12.14,0,0,0-3-1.13A13.89,13.89,0,0,0,500.24,531.14Z" style="fill:#fff"/><path d="M538.78,542.57a29.72,29.72,0,0,1-2.25,11.52,18,18,0,0,1-6,8.09,14.75,14.75,0,0,1-8.73,2.67q-6,0-9.21-3.57T509.33,551a28.61,28.61,0,0,1,2.22-11.42,18.42,18.42,0,0,1,6.1-7.92,15,15,0,0,1,8.93-2.76q5.91,0,9,3.55T538.78,542.57Zm-12.54-11.43a12,12,0,0,0-7.38,2.41,16.39,16.39,0,0,0-5.13,7.13,26.19,26.19,0,0,0-1.91,10q0,5.87,2.62,8.92t7.64,3.07a11.63,11.63,0,0,0,7.18-2.36,16,16,0,0,0,5-7.18,28,28,0,0,0,1.89-10.3q0-5.74-2.5-8.71C532,532.12,529.53,531.14,526.24,531.14Z" style="fill:#fff"/><path d="M573.62,529.39l-5,23.37q-1.38,6.47-4.71,9.28t-9,2.81q-10.53,0-10.53-9.6a22.31,22.31,0,0,1,.65-4.81l4.45-21.05H552l-4.62,21.51a20.6,20.6,0,0,0-.47,4.4q0,7.4,8.18,7.39a11,11,0,0,0,7.36-2.31q2.68-2.29,3.79-7.62l5-23.37Z" style="fill:#fff"/><path d="M575.46,564.37l7.42-35h2.44l-6.92,32.68h14.86l-.55,2.3Z" style="fill:#fff"/><path d="M626.28,543.34a23.48,23.48,0,0,1-2.62,11,17.66,17.66,0,0,1-7.19,7.49,22,22,0,0,1-10.67,2.5h-7.9l7.42-35h7.3q6.74,0,10.2,3.53T626.28,543.34Zm-20.53,18.87a19,19,0,0,0,9.44-2.26,15.25,15.25,0,0,0,6.24-6.59,21.26,21.26,0,0,0,2.22-9.85q0-11.93-11.39-11.92h-4.93l-6.58,30.62Z" style="fill:#fff"/><path d="M650.35,529.39h9.07c3,0,5.34.67,7,2a7.09,7.09,0,0,1,2.4,5.76,8.37,8.37,0,0,1-2.15,6,10.49,10.49,0,0,1-6.08,3v.09a7.31,7.31,0,0,1,6,7.61,9.59,9.59,0,0,1-3.36,7.74q-3.36,2.84-9.35,2.84H642.93Zm-1.3,17.73-3.22,15.09H654c3.2,0,5.67-.69,7.4-2.09A7.42,7.42,0,0,0,664,554a6.15,6.15,0,0,0-2.16-5.16c-1.43-1.14-3.62-1.7-6.57-1.7Zm.46-2.16h6.65c3.29,0,5.78-.64,7.49-1.93a6.7,6.7,0,0,0,2.56-5.7,5.15,5.15,0,0,0-1.87-4.32,8.71,8.71,0,0,0-5.48-1.47h-6.5Z" style="fill:#fff"/><path d="M689.08,564.37H671.69l7.42-35H696.5l-.5,2.25H681.07l-2.8,13.23h14.11l-.5,2.25H677.81l-3.23,15h15Z" style="fill:#fff"/><path d="M697.22,563.05a3.34,3.34,0,0,1,.61-2.12,2,2,0,0,1,1.66-.77c1,0,1.56.57,1.56,1.72a3.46,3.46,0,0,1-.61,2.12,1.93,1.93,0,0,1-1.6.8C697.76,564.8,697.22,564.22,697.22,563.05ZM701,540.71a3.31,3.31,0,0,1,.61-2.13,2,2,0,0,1,1.64-.77c1,0,1.58.57,1.58,1.72a3.49,3.49,0,0,1-.6,2.13,1.89,1.89,0,0,1-1.61.82Q701,542.48,701,540.71Z" style="fill:#fff"/><path d="M346.76,182.19s-16.25,0-16.25-16.24V0H749.09V166s0,16.24-16.24,16.24Z" style="fill:#2a256c"/><path d="M655.32,44.67H649.2c14.42,8.7,23.4,18.78,23.4,29.63,0,32.4-68.64,56.2-152.4,56.2-48.4,0-91.47-8.39-119.22-21.43v6.82c28.74,13.23,71.51,21.63,119.22,21.63,90.47,0,156.85-27.66,156.85-61.64,0-11.35-7.9-22-21.73-31.21" style="fill:#fff"/><path d="M617.59,98.11V75.29L632.8,98.11h8V62.55h-8.89V85.27c-2.86-4.25-15-22.72-15-22.72h-8.2V98.11ZM571.86,89H584.1l3.66,9.09h10.17l-15.6-35.56H576.8L561,98.11h7Zm6.32-14.62,3.75,9.48H574ZM552.79,92.09H540.35V62.55h-8.69V98.11h21.13ZM411,62.55H401V98.11h10Zm44,26.47h12.25l3.65,9.09H481L465.38,62.55h-5.53l-15.8,35.56h7Zm6.32-14.62L465,83.88h-7.89Zm40.6,11.17H506a18.1,18.1,0,0,0,6-.89A11.4,11.4,0,0,0,519.51,74a11.68,11.68,0,0,0-2.27-7.4c-2.29-2.87-6.13-4.25-12.05-4.25H493V98.11h8.79Zm0-17.29h2.47c4.44,0,6.42,1.67,6.42,5.53a6.32,6.32,0,0,1-1.89,4.83c-.88.8-2.07,1-5,1h-2Zm-64.6,29.83L425.77,80.43H422.7l10.18-17.88h-7.51c-.09,0-10.37,17.88-10.37,17.88l11.17,17.68Z" style="fill:#fff"/><path d="M65.38,1891.22h-1v-7.68H61.67v-.88h6.42v.88H65.38Z" style="fill:#fff"/><path d="M73.63,1891.22v-4.15a1.64,1.64,0,0,0-.36-1.17,1.45,1.45,0,0,0-1.12-.39,1.82,1.82,0,0,0-1.48.55,2.79,2.79,0,0,0-.47,1.8v3.36h-1v-9.12h1v2.76a6.37,6.37,0,0,1,0,.83h.06A2,2,0,0,1,71,1885a2.66,2.66,0,0,1,1.21-.27,2.49,2.49,0,0,1,1.77.56,2.39,2.39,0,0,1,.59,1.78v4.19Z" style="fill:#fff"/><path d="M79.31,1891.34a3,3,0,0,1-2.25-.87,3.35,3.35,0,0,1-.82-2.41,3.71,3.71,0,0,1,.76-2.46,2.55,2.55,0,0,1,2.06-.92,2.43,2.43,0,0,1,1.91.8,3,3,0,0,1,.7,2.09v.62H77.25a2.54,2.54,0,0,0,.57,1.71,2,2,0,0,0,1.52.59,5.36,5.36,0,0,0,2.06-.43v.86a4.85,4.85,0,0,1-1,.32A5.13,5.13,0,0,1,79.31,1891.34Zm-.26-5.84a1.62,1.62,0,0,0-1.24.5,2.41,2.41,0,0,0-.54,1.4h3.36a2.14,2.14,0,0,0-.41-1.41A1.45,1.45,0,0,0,79.05,1885.5Z" style="fill:#fff"/><path d="M85.67,1894.1a2.38,2.38,0,0,1-.91-.14v-.79a2.8,2.8,0,0,0,.8.11.84.84,0,0,0,.67-.24,1.11,1.11,0,0,0,.22-.76v-7.48h1v7.41C87.42,1893.47,86.83,1894.1,85.67,1894.1Zm.69-11a.65.65,0,0,1,.17-.49.58.58,0,0,1,.41-.15.59.59,0,0,1,.4.15.79.79,0,0,1,0,1,.55.55,0,0,1-.4.16.54.54,0,0,1-.41-.16A.66.66,0,0,1,86.36,1883.06Z" style="fill:#fff"/><path d="M95,1888a3.54,3.54,0,0,1-.79,2.45,2.75,2.75,0,0,1-2.18.88,2.87,2.87,0,0,1-1.53-.41,2.54,2.54,0,0,1-1-1.16,4,4,0,0,1-.37-1.76,3.55,3.55,0,0,1,.79-2.45,2.75,2.75,0,0,1,2.18-.88,2.71,2.71,0,0,1,2.14.9A3.54,3.54,0,0,1,95,1888Zm-4.89,0a3.09,3.09,0,0,0,.49,1.87,2,2,0,0,0,2.9,0,3.75,3.75,0,0,0,0-3.74,1.75,1.75,0,0,0-1.46-.63,1.7,1.7,0,0,0-1.44.63A3,3,0,0,0,90.13,1888Z" style="fill:#fff"/><path d="M99.72,1884.69a2.37,2.37,0,0,1,2,.87,4.64,4.64,0,0,1,0,4.9,2.37,2.37,0,0,1-2,.88,2.88,2.88,0,0,1-1.15-.23,2.28,2.28,0,0,1-.87-.71h-.07l-.2.82h-.7v-9.12h1v2.22c0,.5,0,.94,0,1.34h0A2.31,2.31,0,0,1,99.72,1884.69Zm-.14.82a1.7,1.7,0,0,0-1.44.57,3.24,3.24,0,0,0-.44,1.93,3.21,3.21,0,0,0,.45,1.93,1.72,1.72,0,0,0,1.45.58,1.5,1.5,0,0,0,1.34-.65,3.37,3.37,0,0,0,.44-1.88,3.27,3.27,0,0,0-.44-1.87A1.57,1.57,0,0,0,99.58,1885.51Z" style="fill:#fff"/><path d="M108.23,1889.47a1.61,1.61,0,0,1-.67,1.38,3.11,3.11,0,0,1-1.88.49,4.07,4.07,0,0,1-2-.41v-.9a4.69,4.69,0,0,0,1,.37,4.24,4.24,0,0,0,1,.14,2.26,2.26,0,0,0,1.17-.25.83.83,0,0,0,.08-1.38,4.84,4.84,0,0,0-1.27-.63,7.27,7.27,0,0,1-1.27-.58,1.78,1.78,0,0,1-.56-.57,1.39,1.39,0,0,1-.19-.75,1.45,1.45,0,0,1,.64-1.24,2.93,2.93,0,0,1,1.75-.46,5.16,5.16,0,0,1,2,.42l-.34.8a4.61,4.61,0,0,0-1.76-.4,2,2,0,0,0-1,.21.69.69,0,0,0-.35.6.72.72,0,0,0,.13.44,1.33,1.33,0,0,0,.43.35,9.91,9.91,0,0,0,1.12.47,4.18,4.18,0,0,1,1.54.84A1.46,1.46,0,0,1,108.23,1889.47Z" style="fill:#fff"/><path d="M121.11,1891.22V1887a1.73,1.73,0,0,0-.33-1.15,1.29,1.29,0,0,0-1-.38,1.64,1.64,0,0,0-1.34.52,2.48,2.48,0,0,0-.43,1.61v3.58h-1V1887a1.73,1.73,0,0,0-.32-1.15,1.3,1.3,0,0,0-1-.38,1.59,1.59,0,0,0-1.34.55,3,3,0,0,0-.42,1.79v3.37h-1v-6.42h.8l.15.88h0a1.84,1.84,0,0,1,.78-.73,2.32,2.32,0,0,1,1.12-.27,1.92,1.92,0,0,1,2,1.09h0a2.07,2.07,0,0,1,.84-.79,2.5,2.5,0,0,1,1.24-.3,2.17,2.17,0,0,1,1.63.56,2.52,2.52,0,0,1,.54,1.79v4.19Z" style="fill:#fff"/><path d="M126.8,1891.34a3,3,0,0,1-2.25-.87,3.35,3.35,0,0,1-.82-2.41,3.71,3.71,0,0,1,.76-2.46,2.55,2.55,0,0,1,2.06-.92,2.43,2.43,0,0,1,1.91.8,3,3,0,0,1,.7,2.09v.62h-4.42a2.54,2.54,0,0,0,.57,1.71,2,2,0,0,0,1.52.59,5.36,5.36,0,0,0,2.06-.43v.86a4.85,4.85,0,0,1-1,.32A5.13,5.13,0,0,1,126.8,1891.34Zm-.26-5.84a1.62,1.62,0,0,0-1.24.5,2.41,2.41,0,0,0-.54,1.4h3.36a2.14,2.14,0,0,0-.41-1.41A1.45,1.45,0,0,0,126.54,1885.5Z" style="fill:#fff"/><path d="M135.21,1891.22v-4.15a1.69,1.69,0,0,0-.35-1.17,1.45,1.45,0,0,0-1.12-.39,1.86,1.86,0,0,0-1.48.54,2.79,2.79,0,0,0-.47,1.8v3.37h-1v-6.42h.79l.16.88h0a1.93,1.93,0,0,1,.83-.74,2.78,2.78,0,0,1,1.2-.26,2.45,2.45,0,0,1,1.75.56,2.4,2.4,0,0,1,.59,1.79v4.19Z" style="fill:#fff"/><path d="M140.26,1890.54a4,4,0,0,0,.5,0l.38-.08v.74a1.7,1.7,0,0,1-.47.13,3.86,3.86,0,0,1-.55,0c-1.24,0-1.87-.66-1.87-2v-3.82h-.92v-.47l.92-.41.42-1.37h.56v1.49h1.86v.76h-1.86v3.78a1.33,1.33,0,0,0,.27.89A1,1,0,0,0,140.26,1890.54Z" style="fill:#fff"/><path d="M142.34,1883.06a.64.64,0,0,1,.16-.49.59.59,0,0,1,.41-.15.61.61,0,0,1,.41.15.79.79,0,0,1,0,1,.57.57,0,0,1-.41.16.56.56,0,0,1-.41-.16A.66.66,0,0,1,142.34,1883.06Zm1,8.16h-1v-6.42h1Z" style="fill:#fff"/><path d="M151,1888a3.54,3.54,0,0,1-.79,2.45,2.79,2.79,0,0,1-2.19.88,2.92,2.92,0,0,1-1.53-.41,2.6,2.6,0,0,1-1-1.16,4,4,0,0,1-.36-1.76,3.55,3.55,0,0,1,.78-2.45,2.77,2.77,0,0,1,2.18-.88,2.73,2.73,0,0,1,2.15.9A3.59,3.59,0,0,1,151,1888Zm-4.89,0a3,3,0,0,0,.49,1.87,2,2,0,0,0,2.9,0,3.81,3.81,0,0,0,0-3.74,1.76,1.76,0,0,0-1.47-.63,1.72,1.72,0,0,0-1.44.63A3,3,0,0,0,146.11,1888Z" style="fill:#fff"/><path d="M157.1,1891.22v-4.15a1.64,1.64,0,0,0-.36-1.17,1.45,1.45,0,0,0-1.12-.39,1.84,1.84,0,0,0-1.47.54,2.73,2.73,0,0,0-.47,1.8v3.37h-1v-6.42h.8l.15.88h0a2,2,0,0,1,.84-.74,2.78,2.78,0,0,1,1.2-.26,2.48,2.48,0,0,1,1.75.56,2.39,2.39,0,0,1,.58,1.79v4.19Z" style="fill:#fff"/><path d="M162.78,1891.34a2.92,2.92,0,0,1-2.24-.87,3.36,3.36,0,0,1-.83-2.41,3.72,3.72,0,0,1,.77-2.46,2.53,2.53,0,0,1,2.05-.92,2.43,2.43,0,0,1,1.91.8,3,3,0,0,1,.7,2.09v.62h-4.42a2.54,2.54,0,0,0,.57,1.71,2,2,0,0,0,1.53.59,5.35,5.35,0,0,0,2.05-.43v.86a4.85,4.85,0,0,1-1,.32A5,5,0,0,1,162.78,1891.34Zm-.26-5.84a1.58,1.58,0,0,0-1.23.5,2.35,2.35,0,0,0-.55,1.4h3.36a2.14,2.14,0,0,0-.41-1.41A1.42,1.42,0,0,0,162.52,1885.5Z" style="fill:#fff"/><path d="M171.17,1890.36h0a2.29,2.29,0,0,1-2,1,2.4,2.4,0,0,1-2-.86,4.64,4.64,0,0,1,0-4.92,2.38,2.38,0,0,1,1.95-.88,2.35,2.35,0,0,1,2,1h.07l0-.46,0-.45v-2.62h1v9.12h-.79Zm-1.94.16a1.77,1.77,0,0,0,1.44-.54,2.72,2.72,0,0,0,.45-1.75v-.2a3.25,3.25,0,0,0-.45-2,1.73,1.73,0,0,0-1.45-.58,1.49,1.49,0,0,0-1.31.66,3.27,3.27,0,0,0-.46,1.88,3.19,3.19,0,0,0,.45,1.86A1.53,1.53,0,0,0,169.23,1890.52Z" style="fill:#fff"/><path d="M181.22,1891.22l-.19-.91H181a2.81,2.81,0,0,1-1,.82,2.92,2.92,0,0,1-1.19.21,2.2,2.2,0,0,1-1.5-.49,1.81,1.81,0,0,1-.54-1.4c0-1.3,1-2,3.11-2l1.09,0v-.4a1.65,1.65,0,0,0-.32-1.11,1.35,1.35,0,0,0-1-.36,4.22,4.22,0,0,0-1.82.49l-.3-.74a4.65,4.65,0,0,1,2.18-.56,2.45,2.45,0,0,1,1.7.51,2.14,2.14,0,0,1,.55,1.64v4.38Zm-2.2-.68a2,2,0,0,0,1.43-.5,1.83,1.83,0,0,0,.52-1.4v-.58l-1,0a3.65,3.65,0,0,0-1.68.36,1.11,1.11,0,0,0-.51,1,1,1,0,0,0,.32.8A1.34,1.34,0,0,0,179,1890.54Z" style="fill:#fff"/><path d="M186.88,1884.68a4.28,4.28,0,0,1,.76.07l-.13.91a3.27,3.27,0,0,0-.7-.09,1.73,1.73,0,0,0-1.34.63,2.31,2.31,0,0,0-.55,1.58v3.44h-1v-6.42h.8l.11,1.19h0a2.82,2.82,0,0,1,.86-1A2,2,0,0,1,186.88,1884.68Z" style="fill:#fff"/><path d="M191.56,1891.34a3,3,0,0,1-2.25-.87,3.35,3.35,0,0,1-.82-2.41,3.71,3.71,0,0,1,.76-2.46,2.55,2.55,0,0,1,2.06-.92,2.43,2.43,0,0,1,1.91.8,3.07,3.07,0,0,1,.7,2.09v.62H189.5a2.49,2.49,0,0,0,.57,1.71,2,2,0,0,0,1.52.59,5.31,5.31,0,0,0,2-.43v.86a4.77,4.77,0,0,1-1,.32A5.13,5.13,0,0,1,191.56,1891.34Zm-.27-5.84a1.61,1.61,0,0,0-1.23.5,2.28,2.28,0,0,0-.54,1.4h3.36a2.14,2.14,0,0,0-.41-1.41A1.46,1.46,0,0,0,191.29,1885.5Z" style="fill:#fff"/><path d="M201.59,1885.56H200v5.66h-1v-5.66h-1.15v-.44l1.15-.36v-.35q0-2.37,2.07-2.37a4.21,4.21,0,0,1,1.2.21l-.26.77a3.19,3.19,0,0,0-1-.18.92.92,0,0,0-.81.37,2,2,0,0,0-.27,1.17v.42h1.64Z" style="fill:#fff"/><path d="M208.3,1888a3.54,3.54,0,0,1-.79,2.45,2.75,2.75,0,0,1-2.18.88,2.87,2.87,0,0,1-1.53-.41,2.54,2.54,0,0,1-1-1.16,3.9,3.9,0,0,1-.37-1.76,3.55,3.55,0,0,1,.79-2.45,2.75,2.75,0,0,1,2.18-.88,2.71,2.71,0,0,1,2.14.9A3.54,3.54,0,0,1,208.3,1888Zm-4.89,0a3.09,3.09,0,0,0,.49,1.87,2,2,0,0,0,2.9,0,3.75,3.75,0,0,0,0-3.74,1.75,1.75,0,0,0-1.46-.63,1.7,1.7,0,0,0-1.44.63A3,3,0,0,0,203.41,1888Z" style="fill:#fff"/><path d="M212.94,1884.68a4.49,4.49,0,0,1,.77.07l-.14.91a3.2,3.2,0,0,0-.7-.09,1.69,1.69,0,0,0-1.33.63,2.31,2.31,0,0,0-.56,1.58v3.44h-1v-6.42h.8l.11,1.19H211a2.93,2.93,0,0,1,.86-1A2,2,0,0,1,212.94,1884.68Z" style="fill:#fff"/><path d="M217.94,1883.06a.65.65,0,0,1,.17-.49.58.58,0,0,1,.41-.15.59.59,0,0,1,.4.15.79.79,0,0,1,0,1,.55.55,0,0,1-.4.16.54.54,0,0,1-.41-.16A.66.66,0,0,1,217.94,1883.06Zm1.06,8.16h-1v-6.42h1Z" style="fill:#fff"/><path d="M222,1891.22h-1v-9.12h1Z" style="fill:#fff"/><path d="M225.07,1891.22h-1v-9.12h1Z" style="fill:#fff"/><path d="M228,1884.8V1889a1.67,1.67,0,0,0,.36,1.17,1.45,1.45,0,0,0,1.12.38A1.81,1.81,0,0,0,231,1890a2.76,2.76,0,0,0,.47-1.8v-3.37h1v6.42h-.8l-.14-.86h-.05a2,2,0,0,1-.83.73,2.79,2.79,0,0,1-1.21.25,2.48,2.48,0,0,1-1.76-.56,2.35,2.35,0,0,1-.58-1.78v-4.2Z" style="fill:#fff"/><path d="M238.64,1889.47a1.59,1.59,0,0,1-.67,1.38,3.11,3.11,0,0,1-1.88.49,4.07,4.07,0,0,1-2-.41v-.9a4.58,4.58,0,0,0,1,.37,4.1,4.1,0,0,0,1,.14,2.21,2.21,0,0,0,1.17-.25.81.81,0,0,0,.41-.74.82.82,0,0,0-.32-.64,5,5,0,0,0-1.27-.63,7.1,7.1,0,0,1-1.28-.58,1.78,1.78,0,0,1-.56-.57,1.49,1.49,0,0,1-.19-.75,1.45,1.45,0,0,1,.64-1.24,2.94,2.94,0,0,1,1.76-.46,5.12,5.12,0,0,1,2,.42l-.34.8a4.6,4.6,0,0,0-1.75-.4,2.09,2.09,0,0,0-1,.21.69.69,0,0,0-.35.6.72.72,0,0,0,.13.44,1.33,1.33,0,0,0,.43.35,9.91,9.91,0,0,0,1.12.47,4.34,4.34,0,0,1,1.55.84A1.5,1.5,0,0,1,238.64,1889.47Z" style="fill:#fff"/><path d="M242.29,1890.54a3.9,3.9,0,0,0,.5,0,3.43,3.43,0,0,0,.38-.08v.74a1.62,1.62,0,0,1-.46.13,4,4,0,0,1-.56,0c-1.24,0-1.86-.66-1.86-2v-3.82h-.92v-.47l.92-.41.41-1.37h.56v1.49h1.87v.76h-1.87v3.78a1.28,1.28,0,0,0,.28.89A1,1,0,0,0,242.29,1890.54Z" style="fill:#fff"/><path d="M247.39,1884.68a4.28,4.28,0,0,1,.76.07l-.13.91a3.27,3.27,0,0,0-.7-.09,1.73,1.73,0,0,0-1.34.63,2.31,2.31,0,0,0-.55,1.58v3.44h-1v-6.42h.8l.11,1.19h0a2.82,2.82,0,0,1,.86-1A2,2,0,0,1,247.39,1884.68Z" style="fill:#fff"/><path d="M253.3,1891.22l-.19-.91h-.05a2.88,2.88,0,0,1-.95.82,3,3,0,0,1-1.2.21,2.17,2.17,0,0,1-1.49-.49,1.78,1.78,0,0,1-.55-1.4q0-2,3.12-2l1.09,0v-.4a1.6,1.6,0,0,0-.33-1.11,1.34,1.34,0,0,0-1-.36,4.22,4.22,0,0,0-1.82.49l-.3-.74a4.65,4.65,0,0,1,2.18-.56,2.45,2.45,0,0,1,1.7.51,2.14,2.14,0,0,1,.55,1.64v4.38Zm-2.19-.68a2,2,0,0,0,1.42-.5,1.83,1.83,0,0,0,.52-1.4v-.58l-1,0a3.6,3.6,0,0,0-1.67.36,1.09,1.09,0,0,0-.52,1,1,1,0,0,0,.32.8A1.36,1.36,0,0,0,251.11,1890.54Z" style="fill:#fff"/><path d="M258.1,1890.54a4,4,0,0,0,.5,0,3.43,3.43,0,0,0,.38-.08v.74a1.62,1.62,0,0,1-.46.13,4,4,0,0,1-.56,0c-1.24,0-1.86-.66-1.86-2v-3.82h-.92v-.47l.92-.41.41-1.37h.56v1.49h1.86v.76h-1.86v3.78a1.28,1.28,0,0,0,.28.89A1,1,0,0,0,258.1,1890.54Z" style="fill:#fff"/><path d="M260.18,1883.06a.65.65,0,0,1,.17-.49.58.58,0,0,1,.41-.15.59.59,0,0,1,.4.15.79.79,0,0,1,0,1,.55.55,0,0,1-.4.16.54.54,0,0,1-.41-.16A.66.66,0,0,1,260.18,1883.06Zm1.06,8.16h-1v-6.42h1Z" style="fill:#fff"/><path d="M268.84,1888a3.54,3.54,0,0,1-.79,2.45,2.77,2.77,0,0,1-2.18.88,2.87,2.87,0,0,1-1.53-.41,2.54,2.54,0,0,1-1-1.16,3.9,3.9,0,0,1-.37-1.76,3.51,3.51,0,0,1,.79-2.45,2.75,2.75,0,0,1,2.18-.88,2.71,2.71,0,0,1,2.14.9A3.54,3.54,0,0,1,268.84,1888Zm-4.89,0a3,3,0,0,0,.49,1.87,2,2,0,0,0,2.9,0,3.81,3.81,0,0,0,0-3.74,1.75,1.75,0,0,0-1.46-.63,1.7,1.7,0,0,0-1.44.63A3,3,0,0,0,264,1888Z" style="fill:#fff"/><path d="M274.94,1891.22v-4.15a1.64,1.64,0,0,0-.36-1.17,1.43,1.43,0,0,0-1.11-.39,1.85,1.85,0,0,0-1.48.54,2.79,2.79,0,0,0-.47,1.8v3.37h-1v-6.42h.79l.16.88h0a2,2,0,0,1,.84-.74,2.78,2.78,0,0,1,1.2-.26,2.45,2.45,0,0,1,1.75.56,2.4,2.4,0,0,1,.59,1.79v4.19Z" style="fill:#fff"/><path d="M284,1891.34a2.88,2.88,0,0,1-1.15-.23,2.28,2.28,0,0,1-.87-.71h-.07a8,8,0,0,1,.07,1.06v2.64h-1v-9.3h.79l.14.88h0a2.18,2.18,0,0,1,.88-.76,2.58,2.58,0,0,1,1.14-.24,2.35,2.35,0,0,1,2,.88,3.84,3.84,0,0,1,.69,2.45,3.8,3.8,0,0,1-.7,2.45A2.37,2.37,0,0,1,284,1891.34Zm-.14-5.83a1.75,1.75,0,0,0-1.43.54,2.88,2.88,0,0,0-.45,1.74v.22a3.21,3.21,0,0,0,.45,1.93,1.72,1.72,0,0,0,1.45.58,1.51,1.51,0,0,0,1.31-.67,3.24,3.24,0,0,0,.47-1.86,3.1,3.1,0,0,0-.47-1.84A1.56,1.56,0,0,0,283.88,1885.51Z" style="fill:#fff"/><path d="M289.3,1884.8V1889a1.67,1.67,0,0,0,.36,1.17,1.42,1.42,0,0,0,1.11.38,1.82,1.82,0,0,0,1.48-.55,2.76,2.76,0,0,0,.46-1.8v-3.37h1v6.42h-.81l-.14-.86h-.05a2,2,0,0,1-.83.73,2.76,2.76,0,0,1-1.21.25,2.45,2.45,0,0,1-1.75-.56,2.36,2.36,0,0,1-.59-1.78v-4.2Z" style="fill:#fff"/><path d="M298.68,1884.68a4.49,4.49,0,0,1,.77.07l-.14.91a3.2,3.2,0,0,0-.7-.09,1.69,1.69,0,0,0-1.33.63,2.31,2.31,0,0,0-.56,1.58v3.44h-1v-6.42h.8l.11,1.19h0a2.93,2.93,0,0,1,.86-1A2,2,0,0,1,298.68,1884.68Z" style="fill:#fff"/><path d="M303.64,1891.34a2.88,2.88,0,0,1-1.15-.23,2.14,2.14,0,0,1-.87-.71h-.07a8,8,0,0,1,.07,1.06v2.64h-1v-9.3h.79l.13.88h.05a2.22,2.22,0,0,1,.87-.76,2.66,2.66,0,0,1,1.15-.24,2.36,2.36,0,0,1,2,.88,3.84,3.84,0,0,1,.69,2.45,3.8,3.8,0,0,1-.7,2.45A2.38,2.38,0,0,1,303.64,1891.34Zm-.14-5.83a1.74,1.74,0,0,0-1.43.54,2.88,2.88,0,0,0-.45,1.74v.22a3.21,3.21,0,0,0,.45,1.93,1.71,1.71,0,0,0,1.45.58,1.49,1.49,0,0,0,1.3-.67,3.16,3.16,0,0,0,.47-1.86,3,3,0,0,0-.47-1.84A1.53,1.53,0,0,0,303.5,1885.51Z" style="fill:#fff"/><path d="M313.54,1888a3.54,3.54,0,0,1-.79,2.45,2.75,2.75,0,0,1-2.18.88,2.87,2.87,0,0,1-1.53-.41,2.54,2.54,0,0,1-1-1.16,3.9,3.9,0,0,1-.37-1.76,3.55,3.55,0,0,1,.79-2.45,2.75,2.75,0,0,1,2.18-.88,2.71,2.71,0,0,1,2.14.9A3.54,3.54,0,0,1,313.54,1888Zm-4.89,0a3.09,3.09,0,0,0,.49,1.87,2,2,0,0,0,2.9,0,3.75,3.75,0,0,0,0-3.74,1.75,1.75,0,0,0-1.46-.63,1.7,1.7,0,0,0-1.44.63A3,3,0,0,0,308.65,1888Z" style="fill:#fff"/><path d="M319.39,1889.47a1.59,1.59,0,0,1-.67,1.38,3.08,3.08,0,0,1-1.87.49,4,4,0,0,1-2-.41v-.9a4.69,4.69,0,0,0,1,.37,4.1,4.1,0,0,0,1,.14,2.21,2.21,0,0,0,1.17-.25.84.84,0,0,0,.09-1.38,5,5,0,0,0-1.27-.63,6.93,6.93,0,0,1-1.27-.58,1.82,1.82,0,0,1-.57-.57,1.49,1.49,0,0,1-.18-.75,1.42,1.42,0,0,1,.64-1.24,2.91,2.91,0,0,1,1.75-.46,5.16,5.16,0,0,1,2,.42l-.35.8a4.56,4.56,0,0,0-1.75-.4,2,2,0,0,0-1,.21.68.68,0,0,0-.36.6.72.72,0,0,0,.14.44,1.28,1.28,0,0,0,.42.35,10.32,10.32,0,0,0,1.13.47,4.27,4.27,0,0,1,1.54.84A1.46,1.46,0,0,1,319.39,1889.47Z" style="fill:#fff"/><path d="M323.69,1891.34a3,3,0,0,1-2.25-.87,3.35,3.35,0,0,1-.82-2.41,3.71,3.71,0,0,1,.76-2.46,2.55,2.55,0,0,1,2.05-.92,2.4,2.4,0,0,1,1.91.8,3,3,0,0,1,.71,2.09v.62h-4.43a2.49,2.49,0,0,0,.58,1.71,2,2,0,0,0,1.52.59,5.31,5.31,0,0,0,2-.43v.86a4.77,4.77,0,0,1-1,.32A5.13,5.13,0,0,1,323.69,1891.34Zm-.27-5.84a1.61,1.61,0,0,0-1.23.5,2.28,2.28,0,0,0-.54,1.4H325a2.08,2.08,0,0,0-.41-1.41A1.42,1.42,0,0,0,323.42,1885.5Z" style="fill:#fff"/><path d="M331.85,1889.47a1.59,1.59,0,0,1-.67,1.38,3.08,3.08,0,0,1-1.87.49,4.09,4.09,0,0,1-2-.41v-.9a4.58,4.58,0,0,0,1,.37,4.1,4.1,0,0,0,1,.14,2.21,2.21,0,0,0,1.17-.25.81.81,0,0,0,.41-.74.82.82,0,0,0-.32-.64,5,5,0,0,0-1.27-.63,7.1,7.1,0,0,1-1.28-.58,1.78,1.78,0,0,1-.56-.57,1.49,1.49,0,0,1-.18-.75,1.44,1.44,0,0,1,.63-1.24,2.94,2.94,0,0,1,1.76-.46,5.12,5.12,0,0,1,2,.42l-.34.8a4.6,4.6,0,0,0-1.75-.4,2.12,2.12,0,0,0-1.05.21.69.69,0,0,0-.35.6.79.79,0,0,0,.13.44,1.33,1.33,0,0,0,.43.35,9.91,9.91,0,0,0,1.12.47,4.24,4.24,0,0,1,1.55.84A1.5,1.5,0,0,1,331.85,1889.47Z" style="fill:#fff"/><path d="M342.09,1888a3.54,3.54,0,0,1-.79,2.45,2.79,2.79,0,0,1-2.19.88,2.92,2.92,0,0,1-1.53-.41,2.66,2.66,0,0,1-1-1.16,4,4,0,0,1-.36-1.76,3.51,3.51,0,0,1,.79-2.45,2.75,2.75,0,0,1,2.18-.88,2.72,2.72,0,0,1,2.14.9A3.54,3.54,0,0,1,342.09,1888Zm-4.89,0a3,3,0,0,0,.49,1.87,2,2,0,0,0,2.9,0,3.81,3.81,0,0,0,0-3.74,1.75,1.75,0,0,0-1.46-.63,1.73,1.73,0,0,0-1.45.63A3,3,0,0,0,337.2,1888Z" style="fill:#fff"/><path d="M348.19,1891.22v-4.15a1.64,1.64,0,0,0-.36-1.17,1.45,1.45,0,0,0-1.12-.39,1.84,1.84,0,0,0-1.47.54,2.73,2.73,0,0,0-.47,1.8v3.37h-1v-6.42h.79l.16.88h0a2,2,0,0,1,.84-.74,2.78,2.78,0,0,1,1.2-.26,2.47,2.47,0,0,1,1.75.56,2.39,2.39,0,0,1,.58,1.79v4.19Z" style="fill:#fff"/><path d="M352.13,1891.22h-1v-9.12h1Z" style="fill:#fff"/><path d="M353.18,1884.8h1l1.41,3.66a14.72,14.72,0,0,1,.57,1.81h.05c.05-.2.15-.54.32-1s.69-2,1.59-4.45h1l-2.76,7.31a3.52,3.52,0,0,1-1,1.54,2,2,0,0,1-1.34.45,4.31,4.31,0,0,1-.88-.09v-.78a3.82,3.82,0,0,0,.72.07,1.49,1.49,0,0,0,1.43-1.13l.36-.91Z" style="fill:#fff"/><path d="M360.1,1890.6a.85.85,0,0,1,.18-.59.64.64,0,0,1,.51-.21.66.66,0,0,1,.53.21.81.81,0,0,1,.19.59.84.84,0,0,1-.19.59.71.71,0,0,1-.53.2.69.69,0,0,1-.49-.18A.83.83,0,0,1,360.1,1890.6Z" style="fill:#fff"/><path d="M68.61,1868.6H67.44l-3.13-4.15-.89.79v3.36h-1V1860h1v4.25L67.3,1860h1.18L65,1863.76Z" style="fill:#fff"/><path d="M73.59,1868.6l-.19-.91h-.05a2.66,2.66,0,0,1-1,.81,2.78,2.78,0,0,1-1.19.22,2.18,2.18,0,0,1-1.5-.49,1.81,1.81,0,0,1-.54-1.4c0-1.3,1-2,3.11-2l1.09,0v-.4a1.65,1.65,0,0,0-.32-1.11,1.35,1.35,0,0,0-1-.36,4.22,4.22,0,0,0-1.82.49l-.3-.75a4.78,4.78,0,0,1,1-.4,4.45,4.45,0,0,1,1.13-.15,2.46,2.46,0,0,1,1.71.51,2.14,2.14,0,0,1,.55,1.64v4.38Zm-2.2-.68a2,2,0,0,0,1.43-.5,1.83,1.83,0,0,0,.52-1.4v-.58l-1,0a3.61,3.61,0,0,0-1.68.36,1.11,1.11,0,0,0-.51,1,1,1,0,0,0,.32.8A1.34,1.34,0,0,0,71.39,1867.92Z" style="fill:#fff"/><path d="M79.3,1868.72a2.8,2.8,0,0,1-1.14-.23,2.14,2.14,0,0,1-.87-.71h-.07a10.09,10.09,0,0,1,.07,1.06v2.64h-1v-9.3h.8l.13.88h.05a2.22,2.22,0,0,1,.87-.76,2.58,2.58,0,0,1,1.14-.24,2.35,2.35,0,0,1,2,.88,3.77,3.77,0,0,1,.7,2.44,3.81,3.81,0,0,1-.71,2.46A2.36,2.36,0,0,1,79.3,1868.72Zm-.14-5.83a1.73,1.73,0,0,0-1.42.54,2.79,2.79,0,0,0-.45,1.74v.21a3.22,3.22,0,0,0,.45,1.94,1.71,1.71,0,0,0,1.45.58,1.51,1.51,0,0,0,1.3-.67,3.24,3.24,0,0,0,.47-1.86,3.1,3.1,0,0,0-.47-1.84A1.56,1.56,0,0,0,79.16,1862.89Z" style="fill:#fff"/><path d="M84.64,1868.6h-1v-9.12h1Z" style="fill:#fff"/><path d="M90.65,1868.6l-.19-.91h0a2.66,2.66,0,0,1-1,.81,2.75,2.75,0,0,1-1.19.22,2.2,2.2,0,0,1-1.5-.49,1.81,1.81,0,0,1-.54-1.4c0-1.3,1-2,3.11-2l1.09,0v-.4a1.6,1.6,0,0,0-.32-1.11,1.34,1.34,0,0,0-1-.36,4.22,4.22,0,0,0-1.82.49l-.3-.75a5,5,0,0,1,1-.4,4.46,4.46,0,0,1,1.14-.15,2.45,2.45,0,0,1,1.7.51,2.14,2.14,0,0,1,.55,1.64v4.38Zm-2.19-.68a2,2,0,0,0,1.42-.5,1.83,1.83,0,0,0,.52-1.4v-.58l-1,0a3.65,3.65,0,0,0-1.68.36,1.11,1.11,0,0,0-.51,1,1,1,0,0,0,.32.8A1.35,1.35,0,0,0,88.46,1867.92Z" style="fill:#fff"/><path d="M97.77,1868.6v-4.15a1.64,1.64,0,0,0-.36-1.17,1.44,1.44,0,0,0-1.12-.39,1.84,1.84,0,0,0-1.47.54,2.79,2.79,0,0,0-.47,1.8v3.37h-1v-6.42h.79l.16.88h0a2,2,0,0,1,.84-.74,2.78,2.78,0,0,1,1.2-.26,2.45,2.45,0,0,1,1.75.56,2.38,2.38,0,0,1,.58,1.79v4.19Z" style="fill:#fff"/><path d="M110.51,1868.6h-1v-4H105v4h-1V1860h1v3.65h4.51V1860h1Z" style="fill:#fff"/><path d="M112.63,1860.44a.69.69,0,0,1,.16-.49.61.61,0,0,1,.42-.16.59.59,0,0,1,.4.16.79.79,0,0,1,0,1,.55.55,0,0,1-.4.16.57.57,0,0,1-.42-.16A.7.7,0,0,1,112.63,1860.44Zm1.06,8.16h-1v-6.42h1Z" style="fill:#fff"/><path d="M121,1862.18v.61l-1.19.15a2,2,0,0,1,.3.53,2.18,2.18,0,0,1,.13.75,1.88,1.88,0,0,1-.65,1.5,2.58,2.58,0,0,1-1.77.57,3.1,3.1,0,0,1-.54,0,1,1,0,0,0-.62.83.43.43,0,0,0,.22.39,1.62,1.62,0,0,0,.74.12h1.14a2.54,2.54,0,0,1,1.6.44,1.51,1.51,0,0,1,.56,1.28,1.81,1.81,0,0,1-.85,1.62,4.54,4.54,0,0,1-2.5.56,3.41,3.41,0,0,1-1.94-.46,1.52,1.52,0,0,1-.68-1.33,1.47,1.47,0,0,1,.37-1,1.86,1.86,0,0,1,1.06-.58,1,1,0,0,1-.42-.35.91.91,0,0,1-.17-.54,1.08,1.08,0,0,1,.19-.62,2.21,2.21,0,0,1,.59-.51,1.76,1.76,0,0,1-.81-.7,2,2,0,0,1-.31-1.12,2.1,2.1,0,0,1,.63-1.63,2.59,2.59,0,0,1,1.8-.57,3.16,3.16,0,0,1,.9.12Zm-5.12,7.5a.87.87,0,0,0,.44.79,2.46,2.46,0,0,0,1.26.27,3.49,3.49,0,0,0,1.82-.37,1.11,1.11,0,0,0,.58-1,.76.76,0,0,0-.32-.72,2.41,2.41,0,0,0-1.21-.21h-1.17a1.55,1.55,0,0,0-1,.32A1.15,1.15,0,0,0,115.88,1869.68Zm.53-5.44a1.32,1.32,0,0,0,.38,1,1.52,1.52,0,0,0,1.06.34,1.24,1.24,0,0,0,1.43-1.38,1.28,1.28,0,0,0-1.45-1.45,1.42,1.42,0,0,0-1,.37A1.48,1.48,0,0,0,116.41,1864.24Z" style="fill:#fff"/><path d="M126.72,1868.6v-4.15a1.64,1.64,0,0,0-.36-1.17,1.45,1.45,0,0,0-1.12-.39,1.82,1.82,0,0,0-1.48.55,2.79,2.79,0,0,0-.47,1.8v3.36h-1v-9.12h1v2.76a6.37,6.37,0,0,1,0,.83h.06a2,2,0,0,1,.81-.73,2.66,2.66,0,0,1,1.21-.27,2.49,2.49,0,0,1,1.77.56,2.39,2.39,0,0,1,.59,1.78v4.19Z" style="fill:#fff"/><path d="M132.4,1868.72a3,3,0,0,1-2.25-.87,3.35,3.35,0,0,1-.82-2.41,3.71,3.71,0,0,1,.76-2.46,2.55,2.55,0,0,1,2.06-.92,2.43,2.43,0,0,1,1.91.8,3,3,0,0,1,.7,2.09v.62h-4.42a2.54,2.54,0,0,0,.57,1.71,2,2,0,0,0,1.53.59,5.35,5.35,0,0,0,2.05-.43v.86a4.85,4.85,0,0,1-1,.32A5.13,5.13,0,0,1,132.4,1868.72Zm-.26-5.84a1.58,1.58,0,0,0-1.24.5,2.41,2.41,0,0,0-.54,1.4h3.36a2.14,2.14,0,0,0-.41-1.41A1.43,1.43,0,0,0,132.14,1862.88Z" style="fill:#fff"/><path d="M139.35,1862.06a4.49,4.49,0,0,1,.77.07l-.14.9a3.85,3.85,0,0,0-.7-.08,1.71,1.71,0,0,0-1.33.63,2.31,2.31,0,0,0-.56,1.58v3.44h-1v-6.42h.8l.11,1.19h0a2.93,2.93,0,0,1,.86-1A2,2,0,0,1,139.35,1862.06Z" style="fill:#fff"/><path d="M149.36,1868.6h-4.78V1860h4.78v.89h-3.78v2.76h3.55v.88h-3.55v3.15h3.78Z" style="fill:#fff"/><path d="M155.48,1867.74h0a2.29,2.29,0,0,1-2,1,2.4,2.4,0,0,1-2-.86,4.64,4.64,0,0,1,0-4.92,2.6,2.6,0,0,1,4,.07h.07l0-.46,0-.45v-2.62h1v9.12h-.79Zm-1.94.16a1.77,1.77,0,0,0,1.44-.54,2.72,2.72,0,0,0,.45-1.75v-.2a3.18,3.18,0,0,0-.46-2,1.71,1.71,0,0,0-1.45-.58,1.5,1.5,0,0,0-1.31.66,3.33,3.33,0,0,0-.45,1.88,3.19,3.19,0,0,0,.45,1.86A1.54,1.54,0,0,0,153.54,1867.9Z" style="fill:#fff"/><path d="M159.38,1862.18v4.17a1.72,1.72,0,0,0,.35,1.17,1.46,1.46,0,0,0,1.12.38,1.82,1.82,0,0,0,1.48-.55,2.76,2.76,0,0,0,.46-1.8v-3.37h1v6.42H163l-.14-.86h0a2,2,0,0,1-.83.73,2.9,2.9,0,0,1-1.21.25,2.44,2.44,0,0,1-1.75-.56,2.36,2.36,0,0,1-.59-1.78v-4.2Z" style="fill:#fff"/><path d="M168.39,1868.72a2.73,2.73,0,0,1-2.15-.86,3.52,3.52,0,0,1-.77-2.43,3.64,3.64,0,0,1,.78-2.49,2.8,2.8,0,0,1,2.21-.88,4.71,4.71,0,0,1,.92.1,3.1,3.1,0,0,1,.73.24l-.3.82a5.81,5.81,0,0,0-.7-.21,3,3,0,0,0-.67-.09c-1.31,0-2,.84-2,2.5a3,3,0,0,0,.48,1.82,1.65,1.65,0,0,0,1.41.63,4.33,4.33,0,0,0,1.65-.35v.86A3.43,3.43,0,0,1,168.39,1868.72Z" style="fill:#fff"/><path d="M175.49,1868.6l-.19-.91h-.05a2.66,2.66,0,0,1-1,.81,2.78,2.78,0,0,1-1.19.22,2.18,2.18,0,0,1-1.5-.49,1.81,1.81,0,0,1-.54-1.4c0-1.3,1-2,3.11-2l1.09,0v-.4a1.65,1.65,0,0,0-.32-1.11,1.35,1.35,0,0,0-1-.36,4.22,4.22,0,0,0-1.82.49l-.3-.75a4.78,4.78,0,0,1,1-.4,4.46,4.46,0,0,1,1.14-.15,2.45,2.45,0,0,1,1.7.51,2.14,2.14,0,0,1,.55,1.64v4.38Zm-2.2-.68a2,2,0,0,0,1.43-.5,1.83,1.83,0,0,0,.52-1.4v-.58l-1,0a3.61,3.61,0,0,0-1.68.36,1.11,1.11,0,0,0-.51,1,1,1,0,0,0,.32.8A1.34,1.34,0,0,0,173.29,1867.92Z" style="fill:#fff"/><path d="M180.29,1867.92a4,4,0,0,0,.5,0l.38-.08v.74a1.7,1.7,0,0,1-.47.13,3.86,3.86,0,0,1-.55,0c-1.24,0-1.86-.66-1.86-2v-3.82h-.92v-.47l.92-.41.41-1.37h.56v1.49h1.86v.76h-1.86v3.77a1.34,1.34,0,0,0,.27.9A1,1,0,0,0,180.29,1867.92Z" style="fill:#fff"/><path d="M182.37,1860.44a.64.64,0,0,1,.16-.49.6.6,0,0,1,.41-.16.62.62,0,0,1,.41.16.79.79,0,0,1,0,1,.57.57,0,0,1-.41.16.56.56,0,0,1-.41-.16A.66.66,0,0,1,182.37,1860.44Zm1,8.16h-1v-6.42h1Z" style="fill:#fff"/><path d="M191,1865.38a3.55,3.55,0,0,1-.79,2.46,2.82,2.82,0,0,1-2.19.88,2.92,2.92,0,0,1-1.53-.41,2.65,2.65,0,0,1-1-1.16,4.05,4.05,0,0,1-.36-1.77,3.54,3.54,0,0,1,.78-2.44,2.77,2.77,0,0,1,2.18-.88,2.73,2.73,0,0,1,2.15.9A3.56,3.56,0,0,1,191,1865.38Zm-4.89,0a3.05,3.05,0,0,0,.49,1.88,2,2,0,0,0,2.9,0,3.81,3.81,0,0,0,0-3.74,1.76,1.76,0,0,0-1.47-.63,1.72,1.72,0,0,0-1.44.63A3,3,0,0,0,186.14,1865.38Z" style="fill:#fff"/><path d="M197.13,1868.6v-4.15a1.64,1.64,0,0,0-.36-1.17,1.45,1.45,0,0,0-1.12-.39,1.84,1.84,0,0,0-1.47.54,2.73,2.73,0,0,0-.47,1.8v3.37h-1v-6.42h.8l.15.88h0a2,2,0,0,1,.84-.74,2.78,2.78,0,0,1,1.2-.26,2.48,2.48,0,0,1,1.75.56,2.38,2.38,0,0,1,.58,1.79v4.19Z" style="fill:#fff"/><path d="M208.75,1868.6l-1.07-2.72h-3.43l-1.06,2.72h-1l3.38-8.6h.84l3.37,8.6Zm-1.38-3.62-1-2.65a12.21,12.21,0,0,1-.4-1.24,12.6,12.6,0,0,1-.37,1.24l-1,2.65Z" style="fill:#fff"/><path d="M213.38,1868.72a2.75,2.75,0,0,1-2.16-.86,3.52,3.52,0,0,1-.77-2.43,3.64,3.64,0,0,1,.78-2.49,2.81,2.81,0,0,1,2.21-.88,4.9,4.9,0,0,1,.93.1,3,3,0,0,1,.72.24l-.3.82a5.31,5.31,0,0,0-.7-.21,3,3,0,0,0-.67-.09c-1.31,0-2,.84-2,2.5a3,3,0,0,0,.48,1.82,1.66,1.66,0,0,0,1.41.63,4.33,4.33,0,0,0,1.65-.35v.86A3.41,3.41,0,0,1,213.38,1868.72Z" style="fill:#fff"/><path d="M220.47,1868.6l-.19-.91h-.05a2.66,2.66,0,0,1-1,.81,2.75,2.75,0,0,1-1.19.22,2.22,2.22,0,0,1-1.5-.49,1.81,1.81,0,0,1-.54-1.4c0-1.3,1-2,3.11-2l1.09,0v-.4a1.6,1.6,0,0,0-.32-1.11,1.34,1.34,0,0,0-1-.36,4.22,4.22,0,0,0-1.82.49l-.3-.75a5,5,0,0,1,1-.4,4.46,4.46,0,0,1,1.14-.15,2.45,2.45,0,0,1,1.7.51,2.14,2.14,0,0,1,.55,1.64v4.38Zm-2.19-.68a2,2,0,0,0,1.42-.5,1.83,1.83,0,0,0,.52-1.4v-.58l-1,0a3.57,3.57,0,0,0-1.67.36,1.09,1.09,0,0,0-.52,1,1,1,0,0,0,.32.8A1.35,1.35,0,0,0,218.28,1867.92Z" style="fill:#fff"/><path d="M227.57,1867.74h0a2.31,2.31,0,0,1-2,1,2.4,2.4,0,0,1-2-.86,3.78,3.78,0,0,1-.7-2.45,3.86,3.86,0,0,1,.7-2.47,2.39,2.39,0,0,1,2-.88,2.33,2.33,0,0,1,2,1h.08l0-.46,0-.45v-2.62h1v9.12h-.79Zm-1.95.16a1.78,1.78,0,0,0,1.45-.54,2.72,2.72,0,0,0,.45-1.75v-.2a3.25,3.25,0,0,0-.46-2,1.71,1.71,0,0,0-1.45-.58,1.49,1.49,0,0,0-1.31.66,3.33,3.33,0,0,0-.45,1.88,3.19,3.19,0,0,0,.45,1.86A1.54,1.54,0,0,0,225.62,1867.9Z" style="fill:#fff"/><path d="M233.26,1868.72a2.93,2.93,0,0,1-2.24-.87,3.36,3.36,0,0,1-.83-2.41A3.72,3.72,0,0,1,231,1863a2.53,2.53,0,0,1,2-.92,2.42,2.42,0,0,1,1.91.8,3,3,0,0,1,.7,2.09v.62H231.2a2.54,2.54,0,0,0,.57,1.71,2,2,0,0,0,1.53.59,5.35,5.35,0,0,0,2-.43v.86a4.65,4.65,0,0,1-1,.32A5,5,0,0,1,233.26,1868.72Zm-.26-5.84a1.55,1.55,0,0,0-1.23.5,2.35,2.35,0,0,0-.55,1.4h3.36a2.08,2.08,0,0,0-.41-1.41A1.42,1.42,0,0,0,233,1862.88Z" style="fill:#fff"/><path d="M245.47,1868.6v-4.18a1.73,1.73,0,0,0-.33-1.15,1.29,1.29,0,0,0-1-.38,1.64,1.64,0,0,0-1.34.52,2.48,2.48,0,0,0-.43,1.61v3.58h-1v-4.18a1.73,1.73,0,0,0-.33-1.15,1.28,1.28,0,0,0-1-.38,1.57,1.57,0,0,0-1.34.55,3,3,0,0,0-.42,1.79v3.37h-1v-6.42h.79l.16.88h.05a1.84,1.84,0,0,1,.78-.73,2.29,2.29,0,0,1,1.12-.27,1.92,1.92,0,0,1,2,1.09h0a2,2,0,0,1,.84-.79,2.5,2.5,0,0,1,1.24-.3,2.19,2.19,0,0,1,1.63.56,2.5,2.5,0,0,1,.54,1.79v4.19Z" style="fill:#fff"/><path d="M247.43,1862.18h1l1.41,3.66a14.72,14.72,0,0,1,.57,1.81h.05c.05-.2.15-.54.32-1s.69-2,1.59-4.45h1l-2.76,7.31a3.58,3.58,0,0,1-1,1.54,2,2,0,0,1-1.34.45,3.71,3.71,0,0,1-.88-.1v-.77a3.82,3.82,0,0,0,.72.07,1.49,1.49,0,0,0,1.43-1.13l.36-.91Z" style="fill:#fff"/><path d="M264.22,1860v5.55a3,3,0,0,1-.88,2.3,3.39,3.39,0,0,1-2.43.84,3.24,3.24,0,0,1-2.4-.85,3.13,3.13,0,0,1-.84-2.32V1860h1v5.59a2.2,2.2,0,0,0,.59,1.65,2.37,2.37,0,0,0,1.72.58,2.29,2.29,0,0,0,1.67-.58,2.24,2.24,0,0,0,.59-1.66V1860Z" style="fill:#fff"/><path d="M271.27,1868.6h-4.78V1860h4.78v.89h-3.78v2.76H271v.88h-3.55v3.15h3.78Z" style="fill:#fff"/><path d="M279.86,1868.6h-1.14l-4.68-7.19H274c.06.85.1,1.62.1,2.32v4.87h-.92V1860h1.12l4.67,7.16H279c0-.1,0-.44-.05-1s0-1,0-1.23V1860h.93Z" style="fill:#fff"/><path d="M288.34,1868.6h-.95v-6.1c0-.51,0-1,.05-1.45a2.38,2.38,0,0,1-.28.26c-.1.09-.56.47-1.39,1.14l-.52-.66,2.27-1.76h.82Z" style="fill:#fff"/><path d="M297.23,1863.69q0,5-3.89,5a3.92,3.92,0,0,1-1.08-.12v-.84a3.49,3.49,0,0,0,1.07.16,2.58,2.58,0,0,0,2.12-.87,4.37,4.37,0,0,0,.78-2.67h-.07a2.1,2.1,0,0,1-.85.74,2.77,2.77,0,0,1-1.2.25,2.41,2.41,0,0,1-1.81-.68,2.6,2.6,0,0,1-.67-1.9,2.87,2.87,0,0,1,.75-2.1,2.84,2.84,0,0,1,3.49-.33,2.83,2.83,0,0,1,1,1.31A5.37,5.37,0,0,1,297.23,1863.69Zm-2.88-3a1.62,1.62,0,0,0-1.3.54,2.28,2.28,0,0,0-.45,1.5,2,2,0,0,0,.42,1.33,1.62,1.62,0,0,0,1.28.48,2.27,2.27,0,0,0,1-.21,1.83,1.83,0,0,0,.71-.6,1.37,1.37,0,0,0,.26-.78,2.71,2.71,0,0,0-.24-1.14,2,2,0,0,0-.68-.82A1.65,1.65,0,0,0,294.35,1860.74Z" style="fill:#fff"/><path d="M304.09,1863.69q0,5-3.89,5a3.92,3.92,0,0,1-1.08-.12v-.84a3.54,3.54,0,0,0,1.07.16,2.58,2.58,0,0,0,2.12-.87,4.44,4.44,0,0,0,.79-2.67H303a2.13,2.13,0,0,1-.86.74,2.77,2.77,0,0,1-1.2.25,2.41,2.41,0,0,1-1.81-.68,2.6,2.6,0,0,1-.66-1.9,2.91,2.91,0,0,1,.74-2.1,2.61,2.61,0,0,1,2-.78,2.65,2.65,0,0,1,1.53.45,2.81,2.81,0,0,1,1,1.31A5.37,5.37,0,0,1,304.09,1863.69Zm-2.88-3a1.62,1.62,0,0,0-1.3.54,2.28,2.28,0,0,0-.45,1.5,2,2,0,0,0,.42,1.33,1.62,1.62,0,0,0,1.28.48,2.27,2.27,0,0,0,1-.21,1.83,1.83,0,0,0,.71-.6,1.37,1.37,0,0,0,.26-.78,2.71,2.71,0,0,0-.24-1.14,2.09,2.09,0,0,0-.67-.82A1.7,1.7,0,0,0,301.21,1860.74Z" style="fill:#fff"/><path d="M311.36,1866.63h-1.27v2h-.94v-2H305v-.85l4.06-5.79h1v5.76h1.27Zm-2.21-.88v-2.85q0-.84.06-1.89h0c-.19.37-.37.68-.53.93l-2.68,3.81Z" style="fill:#fff"/><path d="M317.86,1864.31a6.2,6.2,0,0,1-.7,3.31,2.58,2.58,0,0,1-4.24,0,6.15,6.15,0,0,1-.72-3.29,6.34,6.34,0,0,1,.69-3.33,2.6,2.6,0,0,1,4.25,0A6.14,6.14,0,0,1,317.86,1864.31Zm-4.68,0a6.33,6.33,0,0,0,.44,2.72,1.58,1.58,0,0,0,2.81,0,8.57,8.57,0,0,0,0-5.42,1.58,1.58,0,0,0-2.81,0A6.27,6.27,0,0,0,313.18,1864.31Z" style="fill:#fff"/><path d="M324.68,1863.69q0,5-3.89,5a3.83,3.83,0,0,1-1.08-.12v-.84a3.47,3.47,0,0,0,1.06.16,2.61,2.61,0,0,0,2.13-.87,4.37,4.37,0,0,0,.78-2.67h-.07a2.13,2.13,0,0,1-.86.74,2.71,2.71,0,0,1-1.2.25,2.37,2.37,0,0,1-1.8-.68,2.56,2.56,0,0,1-.67-1.9,2.87,2.87,0,0,1,.75-2.1,2.59,2.59,0,0,1,2-.78,2.63,2.63,0,0,1,1.53.45,2.81,2.81,0,0,1,1,1.31A5.17,5.17,0,0,1,324.68,1863.69Zm-2.89-3a1.58,1.58,0,0,0-1.29.54,2.22,2.22,0,0,0-.46,1.5,2,2,0,0,0,.42,1.33,1.62,1.62,0,0,0,1.29.48,2.3,2.3,0,0,0,1-.21,1.79,1.79,0,0,0,.7-.6,1.3,1.3,0,0,0,.26-.78,2.71,2.71,0,0,0-.24-1.14,2,2,0,0,0-.67-.82A1.7,1.7,0,0,0,321.79,1860.74Z" style="fill:#fff"/><path d="M331.21,1862.05a1.93,1.93,0,0,1-.46,1.34,2.28,2.28,0,0,1-1.3.7v.05a2.42,2.42,0,0,1,1.53.65,2,2,0,0,1,.5,1.39,2.24,2.24,0,0,1-.85,1.88,3.87,3.87,0,0,1-2.42.66,7.88,7.88,0,0,1-1.24-.1,4.43,4.43,0,0,1-1.1-.36v-.93a5.55,5.55,0,0,0,2.38.56q2.22,0,2.22-1.74c0-1-.82-1.56-2.45-1.56h-.84v-.83H328a2.55,2.55,0,0,0,1.59-.45,1.44,1.44,0,0,0,.59-1.22,1.24,1.24,0,0,0-.43-1,1.78,1.78,0,0,0-1.17-.36,3.32,3.32,0,0,0-1.06.16,4.74,4.74,0,0,0-1.14.56l-.49-.66a4.25,4.25,0,0,1,1.21-.65,4.41,4.41,0,0,1,1.45-.24,3,3,0,0,1,1.94.57A1.94,1.94,0,0,1,331.21,1862.05Z" style="fill:#fff"/><path d="M335.6,1859.91a2.88,2.88,0,0,1,1.86.55,1.8,1.8,0,0,1,.69,1.5,1.86,1.86,0,0,1-.4,1.16,3.62,3.62,0,0,1-1.25,1,4.17,4.17,0,0,1,1.48,1,1.94,1.94,0,0,1,.44,1.27,2.13,2.13,0,0,1-.74,1.7,3,3,0,0,1-2,.64,3.25,3.25,0,0,1-2.11-.6,2.08,2.08,0,0,1-.74-1.7,2.56,2.56,0,0,1,1.79-2.3,3.33,3.33,0,0,1-1.16-1,2.15,2.15,0,0,1-.35-1.19,1.79,1.79,0,0,1,.69-1.48A2.84,2.84,0,0,1,335.6,1859.91Zm-1.85,6.53a1.33,1.33,0,0,0,.49,1.09,2.12,2.12,0,0,0,1.38.4,2,2,0,0,0,1.35-.41,1.39,1.39,0,0,0,.49-1.13,1.36,1.36,0,0,0-.46-1,4.7,4.7,0,0,0-1.59-.86,3.62,3.62,0,0,0-1.27.83A1.62,1.62,0,0,0,333.75,1866.44Zm1.84-5.74a1.75,1.75,0,0,0-1.15.35,1.2,1.2,0,0,0-.41.94,1.35,1.35,0,0,0,.34.93,3.64,3.64,0,0,0,1.28.77,3.34,3.34,0,0,0,1.19-.75,1.43,1.43,0,0,0,.35-1,1.17,1.17,0,0,0-.43-.94A1.79,1.79,0,0,0,335.59,1860.7Z" style="fill:#fff"/><path d="M345.26,1863.69q0,5-3.89,5a3.92,3.92,0,0,1-1.08-.12v-.84a3.49,3.49,0,0,0,1.07.16,2.6,2.6,0,0,0,2.12-.87,4.37,4.37,0,0,0,.78-2.67h-.07a2.1,2.1,0,0,1-.85.74,2.77,2.77,0,0,1-1.2.25,2.41,2.41,0,0,1-1.81-.68,2.6,2.6,0,0,1-.67-1.9,2.87,2.87,0,0,1,.75-2.1,2.84,2.84,0,0,1,3.49-.33,2.83,2.83,0,0,1,1,1.31A5.37,5.37,0,0,1,345.26,1863.69Zm-2.88-3a1.62,1.62,0,0,0-1.3.54,2.28,2.28,0,0,0-.46,1.5,2,2,0,0,0,.43,1.33,1.62,1.62,0,0,0,1.28.48,2.27,2.27,0,0,0,1-.21,1.83,1.83,0,0,0,.71-.6,1.37,1.37,0,0,0,.26-.78,2.71,2.71,0,0,0-.24-1.14,2,2,0,0,0-.68-.82A1.65,1.65,0,0,0,342.38,1860.74Z" style="fill:#fff"/><path d="M353.59,1868.6h-1v-4h-4.51v4h-1V1860h1v3.65h4.51V1860h1Z" style="fill:#fff"/><path d="M356.81,1867.21l.09.13c-.11.39-.25.85-.44,1.36s-.39,1-.6,1.45h-.73c.1-.41.22-.91.35-1.51s.21-1.07.26-1.43Zm-1.19-4.4c0-.53.23-.79.7-.79s.72.26.72.79a.8.8,0,0,1-.2.58.67.67,0,0,1-.52.21.64.64,0,0,1-.52-.21A.84.84,0,0,1,355.62,1862.81Z" style="fill:#fff"/><path d="M367.14,1860h1.07l-3.09,8.57h-1l-3.07-8.57h1.05l2,5.55a13.84,13.84,0,0,1,.54,1.86,16.39,16.39,0,0,1,.55-1.9Z" style="fill:#fff"/><path d="M373.19,1868.6l-.19-.91H373a2.66,2.66,0,0,1-1,.81,2.78,2.78,0,0,1-1.19.22,2.2,2.2,0,0,1-1.5-.49,1.81,1.81,0,0,1-.54-1.4c0-1.3,1-2,3.11-2l1.09,0v-.4a1.65,1.65,0,0,0-.32-1.11,1.35,1.35,0,0,0-1-.36,4.22,4.22,0,0,0-1.82.49l-.3-.75a5,5,0,0,1,1-.4,4.46,4.46,0,0,1,1.14-.15,2.45,2.45,0,0,1,1.7.51,2.14,2.14,0,0,1,.55,1.64v4.38Zm-2.2-.68a2,2,0,0,0,1.43-.5,1.83,1.83,0,0,0,.52-1.4v-.58l-1,0a3.65,3.65,0,0,0-1.68.36,1.11,1.11,0,0,0-.51,1,1,1,0,0,0,.32.8A1.34,1.34,0,0,0,371,1867.92Z" style="fill:#fff"/><path d="M376.89,1868.6h-1v-9.12h1Z" style="fill:#fff"/><path d="M378.87,1860.44a.64.64,0,0,1,.16-.49.6.6,0,0,1,.41-.16.62.62,0,0,1,.41.16.79.79,0,0,1,0,1,.57.57,0,0,1-.41.16.56.56,0,0,1-.41-.16A.66.66,0,0,1,378.87,1860.44Zm1.05,8.16h-1v-6.42h1Z" style="fill:#fff"/><path d="M386.36,1867.74h-.06a2.28,2.28,0,0,1-2,1,2.4,2.4,0,0,1-2-.86,3.78,3.78,0,0,1-.7-2.45,3.86,3.86,0,0,1,.7-2.47,2.39,2.39,0,0,1,2-.88,2.33,2.33,0,0,1,2,1h.08l0-.46,0-.45v-2.62h1v9.12h-.79Zm-1.95.16a1.78,1.78,0,0,0,1.45-.54,2.73,2.73,0,0,0,.44-1.75v-.2a3.25,3.25,0,0,0-.45-2,1.72,1.72,0,0,0-1.45-.58,1.49,1.49,0,0,0-1.31.66,3.33,3.33,0,0,0-.45,1.88,3.19,3.19,0,0,0,.45,1.86A1.54,1.54,0,0,0,384.41,1867.9Z" style="fill:#fff"/><path d="M389.26,1860.44a.64.64,0,0,1,.16-.49.6.6,0,0,1,.41-.16.62.62,0,0,1,.41.16.79.79,0,0,1,0,1,.57.57,0,0,1-.41.16.56.56,0,0,1-.41-.16A.66.66,0,0,1,389.26,1860.44Zm1.05,8.16h-1v-6.42h1Z" style="fill:#fff"/><path d="M394.45,1867.92a4,4,0,0,0,.5,0l.38-.08v.74a1.7,1.7,0,0,1-.47.13,3.86,3.86,0,0,1-.55,0c-1.24,0-1.86-.66-1.86-2v-3.82h-.92v-.47l.92-.41.41-1.37h.56v1.49h1.86v.76h-1.86v3.77a1.34,1.34,0,0,0,.27.9A1,1,0,0,0,394.45,1867.92Z" style="fill:#fff"/><path d="M395.59,1862.18h1l1.41,3.66a15.28,15.28,0,0,1,.58,1.81h0c0-.2.16-.54.32-1s.69-2,1.59-4.45h1.05l-2.76,7.31a3.78,3.78,0,0,1-1,1.54,2.07,2.07,0,0,1-1.35.45,3.77,3.77,0,0,1-.88-.1v-.77a4,4,0,0,0,.72.07,1.48,1.48,0,0,0,1.43-1.13l.36-.91Z" style="fill:#fff"/><path d="M411,1868.6h-5.63v-.84l2.26-2.26c.68-.7,1.14-1.2,1.36-1.49a4.3,4.3,0,0,0,.49-.87,2.45,2.45,0,0,0,.16-.91,1.45,1.45,0,0,0-.41-1.08,1.61,1.61,0,0,0-1.16-.41,2.87,2.87,0,0,0-1,.18,4,4,0,0,0-1.06.64l-.52-.66a3.94,3.94,0,0,1,2.58-1,2.72,2.72,0,0,1,1.89.62,2.12,2.12,0,0,1,.69,1.66,3.16,3.16,0,0,1-.46,1.61,9.89,9.89,0,0,1-1.71,2l-1.88,1.83v0H411Z" style="fill:#fff"/><path d="M417.87,1864.31a6.2,6.2,0,0,1-.7,3.31,2.59,2.59,0,0,1-4.25,0,6.15,6.15,0,0,1-.72-3.29,6.33,6.33,0,0,1,.7-3.33,2.6,2.6,0,0,1,4.25,0A6.14,6.14,0,0,1,417.87,1864.31Zm-4.68,0a6.18,6.18,0,0,0,.44,2.72,1.58,1.58,0,0,0,2.81,0,8.75,8.75,0,0,0,0-5.42,1.58,1.58,0,0,0-2.81,0A6.12,6.12,0,0,0,413.19,1864.31Z" style="fill:#fff"/><path d="M422.75,1860l-3.19,8.57h-1l3.2-8.57Z" style="fill:#fff"/><path d="M429.14,1864.31a6.3,6.3,0,0,1-.7,3.31,2.59,2.59,0,0,1-4.25,0,6.15,6.15,0,0,1-.72-3.29,6.23,6.23,0,0,1,.7-3.33,2.59,2.59,0,0,1,4.24,0A6,6,0,0,1,429.14,1864.31Zm-4.68,0a6.36,6.36,0,0,0,.43,2.72,1.58,1.58,0,0,0,2.81,0,8.57,8.57,0,0,0,0-5.42,1.58,1.58,0,0,0-2.81,0A6.3,6.3,0,0,0,424.46,1864.31Z" style="fill:#fff"/><path d="M433,1863.37a3.14,3.14,0,0,1,2.13.67,2.3,2.3,0,0,1,.77,1.84,2.65,2.65,0,0,1-.84,2.08,3.38,3.38,0,0,1-2.34.76,4.41,4.41,0,0,1-2.21-.46v-.94a3.68,3.68,0,0,0,1,.41,5.06,5.06,0,0,0,1.2.15,2.38,2.38,0,0,0,1.61-.49,1.73,1.73,0,0,0,.57-1.4c0-1.2-.73-1.8-2.2-1.8a9.12,9.12,0,0,0-1.49.17l-.5-.32.32-4h4.26v.9h-3.43l-.21,2.57A6.76,6.76,0,0,1,433,1863.37Z" style="fill:#fff"/><path d="M440.88,1860l-3.19,8.57h-1l3.2-8.57Z" style="fill:#fff"/><path d="M447.22,1868.6h-5.63v-.84l2.25-2.26a18.17,18.17,0,0,0,1.36-1.49,3.93,3.93,0,0,0,.5-.87,2.67,2.67,0,0,0,.16-.91,1.42,1.42,0,0,0-.42-1.08,1.57,1.57,0,0,0-1.15-.41,2.83,2.83,0,0,0-1,.18,4.23,4.23,0,0,0-1.07.64l-.51-.66a3.94,3.94,0,0,1,2.58-1,2.74,2.74,0,0,1,1.89.62,2.12,2.12,0,0,1,.69,1.66,3.26,3.26,0,0,1-.46,1.61,10.59,10.59,0,0,1-1.71,2l-1.88,1.83v0h4.41Z" style="fill:#fff"/><path d="M454.13,1864.31a6.3,6.3,0,0,1-.7,3.31,2.59,2.59,0,0,1-4.25,0,6.15,6.15,0,0,1-.72-3.29,6.23,6.23,0,0,1,.7-3.33,2.59,2.59,0,0,1,4.24,0A6,6,0,0,1,454.13,1864.31Zm-4.68,0a6.36,6.36,0,0,0,.43,2.72,1.58,1.58,0,0,0,2.81,0,8.57,8.57,0,0,0,0-5.42,1.47,1.47,0,0,0-1.4-.86,1.49,1.49,0,0,0-1.41.85A6.3,6.3,0,0,0,449.45,1864.31Z" style="fill:#fff"/><path d="M458.91,1868.6h-1v-6.1c0-.51,0-1,.05-1.45a3.38,3.38,0,0,1-.27.26l-1.4,1.14-.51-.66,2.26-1.76h.82Z" style="fill:#fff"/><path d="M465,1859.91a2.88,2.88,0,0,1,1.86.55,1.82,1.82,0,0,1,.68,1.5,1.91,1.91,0,0,1-.39,1.16,3.57,3.57,0,0,1-1.26,1,4.32,4.32,0,0,1,1.49,1,2,2,0,0,1,.44,1.27,2.11,2.11,0,0,1-.75,1.7,3,3,0,0,1-2,.64,3.29,3.29,0,0,1-2.11-.6,2.07,2.07,0,0,1-.73-1.7,2.54,2.54,0,0,1,1.79-2.3,3.24,3.24,0,0,1-1.16-1,2.08,2.08,0,0,1-.35-1.19,1.79,1.79,0,0,1,.69-1.48A2.83,2.83,0,0,1,465,1859.91Zm-1.85,6.53a1.3,1.3,0,0,0,.49,1.09,2.5,2.5,0,0,0,2.73,0,1.42,1.42,0,0,0,.49-1.13,1.4,1.4,0,0,0-.46-1,4.87,4.87,0,0,0-1.6-.86,3.48,3.48,0,0,0-1.26.83A1.62,1.62,0,0,0,463.16,1866.44Zm1.84-5.74a1.74,1.74,0,0,0-1.15.35,1.17,1.17,0,0,0-.42.94,1.36,1.36,0,0,0,.35.93,3.57,3.57,0,0,0,1.27.77,3.25,3.25,0,0,0,1.19-.75,1.43,1.43,0,0,0,.35-1,1.16,1.16,0,0,0-.42-.94A1.83,1.83,0,0,0,465,1860.7Z" style="fill:#fff"/><path d="M468.93,1865.83v-.89h5v.89Z" style="fill:#fff"/><path d="M478.64,1868.6h-.95v-6.1c0-.51,0-1,0-1.45a3.38,3.38,0,0,1-.27.26l-1.4,1.14-.51-.66,2.27-1.76h.82Z" style="fill:#fff"/><path d="M487.53,1863.69q0,5-3.9,5a3.8,3.8,0,0,1-1.07-.12v-.84a3.42,3.42,0,0,0,1.06.16,2.61,2.61,0,0,0,2.13-.87,4.37,4.37,0,0,0,.78-2.67h-.07a2.13,2.13,0,0,1-.86.74,2.71,2.71,0,0,1-1.2.25,2.37,2.37,0,0,1-1.8-.68,2.56,2.56,0,0,1-.67-1.9,2.87,2.87,0,0,1,.75-2.1,2.58,2.58,0,0,1,2-.78,2.65,2.65,0,0,1,1.53.45,2.81,2.81,0,0,1,1,1.31A5.17,5.17,0,0,1,487.53,1863.69Zm-2.89-3a1.58,1.58,0,0,0-1.29.54,2.22,2.22,0,0,0-.46,1.5,2,2,0,0,0,.42,1.33,1.62,1.62,0,0,0,1.29.48,2.3,2.3,0,0,0,1-.21,1.79,1.79,0,0,0,.7-.6,1.3,1.3,0,0,0,.26-.78,2.71,2.71,0,0,0-.24-1.14,2,2,0,0,0-.67-.82A1.7,1.7,0,0,0,484.64,1860.74Z" style="fill:#fff"/><path d="M492.45,1860l-3.19,8.57h-1l3.19-8.57Z" style="fill:#fff"/><path d="M498.84,1864.31a6.2,6.2,0,0,1-.7,3.31,2.59,2.59,0,0,1-4.25,0,6.15,6.15,0,0,1-.72-3.29,6.33,6.33,0,0,1,.7-3.33,2.6,2.6,0,0,1,4.25,0A6.14,6.14,0,0,1,498.84,1864.31Zm-4.68,0a6.18,6.18,0,0,0,.44,2.72,1.58,1.58,0,0,0,2.81,0,8.75,8.75,0,0,0,0-5.42,1.58,1.58,0,0,0-2.81,0A6.12,6.12,0,0,0,494.16,1864.31Z" style="fill:#fff"/><path d="M502.7,1863.37a3.14,3.14,0,0,1,2.13.67,2.3,2.3,0,0,1,.78,1.84,2.63,2.63,0,0,1-.85,2.08,3.34,3.34,0,0,1-2.33.76,4.36,4.36,0,0,1-2.21-.46v-.94a3.44,3.44,0,0,0,1,.41,4.93,4.93,0,0,0,1.2.15,2.37,2.37,0,0,0,1.6-.49,1.73,1.73,0,0,0,.57-1.4c0-1.2-.73-1.8-2.2-1.8a9,9,0,0,0-1.48.17l-.51-.32.32-4H505v.9h-3.42l-.22,2.57A6.83,6.83,0,0,1,502.7,1863.37Z" style="fill:#fff"/><path d="M510.58,1860l-3.19,8.57h-1l3.19-8.57Z" style="fill:#fff"/><path d="M516.92,1868.6h-5.63v-.84l2.26-2.26c.68-.7,1.14-1.2,1.36-1.49a4.3,4.3,0,0,0,.49-.87,2.45,2.45,0,0,0,.16-.91,1.45,1.45,0,0,0-.41-1.08,1.61,1.61,0,0,0-1.16-.41,2.87,2.87,0,0,0-1,.18,4,4,0,0,0-1.06.64l-.52-.66a3.94,3.94,0,0,1,2.58-1,2.71,2.71,0,0,1,1.89.62,2.12,2.12,0,0,1,.69,1.66,3.16,3.16,0,0,1-.46,1.61,9.89,9.89,0,0,1-1.71,2l-1.87,1.83v0h4.4Z" style="fill:#fff"/><path d="M523.83,1864.31a6.2,6.2,0,0,1-.7,3.31,2.59,2.59,0,0,1-4.25,0,6.15,6.15,0,0,1-.72-3.29,6.33,6.33,0,0,1,.7-3.33,2.6,2.6,0,0,1,4.25,0A6.14,6.14,0,0,1,523.83,1864.31Zm-4.68,0a6.18,6.18,0,0,0,.44,2.72,1.58,1.58,0,0,0,2.81,0,8.75,8.75,0,0,0,0-5.42,1.58,1.58,0,0,0-2.81,0A6.12,6.12,0,0,0,519.15,1864.31Z" style="fill:#fff"/><path d="M530.64,1868.6H525v-.84l2.26-2.26a18.17,18.17,0,0,0,1.36-1.49,3.87,3.87,0,0,0,.49-.87,2.46,2.46,0,0,0,.17-.91,1.42,1.42,0,0,0-.42-1.08,1.59,1.59,0,0,0-1.16-.41,2.87,2.87,0,0,0-1,.18,4.19,4.19,0,0,0-1.06.64l-.52-.66a3.94,3.94,0,0,1,2.58-1,2.75,2.75,0,0,1,1.9.62,2.15,2.15,0,0,1,.68,1.66,3.16,3.16,0,0,1-.46,1.61,9.89,9.89,0,0,1-1.71,2l-1.87,1.83v0h4.4Z" style="fill:#fff"/><path d="M537.51,1868.6h-5.63v-.84l2.25-2.26a18.17,18.17,0,0,0,1.36-1.49,3.87,3.87,0,0,0,.49-.87,2.46,2.46,0,0,0,.17-.91,1.42,1.42,0,0,0-.42-1.08,1.58,1.58,0,0,0-1.15-.41,2.79,2.79,0,0,0-1,.18,4.06,4.06,0,0,0-1.07.64l-.51-.66a3.92,3.92,0,0,1,2.57-1,2.75,2.75,0,0,1,1.9.62,2.15,2.15,0,0,1,.68,1.66,3.25,3.25,0,0,1-.45,1.61,10.35,10.35,0,0,1-1.72,2l-1.87,1.83v0h4.41Z" style="fill:#fff"/><path d="M539,1868a.85.85,0,0,1,.18-.59.64.64,0,0,1,.51-.21.66.66,0,0,1,.53.21.81.81,0,0,1,.19.59.84.84,0,0,1-.19.59.71.71,0,0,1-.53.2.69.69,0,0,1-.49-.18A.83.83,0,0,1,539,1868Z" style="fill:#fff"/><path d="M551.83,1868.6h-1.18l-3.12-4.15-.9.79v3.36h-1V1860h1v4.25l3.89-4.25h1.18l-3.45,3.73Z" style="fill:#fff"/><path d="M556.81,1868.6l-.2-.91h0a2.66,2.66,0,0,1-1,.81,2.81,2.81,0,0,1-1.19.22,2.18,2.18,0,0,1-1.5-.49,1.81,1.81,0,0,1-.54-1.4c0-1.3,1-2,3.11-2l1.09,0v-.4a1.6,1.6,0,0,0-.33-1.11,1.32,1.32,0,0,0-1-.36,4.18,4.18,0,0,0-1.81.49l-.3-.75a4.59,4.59,0,0,1,1-.4,4.33,4.33,0,0,1,1.13-.15,2.43,2.43,0,0,1,1.7.51,2.14,2.14,0,0,1,.56,1.64v4.38Zm-2.2-.68a2,2,0,0,0,1.43-.5,1.87,1.87,0,0,0,.51-1.4v-.58l-1,0a3.6,3.6,0,0,0-1.67.36,1.11,1.11,0,0,0-.51,1,1,1,0,0,0,.32.8A1.34,1.34,0,0,0,554.61,1867.92Z" style="fill:#fff"/><path d="M562.52,1868.72a2.88,2.88,0,0,1-1.15-.23,2.28,2.28,0,0,1-.87-.71h-.07a8,8,0,0,1,.07,1.06v2.64h-1v-9.3h.79l.14.88h0a2.18,2.18,0,0,1,.88-.76,2.58,2.58,0,0,1,1.14-.24,2.35,2.35,0,0,1,2,.88,4.61,4.61,0,0,1,0,4.9A2.36,2.36,0,0,1,562.52,1868.72Zm-.14-5.83a1.71,1.71,0,0,0-1.42.54,2.79,2.79,0,0,0-.46,1.74v.21a3.14,3.14,0,0,0,.46,1.94,1.7,1.7,0,0,0,1.44.58,1.51,1.51,0,0,0,1.31-.67,3.24,3.24,0,0,0,.47-1.86,3.1,3.1,0,0,0-.47-1.84A1.56,1.56,0,0,0,562.38,1862.89Z" style="fill:#fff"/><path d="M567.86,1868.6h-1v-9.12h1Z" style="fill:#fff"/><path d="M573.87,1868.6l-.19-.91h0a2.66,2.66,0,0,1-1,.81,2.78,2.78,0,0,1-1.19.22,2.18,2.18,0,0,1-1.5-.49,1.81,1.81,0,0,1-.54-1.4c0-1.3,1-2,3.11-2l1.09,0v-.4a1.65,1.65,0,0,0-.32-1.11,1.35,1.35,0,0,0-1-.36,4.18,4.18,0,0,0-1.82.49l-.3-.75a4.78,4.78,0,0,1,1-.4,4.45,4.45,0,0,1,1.13-.15,2.46,2.46,0,0,1,1.71.51,2.14,2.14,0,0,1,.55,1.64v4.38Zm-2.2-.68a2,2,0,0,0,1.43-.5,1.87,1.87,0,0,0,.52-1.4v-.58l-1,0a3.6,3.6,0,0,0-1.67.36,1.11,1.11,0,0,0-.51,1,1,1,0,0,0,.32.8A1.34,1.34,0,0,0,571.67,1867.92Z" style="fill:#fff"/><path d="M581,1868.6v-4.15a1.64,1.64,0,0,0-.36-1.17,1.45,1.45,0,0,0-1.12-.39,1.84,1.84,0,0,0-1.47.54,2.73,2.73,0,0,0-.47,1.8v3.37h-1v-6.42h.79l.16.88h.05a2,2,0,0,1,.84-.74,2.78,2.78,0,0,1,1.2-.26,2.48,2.48,0,0,1,1.75.56,2.38,2.38,0,0,1,.58,1.79v4.19Z" style="fill:#fff"/><path d="M593.73,1868.6h-1v-4h-4.51v4h-1V1860h1v3.65h4.51V1860h1Z" style="fill:#fff"/><path d="M595.85,1860.44a.64.64,0,0,1,.16-.49.6.6,0,0,1,.41-.16.62.62,0,0,1,.41.16.79.79,0,0,1,0,1,.57.57,0,0,1-.41.16.56.56,0,0,1-.41-.16A.66.66,0,0,1,595.85,1860.44Zm1,8.16h-1v-6.42h1Z" style="fill:#fff"/><path d="M604.22,1862.18v.61l-1.19.15a1.75,1.75,0,0,1,.29.53,2,2,0,0,1,.13.75,1.87,1.87,0,0,1-.64,1.5,2.58,2.58,0,0,1-1.77.57,3.1,3.1,0,0,1-.54,0,1,1,0,0,0-.62.83.43.43,0,0,0,.22.39,1.62,1.62,0,0,0,.74.12H602a2.56,2.56,0,0,1,1.6.44,1.54,1.54,0,0,1,.56,1.28,1.82,1.82,0,0,1-.86,1.62,4.5,4.5,0,0,1-2.49.56,3.47,3.47,0,0,1-1.95-.46,1.54,1.54,0,0,1-.68-1.33,1.47,1.47,0,0,1,.38-1,1.87,1.87,0,0,1,1.05-.58,1.06,1.06,0,0,1-.41-.35.91.91,0,0,1-.17-.54,1,1,0,0,1,.19-.62,2.06,2.06,0,0,1,.59-.51,1.76,1.76,0,0,1-.81-.7,2,2,0,0,1-.31-1.12,2.1,2.1,0,0,1,.63-1.63,2.58,2.58,0,0,1,1.79-.57,3.18,3.18,0,0,1,.91.12Zm-5.12,7.5a.87.87,0,0,0,.44.79,2.41,2.41,0,0,0,1.26.27,3.42,3.42,0,0,0,1.81-.37,1.12,1.12,0,0,0,.59-1,.78.78,0,0,0-.32-.72,2.43,2.43,0,0,0-1.21-.21H600.5a1.53,1.53,0,0,0-1,.32A1.11,1.11,0,0,0,599.1,1869.68Zm.53-5.44a1.29,1.29,0,0,0,.38,1,1.52,1.52,0,0,0,1.06.34,1.24,1.24,0,0,0,1.42-1.38,1.28,1.28,0,0,0-1.44-1.45,1.39,1.39,0,0,0-1,.37A1.48,1.48,0,0,0,599.63,1864.24Z" style="fill:#fff"/><path d="M609.93,1868.6v-4.15a1.69,1.69,0,0,0-.35-1.17,1.47,1.47,0,0,0-1.12-.39,1.82,1.82,0,0,0-1.48.55,2.79,2.79,0,0,0-.47,1.8v3.36h-1v-9.12h1v2.76a4.84,4.84,0,0,1,0,.83h.06a2,2,0,0,1,.82-.73,2.63,2.63,0,0,1,1.21-.27,2.51,2.51,0,0,1,1.77.56,2.39,2.39,0,0,1,.59,1.78v4.19Z" style="fill:#fff"/><path d="M615.62,1868.72a3,3,0,0,1-2.25-.87,3.35,3.35,0,0,1-.82-2.41,3.71,3.71,0,0,1,.76-2.46,2.55,2.55,0,0,1,2.06-.92,2.43,2.43,0,0,1,1.91.8,3.07,3.07,0,0,1,.7,2.09v.62h-4.43a2.49,2.49,0,0,0,.58,1.71,2,2,0,0,0,1.52.59,5.31,5.31,0,0,0,2.05-.43v.86a4.77,4.77,0,0,1-1,.32A5.13,5.13,0,0,1,615.62,1868.72Zm-.27-5.84a1.58,1.58,0,0,0-1.23.5,2.28,2.28,0,0,0-.54,1.4h3.36a2.14,2.14,0,0,0-.41-1.41A1.46,1.46,0,0,0,615.35,1862.88Z" style="fill:#fff"/><path d="M622.57,1862.06a4.28,4.28,0,0,1,.76.07l-.13.9a4,4,0,0,0-.7-.08,1.73,1.73,0,0,0-1.34.63,2.31,2.31,0,0,0-.55,1.58v3.44h-1v-6.42h.8l.11,1.19h.05a2.82,2.82,0,0,1,.86-1A2,2,0,0,1,622.57,1862.06Z" style="fill:#fff"/><path d="M632.57,1868.6H627.8V1860h4.77v.89h-3.78v2.76h3.56v.88h-3.56v3.15h3.78Z" style="fill:#fff"/><path d="M638.7,1867.74h-.06a2.28,2.28,0,0,1-2,1,2.4,2.4,0,0,1-2-.86,3.78,3.78,0,0,1-.7-2.45,3.86,3.86,0,0,1,.7-2.47,2.39,2.39,0,0,1,2-.88,2.33,2.33,0,0,1,2,1h.08l0-.46,0-.45v-2.62h1v9.12h-.79Zm-2,.16a1.78,1.78,0,0,0,1.45-.54,2.73,2.73,0,0,0,.44-1.75v-.2a3.25,3.25,0,0,0-.45-2,1.72,1.72,0,0,0-1.45-.58,1.49,1.49,0,0,0-1.31.66,3.33,3.33,0,0,0-.45,1.88,3.19,3.19,0,0,0,.45,1.86A1.54,1.54,0,0,0,636.75,1867.9Z" style="fill:#fff"/><path d="M642.59,1862.18v4.17a1.67,1.67,0,0,0,.36,1.17,1.45,1.45,0,0,0,1.12.38,1.81,1.81,0,0,0,1.47-.55,2.76,2.76,0,0,0,.47-1.8v-3.37h1v6.42h-.8l-.14-.86h0a2,2,0,0,1-.83.73,2.94,2.94,0,0,1-1.21.25,2.48,2.48,0,0,1-1.76-.56,2.35,2.35,0,0,1-.58-1.78v-4.2Z" style="fill:#fff"/><path d="M651.61,1868.72a2.75,2.75,0,0,1-2.16-.86,3.52,3.52,0,0,1-.76-2.43,3.69,3.69,0,0,1,.77-2.49,2.83,2.83,0,0,1,2.22-.88,4.88,4.88,0,0,1,.92.1,3.27,3.27,0,0,1,.73.24l-.3.82a6.41,6.41,0,0,0-.7-.21,3,3,0,0,0-.68-.09c-1.3,0-1.95.84-1.95,2.5a3,3,0,0,0,.47,1.82,1.67,1.67,0,0,0,1.42.63,4.32,4.32,0,0,0,1.64-.35v.86A3.41,3.41,0,0,1,651.61,1868.72Z" style="fill:#fff"/><path d="M658.71,1868.6l-.2-.91h0a2.66,2.66,0,0,1-1,.81,2.81,2.81,0,0,1-1.19.22,2.18,2.18,0,0,1-1.5-.49,1.81,1.81,0,0,1-.54-1.4c0-1.3,1-2,3.11-2l1.09,0v-.4a1.6,1.6,0,0,0-.33-1.11,1.32,1.32,0,0,0-1-.36,4.18,4.18,0,0,0-1.81.49l-.3-.75a4.59,4.59,0,0,1,1-.4,4.39,4.39,0,0,1,1.13-.15,2.43,2.43,0,0,1,1.7.51,2.14,2.14,0,0,1,.56,1.64v4.38Zm-2.2-.68a2,2,0,0,0,1.43-.5,1.87,1.87,0,0,0,.52-1.4v-.58l-1,0a3.6,3.6,0,0,0-1.67.36,1.11,1.11,0,0,0-.51,1,1,1,0,0,0,.32.8A1.34,1.34,0,0,0,656.51,1867.92Z" style="fill:#fff"/><path d="M663.51,1867.92a3.89,3.89,0,0,0,.49,0,3.43,3.43,0,0,0,.38-.08v.74a1.62,1.62,0,0,1-.46.13,4,4,0,0,1-.55,0c-1.25,0-1.87-.66-1.87-2v-3.82h-.92v-.47l.92-.41.41-1.37h.56v1.49h1.87v.76h-1.87v3.77a1.35,1.35,0,0,0,.28.9A1,1,0,0,0,663.51,1867.92Z" style="fill:#fff"/><path d="M665.59,1860.44a.64.64,0,0,1,.16-.49.6.6,0,0,1,.41-.16.58.58,0,0,1,.4.16.79.79,0,0,1,0,1,.54.54,0,0,1-.4.16.56.56,0,0,1-.41-.16A.66.66,0,0,1,665.59,1860.44Zm1,8.16h-1v-6.42h1Z" style="fill:#fff"/><path d="M674.25,1865.38a3.6,3.6,0,0,1-.79,2.46,2.82,2.82,0,0,1-2.19.88,2.92,2.92,0,0,1-1.53-.41,2.59,2.59,0,0,1-1-1.16,4.05,4.05,0,0,1-.36-1.77,3.54,3.54,0,0,1,.78-2.44,2.75,2.75,0,0,1,2.18-.88,2.71,2.71,0,0,1,2.14.9A3.51,3.51,0,0,1,674.25,1865.38Zm-4.9,0a3.05,3.05,0,0,0,.5,1.88,1.69,1.69,0,0,0,1.44.64,1.71,1.71,0,0,0,1.45-.64,3.75,3.75,0,0,0,0-3.74,1.74,1.74,0,0,0-1.46-.63,1.7,1.7,0,0,0-1.44.63A3,3,0,0,0,669.35,1865.38Z" style="fill:#fff"/><path d="M680.35,1868.6v-4.15a1.64,1.64,0,0,0-.36-1.17,1.45,1.45,0,0,0-1.12-.39,1.88,1.88,0,0,0-1.48.54,2.79,2.79,0,0,0-.47,1.8v3.37h-1v-6.42h.79l.16.88H677a2,2,0,0,1,.84-.74,2.71,2.71,0,0,1,1.2-.26,2.44,2.44,0,0,1,1.74.56,2.38,2.38,0,0,1,.59,1.79v4.19Z" style="fill:#fff"/><path d="M686.58,1868.6V1860h1v8.57Z" style="fill:#fff"/><path d="M694.17,1868.6v-4.15a1.69,1.69,0,0,0-.35-1.17,1.45,1.45,0,0,0-1.12-.39,1.86,1.86,0,0,0-1.48.54,2.79,2.79,0,0,0-.47,1.8v3.37h-1v-6.42h.79l.16.88h0a1.93,1.93,0,0,1,.83-.74,2.78,2.78,0,0,1,1.2-.26,2.45,2.45,0,0,1,1.75.56,2.38,2.38,0,0,1,.59,1.79v4.19Z" style="fill:#fff"/><path d="M701.29,1866.85a1.61,1.61,0,0,1-.67,1.38,3.11,3.11,0,0,1-1.88.49,4.07,4.07,0,0,1-2-.41v-.9a4.58,4.58,0,0,0,1,.37,4.1,4.1,0,0,0,1,.14,2.31,2.31,0,0,0,1.17-.25.83.83,0,0,0,.08-1.38,4.9,4.9,0,0,0-1.26-.63,7.1,7.1,0,0,1-1.28-.58,1.78,1.78,0,0,1-.56-.57,1.49,1.49,0,0,1-.19-.75,1.45,1.45,0,0,1,.64-1.24,2.93,2.93,0,0,1,1.75-.46,5.13,5.13,0,0,1,2,.42l-.34.8a4.61,4.61,0,0,0-1.76-.4,2.07,2.07,0,0,0-1,.21.69.69,0,0,0-.35.6.72.72,0,0,0,.13.44,1.33,1.33,0,0,0,.43.35,9.91,9.91,0,0,0,1.12.47,4.34,4.34,0,0,1,1.55.84A1.5,1.5,0,0,1,701.29,1866.85Z" style="fill:#fff"/><path d="M704.94,1867.92a3.9,3.9,0,0,0,.5,0,3.43,3.43,0,0,0,.38-.08v.74a1.62,1.62,0,0,1-.46.13,4,4,0,0,1-.56,0c-1.24,0-1.86-.66-1.86-2v-3.82H702v-.47l.92-.41.41-1.37h.56v1.49h1.87v.76h-1.87v3.77a1.29,1.29,0,0,0,.28.9A1,1,0,0,0,704.94,1867.92Z" style="fill:#fff"/><path d="M707,1860.44a.65.65,0,0,1,.17-.49.58.58,0,0,1,.41-.16.59.59,0,0,1,.4.16.79.79,0,0,1,0,1,.55.55,0,0,1-.4.16.54.54,0,0,1-.41-.16A.66.66,0,0,1,707,1860.44Zm1.06,8.16h-1v-6.42h1Z" style="fill:#fff"/><path d="M712.21,1867.92a3.9,3.9,0,0,0,.5,0,3.43,3.43,0,0,0,.38-.08v.74a1.62,1.62,0,0,1-.46.13,4,4,0,0,1-.56,0c-1.24,0-1.86-.66-1.86-2v-3.82h-.92v-.47l.92-.41.41-1.37h.56v1.49h1.87v.76h-1.87v3.77a1.35,1.35,0,0,0,.28.9A1,1,0,0,0,712.21,1867.92Z" style="fill:#fff"/><path d="M715.29,1862.18v4.17a1.67,1.67,0,0,0,.36,1.17,1.45,1.45,0,0,0,1.12.38,1.81,1.81,0,0,0,1.47-.55,2.76,2.76,0,0,0,.47-1.8v-3.37h1v6.42h-.8l-.14-.86h-.06a1.91,1.91,0,0,1-.83.73,2.87,2.87,0,0,1-1.21.25,2.45,2.45,0,0,1-1.75-.56,2.35,2.35,0,0,1-.58-1.78v-4.2Z" style="fill:#fff"/><path d="M723.82,1867.92a3.89,3.89,0,0,0,.49,0l.39-.08v.74a1.81,1.81,0,0,1-.47.13,4,4,0,0,1-.55,0c-1.25,0-1.87-.66-1.87-2v-3.82h-.92v-.47l.92-.41.41-1.37h.57v1.49h1.86v.76h-1.86v3.77a1.34,1.34,0,0,0,.27.9A1,1,0,0,0,723.82,1867.92Z" style="fill:#fff"/><path d="M728.69,1868.72a3,3,0,0,1-2.25-.87,3.4,3.4,0,0,1-.82-2.41,3.72,3.72,0,0,1,.77-2.46,2.53,2.53,0,0,1,2.05-.92,2.43,2.43,0,0,1,1.91.8,3,3,0,0,1,.7,2.09v.62h-4.42a2.54,2.54,0,0,0,.57,1.71,2,2,0,0,0,1.53.59,5.35,5.35,0,0,0,2-.43v.86a4.85,4.85,0,0,1-1,.32A5.07,5.07,0,0,1,728.69,1868.72Zm-.26-5.84a1.58,1.58,0,0,0-1.24.5,2.41,2.41,0,0,0-.54,1.4H730a2.14,2.14,0,0,0-.41-1.41A1.42,1.42,0,0,0,728.43,1862.88Z" style="fill:#fff"/><path d="M742.44,1860v5.55a3,3,0,0,1-.88,2.3,3.39,3.39,0,0,1-2.43.84,3.24,3.24,0,0,1-2.4-.85,3.13,3.13,0,0,1-.84-2.32V1860h1v5.59a2.2,2.2,0,0,0,.59,1.65,2.37,2.37,0,0,0,1.72.58,2.3,2.3,0,0,0,1.67-.58,2.24,2.24,0,0,0,.59-1.66V1860Z" style="fill:#fff"/><path d="M749.49,1868.6h-4.78V1860h4.78v.89h-3.78v2.76h3.55v.88h-3.55v3.15h3.78Z" style="fill:#fff"/><path d="M758.08,1868.6h-1.14l-4.68-7.19h0c.06.85.09,1.62.09,2.32v4.87h-.92V1860h1.13l4.67,7.16h.05c0-.1,0-.44-.06-1s0-1,0-1.23V1860h.94Z" style="fill:#fff"/><path d="M766.56,1868.6h-.95v-6.1c0-.51,0-1,0-1.45a3.58,3.58,0,0,1-.28.26c-.1.09-.56.47-1.39,1.14l-.52-.66,2.27-1.76h.82Z" style="fill:#fff"/><path d="M775.45,1863.69q0,5-3.89,5a3.92,3.92,0,0,1-1.08-.12v-.84a3.49,3.49,0,0,0,1.07.16,2.6,2.6,0,0,0,2.12-.87,4.37,4.37,0,0,0,.78-2.67h-.07a2.1,2.1,0,0,1-.85.74,2.77,2.77,0,0,1-1.2.25,2.41,2.41,0,0,1-1.81-.68,2.6,2.6,0,0,1-.67-1.9,2.87,2.87,0,0,1,.75-2.1,2.84,2.84,0,0,1,3.49-.33,2.83,2.83,0,0,1,1,1.31A5.37,5.37,0,0,1,775.45,1863.69Zm-2.88-3a1.62,1.62,0,0,0-1.3.54,2.28,2.28,0,0,0-.46,1.5,2,2,0,0,0,.43,1.33,1.62,1.62,0,0,0,1.28.48,2.27,2.27,0,0,0,1-.21,1.83,1.83,0,0,0,.71-.6,1.36,1.36,0,0,0,.25-.78,2.71,2.71,0,0,0-.24-1.14,2,2,0,0,0-.67-.82A1.65,1.65,0,0,0,772.57,1860.74Z" style="fill:#fff"/><path d="M779.52,1859.91a2.83,2.83,0,0,1,1.85.55,1.8,1.8,0,0,1,.69,1.5,1.91,1.91,0,0,1-.39,1.16,3.67,3.67,0,0,1-1.26,1,4.17,4.17,0,0,1,1.48,1,1.94,1.94,0,0,1,.44,1.27,2.1,2.1,0,0,1-.74,1.7,3,3,0,0,1-2,.64,3.27,3.27,0,0,1-2.11-.6,2.08,2.08,0,0,1-.74-1.7,2.56,2.56,0,0,1,1.8-2.3,3.24,3.24,0,0,1-1.16-1A2.08,2.08,0,0,1,777,1862a1.79,1.79,0,0,1,.69-1.48A2.87,2.87,0,0,1,779.52,1859.91Zm-1.86,6.53a1.33,1.33,0,0,0,.49,1.09,2.12,2.12,0,0,0,1.38.4,2.08,2.08,0,0,0,1.36-.41,1.42,1.42,0,0,0,.48-1.13,1.39,1.39,0,0,0-.45-1,4.87,4.87,0,0,0-1.6-.86,3.48,3.48,0,0,0-1.26.83A1.58,1.58,0,0,0,777.66,1866.44Zm1.84-5.74a1.73,1.73,0,0,0-1.14.35,1.17,1.17,0,0,0-.42.94,1.32,1.32,0,0,0,.35.93,3.57,3.57,0,0,0,1.27.77,3.25,3.25,0,0,0,1.19-.75,1.43,1.43,0,0,0,.35-1,1.14,1.14,0,0,0-.43-.94A1.79,1.79,0,0,0,779.5,1860.7Z" style="fill:#fff"/><path d="M783.64,1864.94a6.12,6.12,0,0,1,1-3.78,3.49,3.49,0,0,1,2.91-1.25,4.07,4.07,0,0,1,1,.11v.84a3.28,3.28,0,0,0-1-.15,2.63,2.63,0,0,0-2.11.86,4.4,4.4,0,0,0-.79,2.7h.07a2.25,2.25,0,0,1,2-1,2.43,2.43,0,0,1,1.82.7,2.65,2.65,0,0,1,.66,1.89,2.9,2.9,0,0,1-.73,2.1,2.6,2.6,0,0,1-2,.77,2.52,2.52,0,0,1-2.11-1A4.42,4.42,0,0,1,783.64,1864.94Zm2.88,3a1.63,1.63,0,0,0,1.29-.52,2.23,2.23,0,0,0,.46-1.52,1.92,1.92,0,0,0-.43-1.33,1.59,1.59,0,0,0-1.28-.49,2.05,2.05,0,0,0-1,.22,1.64,1.64,0,0,0-.7.6,1.31,1.31,0,0,0-.26.79,2.64,2.64,0,0,0,.23,1.12,2,2,0,0,0,.67.83A1.65,1.65,0,0,0,786.52,1867.89Z" style="fill:#fff"/><path d="M796.08,1864.31a6.2,6.2,0,0,1-.7,3.31,2.59,2.59,0,0,1-4.25,0,6.15,6.15,0,0,1-.72-3.29,6.33,6.33,0,0,1,.7-3.33,2.6,2.6,0,0,1,4.25,0A6.14,6.14,0,0,1,796.08,1864.31Zm-4.68,0a6.18,6.18,0,0,0,.44,2.72,1.58,1.58,0,0,0,2.81,0,8.75,8.75,0,0,0,0-5.42,1.58,1.58,0,0,0-2.81,0A6.12,6.12,0,0,0,791.4,1864.31Z" style="fill:#fff"/><path d="M802.94,1864.31a6.2,6.2,0,0,1-.7,3.31,2.58,2.58,0,0,1-4.24,0,6.15,6.15,0,0,1-.72-3.29A6.34,6.34,0,0,1,798,1861a2.6,2.6,0,0,1,4.25,0A6.14,6.14,0,0,1,802.94,1864.31Zm-4.68,0a6.33,6.33,0,0,0,.44,2.72,1.58,1.58,0,0,0,2.81,0,8.57,8.57,0,0,0,0-5.42,1.58,1.58,0,0,0-2.81,0A6.27,6.27,0,0,0,798.26,1864.31Z" style="fill:#fff"/><path d="M809.8,1864.31a6.2,6.2,0,0,1-.7,3.31,2.58,2.58,0,0,1-4.24,0,6.15,6.15,0,0,1-.72-3.29,6.34,6.34,0,0,1,.69-3.33,2.6,2.6,0,0,1,4.25,0A6.14,6.14,0,0,1,809.8,1864.31Zm-4.68,0a6.33,6.33,0,0,0,.44,2.72,1.58,1.58,0,0,0,2.81,0,8.57,8.57,0,0,0,0-5.42,1.58,1.58,0,0,0-2.81,0A6.27,6.27,0,0,0,805.12,1864.31Z" style="fill:#fff"/><path d="M817,1866.63h-1.27v2h-.93v-2h-4.17v-.85l4.07-5.79h1v5.76H817Zm-2.2-.88v-2.85q0-.84.06-1.89h0a9,9,0,0,1-.53.93l-2.68,3.81Z" style="fill:#fff"/><path d="M823.88,1866.63h-1.27v2h-.93v-2h-4.17v-.85l4.07-5.79h1v5.76h1.27Zm-2.2-.88v-2.85q0-.84.06-1.89h0a9,9,0,0,1-.53.93l-2.67,3.81Z" style="fill:#fff"/><path d="M832,1868.6h-1.13l-4.69-7.19h0c.06.85.09,1.62.09,2.32v4.87h-.92V1860h1.13l4.67,7.16h0c0-.1,0-.44,0-1s0-1,0-1.23V1860H832Z" style="fill:#fff"/><path d="M835.22,1867.21l.09.13a13.92,13.92,0,0,1-.44,1.36c-.19.52-.39,1-.6,1.45h-.73c.1-.41.22-.91.35-1.51s.21-1.07.26-1.43Zm-1.19-4.4c0-.53.23-.79.7-.79s.72.26.72.79a.84.84,0,0,1-.19.58.69.69,0,0,1-.53.21.64.64,0,0,1-.52-.21A.84.84,0,0,1,834,1862.81Z" style="fill:#fff"/><path d="M845.55,1860h1.07l-3.08,8.57h-1l-3.07-8.57h1.06l2,5.55a13.84,13.84,0,0,1,.54,1.86,16.39,16.39,0,0,1,.55-1.9Z" style="fill:#fff"/><path d="M851.6,1868.6l-.19-.91h0a2.72,2.72,0,0,1-1,.81,2.83,2.83,0,0,1-1.2.22,2.17,2.17,0,0,1-1.49-.49,1.78,1.78,0,0,1-.55-1.4q0-1.95,3.12-2l1.09,0v-.4a1.6,1.6,0,0,0-.33-1.11,1.34,1.34,0,0,0-1-.36,4.22,4.22,0,0,0-1.82.49l-.3-.75a5,5,0,0,1,1-.4,4.46,4.46,0,0,1,1.14-.15,2.45,2.45,0,0,1,1.7.51,2.14,2.14,0,0,1,.55,1.64v4.38Zm-2.19-.68a2,2,0,0,0,1.42-.5,1.83,1.83,0,0,0,.52-1.4v-.58l-1,0a3.6,3.6,0,0,0-1.67.36,1.09,1.09,0,0,0-.52,1,1,1,0,0,0,.32.8A1.36,1.36,0,0,0,849.41,1867.92Z" style="fill:#fff"/><path d="M855.3,1868.6h-1v-9.12h1Z" style="fill:#fff"/><path d="M857.28,1860.44a.65.65,0,0,1,.17-.49.57.57,0,0,1,.41-.16.59.59,0,0,1,.4.16.79.79,0,0,1,0,1,.55.55,0,0,1-.4.16.53.53,0,0,1-.41-.16A.66.66,0,0,1,857.28,1860.44Zm1.06,8.16h-1v-6.42h1Z" style="fill:#fff"/><path d="M864.77,1867.74h0a2.29,2.29,0,0,1-2,1,2.4,2.4,0,0,1-2-.86,3.78,3.78,0,0,1-.7-2.45,3.92,3.92,0,0,1,.7-2.47,2.4,2.4,0,0,1,2-.88,2.36,2.36,0,0,1,2,1h.07l0-.46,0-.45v-2.62h1v9.12h-.79Zm-1.95.16a1.78,1.78,0,0,0,1.45-.54,2.72,2.72,0,0,0,.45-1.75v-.2a3.18,3.18,0,0,0-.46-2,1.71,1.71,0,0,0-1.45-.58,1.5,1.5,0,0,0-1.31.66,3.33,3.33,0,0,0-.45,1.88,3.19,3.19,0,0,0,.45,1.86A1.54,1.54,0,0,0,862.82,1867.9Z" style="fill:#fff"/><path d="M867.67,1860.44a.64.64,0,0,1,.16-.49.61.61,0,0,1,.82,0,.79.79,0,0,1,0,1,.61.61,0,0,1-.82,0A.66.66,0,0,1,867.67,1860.44Zm1.05,8.16h-1v-6.42h1Z" style="fill:#fff"/><path d="M872.86,1867.92a4,4,0,0,0,.5,0,3.43,3.43,0,0,0,.38-.08v.74a1.7,1.7,0,0,1-.47.13,3.86,3.86,0,0,1-.55,0c-1.24,0-1.86-.66-1.86-2v-3.82h-.92v-.47l.92-.41.41-1.37h.56v1.49h1.86v.76h-1.86v3.77a1.29,1.29,0,0,0,.28.9A1,1,0,0,0,872.86,1867.92Z" style="fill:#fff"/><path d="M874,1862.18h1l1.4,3.66a15.28,15.28,0,0,1,.58,1.81h0c0-.2.16-.54.32-1s.7-2,1.59-4.45h1l-2.76,7.31a3.78,3.78,0,0,1-1,1.54,2.06,2.06,0,0,1-1.35.45,3.69,3.69,0,0,1-.87-.1v-.77a3.82,3.82,0,0,0,.72.07,1.5,1.5,0,0,0,1.43-1.13l.35-.91Z" style="fill:#fff"/><path d="M887.35,1868.6h-1v-6.1c0-.51,0-1,0-1.45a3.38,3.38,0,0,1-.27.26l-1.4,1.14-.51-.66,2.27-1.76h.82Z" style="fill:#fff"/><path d="M891.69,1868.6l3.55-7.67h-4.67v-.9h5.7v.78l-3.5,7.79Z" style="fill:#fff"/><path d="M901.16,1860,898,1868.6h-1l3.19-8.57Z" style="fill:#fff"/><path d="M907.55,1864.31a6.2,6.2,0,0,1-.7,3.31,2.59,2.59,0,0,1-4.25,0,6.15,6.15,0,0,1-.72-3.29,6.33,6.33,0,0,1,.7-3.33,2.35,2.35,0,0,1,2.13-1.08,2.38,2.38,0,0,1,2.12,1.13A6.14,6.14,0,0,1,907.55,1864.31Zm-4.68,0a6.18,6.18,0,0,0,.44,2.72,1.58,1.58,0,0,0,2.81,0,8.75,8.75,0,0,0,0-5.42,1.58,1.58,0,0,0-2.81,0A6.12,6.12,0,0,0,902.87,1864.31Z" style="fill:#fff"/><path d="M911.57,1859.91a2.88,2.88,0,0,1,1.86.55,1.82,1.82,0,0,1,.68,1.5,1.91,1.91,0,0,1-.39,1.16,3.57,3.57,0,0,1-1.26,1,4.32,4.32,0,0,1,1.49,1,2,2,0,0,1,.44,1.27,2.11,2.11,0,0,1-.75,1.7,3,3,0,0,1-2,.64,3.29,3.29,0,0,1-2.11-.6,2.07,2.07,0,0,1-.73-1.7,2.54,2.54,0,0,1,1.79-2.3,3.24,3.24,0,0,1-1.16-1A2.08,2.08,0,0,1,909,1862a1.79,1.79,0,0,1,.69-1.48A2.83,2.83,0,0,1,911.57,1859.91Zm-1.85,6.53a1.3,1.3,0,0,0,.49,1.09,2.5,2.5,0,0,0,2.73,0,1.42,1.42,0,0,0,.49-1.13,1.4,1.4,0,0,0-.46-1,4.91,4.91,0,0,0-1.59-.86,3.44,3.44,0,0,0-1.27.83A1.62,1.62,0,0,0,909.72,1866.44Zm1.84-5.74a1.75,1.75,0,0,0-1.15.35,1.17,1.17,0,0,0-.42.94,1.36,1.36,0,0,0,.35.93,3.54,3.54,0,0,0,1.28.77,3.29,3.29,0,0,0,1.18-.75,1.43,1.43,0,0,0,.35-1,1.16,1.16,0,0,0-.42-.94A1.83,1.83,0,0,0,911.56,1860.7Z" style="fill:#fff"/><path d="M919.29,1860l-3.19,8.57h-1l3.2-8.57Z" style="fill:#fff"/><path d="M925.63,1868.6H920v-.84l2.26-2.26c.68-.7,1.14-1.2,1.36-1.49a4.3,4.3,0,0,0,.49-.87,2.45,2.45,0,0,0,.16-.91,1.45,1.45,0,0,0-.41-1.08,1.61,1.61,0,0,0-1.16-.41,2.87,2.87,0,0,0-1,.18,4,4,0,0,0-1.06.64l-.52-.66a3.94,3.94,0,0,1,2.58-1,2.74,2.74,0,0,1,1.89.62,2.12,2.12,0,0,1,.69,1.66,3.16,3.16,0,0,1-.46,1.61,9.89,9.89,0,0,1-1.71,2l-1.88,1.83v0h4.41Z" style="fill:#fff"/><path d="M932.54,1864.31a6.2,6.2,0,0,1-.7,3.31,2.59,2.59,0,0,1-4.25,0,6.15,6.15,0,0,1-.72-3.29,6.33,6.33,0,0,1,.7-3.33,2.6,2.6,0,0,1,4.25,0A6.14,6.14,0,0,1,932.54,1864.31Zm-4.68,0a6.18,6.18,0,0,0,.44,2.72,1.58,1.58,0,0,0,2.81,0,8.75,8.75,0,0,0,0-5.42,1.58,1.58,0,0,0-2.81,0A6.12,6.12,0,0,0,927.86,1864.31Z" style="fill:#fff"/><path d="M937.33,1868.6h-1v-6.1c0-.51,0-1,0-1.45a3.38,3.38,0,0,1-.27.26l-1.4,1.14-.51-.66,2.27-1.76h.82Z" style="fill:#fff"/><path d="M943.42,1859.91a2.88,2.88,0,0,1,1.86.55,1.82,1.82,0,0,1,.68,1.5,1.91,1.91,0,0,1-.39,1.16,3.62,3.62,0,0,1-1.25,1,4.26,4.26,0,0,1,1.48,1,2,2,0,0,1,.44,1.27,2.11,2.11,0,0,1-.75,1.7,3,3,0,0,1-2,.64,3.25,3.25,0,0,1-2.11-.6,2,2,0,0,1-.74-1.7,2.56,2.56,0,0,1,1.79-2.3,3.24,3.24,0,0,1-1.16-1,2.15,2.15,0,0,1-.35-1.19,1.79,1.79,0,0,1,.69-1.48A2.84,2.84,0,0,1,943.42,1859.91Zm-1.85,6.53a1.3,1.3,0,0,0,.49,1.09,2.5,2.5,0,0,0,2.73,0,1.44,1.44,0,0,0,0-2.14,4.8,4.8,0,0,0-1.59-.86,3.44,3.44,0,0,0-1.27.83A1.62,1.62,0,0,0,941.57,1866.44Zm1.84-5.74a1.75,1.75,0,0,0-1.15.35,1.17,1.17,0,0,0-.42.94,1.36,1.36,0,0,0,.35.93,3.64,3.64,0,0,0,1.28.77,3.2,3.2,0,0,0,1.18-.75,1.38,1.38,0,0,0,.35-1,1.16,1.16,0,0,0-.42-.94A1.83,1.83,0,0,0,943.41,1860.7Z" style="fill:#fff"/><path d="M947.34,1865.83v-.89h5v.89Z" style="fill:#fff"/><path d="M957.05,1868.6h-.95v-6.1c0-.51,0-1,0-1.45l-.28.26-1.39,1.14-.52-.66,2.27-1.76h.82Z" style="fill:#fff"/><path d="M960.41,1864.94a6.05,6.05,0,0,1,1-3.78,3.47,3.47,0,0,1,2.9-1.25,4,4,0,0,1,1,.11v.84a3.24,3.24,0,0,0-1-.15,2.59,2.59,0,0,0-2.1.86,4.4,4.4,0,0,0-.8,2.7h.07a2.25,2.25,0,0,1,2-1,2.41,2.41,0,0,1,1.82.7,2.66,2.66,0,0,1,.67,1.89,3,3,0,0,1-.73,2.1,2.62,2.62,0,0,1-2,.77,2.52,2.52,0,0,1-2.1-1A4.42,4.42,0,0,1,960.41,1864.94Zm2.87,3a1.64,1.64,0,0,0,1.3-.52,2.28,2.28,0,0,0,.46-1.52,2,2,0,0,0-.43-1.33,1.6,1.6,0,0,0-1.28-.49,2.13,2.13,0,0,0-1,.22,1.77,1.77,0,0,0-.7.6,1.38,1.38,0,0,0-.26.79,2.65,2.65,0,0,0,.24,1.12,1.94,1.94,0,0,0,.66.83A1.69,1.69,0,0,0,963.28,1867.89Z" style="fill:#fff"/><path d="M970.87,1860l-3.2,8.57h-1l3.19-8.57Z" style="fill:#fff"/><path d="M977.25,1864.31a6.2,6.2,0,0,1-.7,3.31,2.58,2.58,0,0,1-4.24,0,6.15,6.15,0,0,1-.72-3.29,6.34,6.34,0,0,1,.69-3.33,2.6,2.6,0,0,1,4.25,0A6.14,6.14,0,0,1,977.25,1864.31Zm-4.68,0A6.33,6.33,0,0,0,973,1867a1.58,1.58,0,0,0,2.81,0,8.57,8.57,0,0,0,0-5.42,1.58,1.58,0,0,0-2.81,0A6.27,6.27,0,0,0,972.57,1864.31Z" style="fill:#fff"/><path d="M981.27,1859.91a2.88,2.88,0,0,1,1.86.55,1.79,1.79,0,0,1,.68,1.5,1.91,1.91,0,0,1-.39,1.16,3.62,3.62,0,0,1-1.25,1,4.26,4.26,0,0,1,1.48,1,2,2,0,0,1,.44,1.27,2.13,2.13,0,0,1-.74,1.7,3,3,0,0,1-2,.64,3.25,3.25,0,0,1-2.11-.6,2.08,2.08,0,0,1-.74-1.7,2.56,2.56,0,0,1,1.79-2.3,3.33,3.33,0,0,1-1.16-1,2.15,2.15,0,0,1-.35-1.19,1.79,1.79,0,0,1,.69-1.48A2.84,2.84,0,0,1,981.27,1859.91Zm-1.85,6.53a1.3,1.3,0,0,0,.49,1.09,2.09,2.09,0,0,0,1.37.4,2,2,0,0,0,1.36-.41,1.39,1.39,0,0,0,.49-1.13,1.36,1.36,0,0,0-.46-1,4.7,4.7,0,0,0-1.59-.86,3.53,3.53,0,0,0-1.27.83A1.62,1.62,0,0,0,979.42,1866.44Zm1.84-5.74a1.75,1.75,0,0,0-1.15.35,1.17,1.17,0,0,0-.41.94,1.35,1.35,0,0,0,.34.93,3.64,3.64,0,0,0,1.28.77,3.2,3.2,0,0,0,1.18-.75,1.38,1.38,0,0,0,.35-1,1.16,1.16,0,0,0-.42-.94A1.79,1.79,0,0,0,981.26,1860.7Z" style="fill:#fff"/><path d="M989,1860l-3.19,8.57h-1L988,1860Z" style="fill:#fff"/><path d="M995.33,1868.6H989.7v-.84l2.26-2.26a18.17,18.17,0,0,0,1.36-1.49,3.87,3.87,0,0,0,.49-.87,2.45,2.45,0,0,0,.16-.91,1.41,1.41,0,0,0-.41-1.08,1.59,1.59,0,0,0-1.16-.41,2.87,2.87,0,0,0-1,.18,4.19,4.19,0,0,0-1.06.64l-.52-.66a3.94,3.94,0,0,1,2.58-1,2.75,2.75,0,0,1,1.9.62,2.15,2.15,0,0,1,.68,1.66,3.16,3.16,0,0,1-.46,1.61,9.89,9.89,0,0,1-1.71,2l-1.87,1.83v0h4.4Z" style="fill:#fff"/><path d="M1002.24,1864.31a6.2,6.2,0,0,1-.7,3.31,2.58,2.58,0,0,1-4.24,0,6.15,6.15,0,0,1-.72-3.29,6.34,6.34,0,0,1,.69-3.33,2.6,2.6,0,0,1,4.25,0A6.14,6.14,0,0,1,1002.24,1864.31Zm-4.68,0A6.33,6.33,0,0,0,998,1867a1.58,1.58,0,0,0,2.81,0,8.57,8.57,0,0,0,0-5.42,1.58,1.58,0,0,0-2.81,0A6.27,6.27,0,0,0,997.56,1864.31Z" style="fill:#fff"/><path d="M1009.06,1868.6h-5.63v-.84l2.25-2.26A18.17,18.17,0,0,0,1007,1864a3.87,3.87,0,0,0,.49-.87,2.46,2.46,0,0,0,.17-.91,1.42,1.42,0,0,0-.42-1.08,1.58,1.58,0,0,0-1.15-.41,2.79,2.79,0,0,0-1,.18,4.06,4.06,0,0,0-1.07.64l-.51-.66a3.94,3.94,0,0,1,2.58-1,2.74,2.74,0,0,1,1.89.62,2.15,2.15,0,0,1,.68,1.66,3.25,3.25,0,0,1-.45,1.61,10.59,10.59,0,0,1-1.71,2l-1.88,1.83v0h4.41Z" style="fill:#fff"/><path d="M1015.92,1868.6h-5.63v-.84l2.25-2.26a18.17,18.17,0,0,0,1.36-1.49,3.51,3.51,0,0,0,.49-.87,2.46,2.46,0,0,0,.17-.91,1.42,1.42,0,0,0-.42-1.08,1.57,1.57,0,0,0-1.15-.41,2.83,2.83,0,0,0-1,.18,4.06,4.06,0,0,0-1.07.64l-.51-.66a3.94,3.94,0,0,1,2.58-1,2.74,2.74,0,0,1,1.89.62,2.11,2.11,0,0,1,.68,1.66,3.25,3.25,0,0,1-.45,1.61,10.59,10.59,0,0,1-1.71,2l-1.88,1.83v0h4.41Z" style="fill:#fff"/><path d="M1017.45,1868a.85.85,0,0,1,.18-.59.64.64,0,0,1,.51-.21.66.66,0,0,1,.53.21.81.81,0,0,1,.2.59.84.84,0,0,1-.2.59.78.78,0,0,1-1,0A.83.83,0,0,1,1017.45,1868Z" style="fill:#fff"/><path d="M416.81,1769.8l2.15-2.74,5-5.48h5.54l-7.15,7.82,7.59,10.19h-5.67l-5.19-7.29L417,1774v5.6h-4.92v-25.07H417v11.19l-.26,4.09Z" style="fill:#fff"/><path d="M444,1779.59l-.95-2.44h-.13a7.22,7.22,0,0,1-2.56,2.16,8.09,8.09,0,0,1-3.42.61,5.56,5.56,0,0,1-4.09-1.49,5.68,5.68,0,0,1-1.49-4.22,4.76,4.76,0,0,1,2-4.23,11.63,11.63,0,0,1,6.05-1.5l3.13-.1v-.79c0-1.83-.94-2.74-2.81-2.74a12.75,12.75,0,0,0-5.07,1.31l-1.63-3.32a14.58,14.58,0,0,1,6.9-1.63,8.62,8.62,0,0,1,5.56,1.58,5.85,5.85,0,0,1,1.93,4.8v12Zm-1.45-8.34-1.91.06a6,6,0,0,0-3.18.78,2.42,2.42,0,0,0-1,2.16c0,1.38.79,2.07,2.38,2.07a3.75,3.75,0,0,0,2.73-1,3.41,3.41,0,0,0,1-2.61Z" style="fill:#fff"/><path d="M462.38,1779.92a6,6,0,0,1-5-2.31h-.26c.18,1.51.26,2.38.26,2.61v7.3h-4.91v-25.94h4l.7,2.34h.22a5.68,5.68,0,0,1,5.11-2.68,5.85,5.85,0,0,1,5,2.47,11.41,11.41,0,0,1,1.8,6.85,13.41,13.41,0,0,1-.85,5,7.09,7.09,0,0,1-2.4,3.24A6.21,6.21,0,0,1,462.38,1779.92Zm-1.45-14.75a3.13,3.13,0,0,0-2.66,1.12,6.42,6.42,0,0,0-.87,3.7v.53a7.64,7.64,0,0,0,.86,4.16,3.09,3.09,0,0,0,2.74,1.26q3.3,0,3.3-5.45a7.83,7.83,0,0,0-.81-4A2.81,2.81,0,0,0,460.93,1765.17Z" style="fill:#fff"/><path d="M478.29,1779.59h-4.92v-25.07h4.92Z" style="fill:#fff"/><path d="M494.88,1779.59l-.95-2.44h-.13a7.2,7.2,0,0,1-2.55,2.16,8.17,8.17,0,0,1-3.43.61,5.53,5.53,0,0,1-4.08-1.49,5.68,5.68,0,0,1-1.49-4.22,4.76,4.76,0,0,1,2-4.23,11.61,11.61,0,0,1,6.05-1.5l3.12-.1v-.79c0-1.83-.93-2.74-2.8-2.74a12.83,12.83,0,0,0-5.08,1.31l-1.62-3.32a14.56,14.56,0,0,1,6.89-1.63,8.61,8.61,0,0,1,5.56,1.58,5.82,5.82,0,0,1,1.93,4.8v12Zm-1.45-8.34-1.9.06a6.08,6.08,0,0,0-3.19.78,2.42,2.42,0,0,0-1,2.16c0,1.38.8,2.07,2.39,2.07a3.75,3.75,0,0,0,2.73-1,3.44,3.44,0,0,0,1-2.61Z" style="fill:#fff"/><path d="M520,1779.59h-4.91v-10.52a5.05,5.05,0,0,0-.69-2.92,2.54,2.54,0,0,0-2.21-1,3.31,3.31,0,0,0-3,1.38,8.47,8.47,0,0,0-.92,4.57v8.47h-4.92v-18h3.76l.66,2.3h.27a5.25,5.25,0,0,1,2.27-2,7.63,7.63,0,0,1,3.28-.67,6.33,6.33,0,0,1,4.77,1.7,6.86,6.86,0,0,1,1.62,4.91Z" style="fill:#fff"/><path d="M524.37,1777.29a2.74,2.74,0,0,1,.72-2,3,3,0,0,1,2.12-.69,2.87,2.87,0,0,1,2.07.71,3.14,3.14,0,0,1,0,4,2.8,2.8,0,0,1-2.06.73,2.89,2.89,0,0,1-2.1-.72A2.68,2.68,0,0,1,524.37,1777.29Z" style="fill:#fff"/><path d="M541.79,1779.92q-8.41,0-8.41-9.24,0-4.59,2.29-7a8.56,8.56,0,0,1,6.55-2.43,12.44,12.44,0,0,1,5.61,1.23l-1.45,3.8c-.77-.31-1.49-.57-2.16-.77a7.27,7.27,0,0,0-2-.29q-3.83,0-3.83,5.44t3.83,5.29a8.84,8.84,0,0,0,2.63-.38,9.35,9.35,0,0,0,2.42-1.19v4.21a8.3,8.3,0,0,1-2.41,1.05A13.77,13.77,0,0,1,541.79,1779.92Z" style="fill:#fff"/><path d="M567.81,1770.56a9.68,9.68,0,0,1-2.32,6.88,8.43,8.43,0,0,1-6.46,2.48,9,9,0,0,1-4.58-1.14,7.56,7.56,0,0,1-3-3.26,11,11,0,0,1-1.07-5,9.61,9.61,0,0,1,2.31-6.87,8.46,8.46,0,0,1,6.48-2.45,9.08,9.08,0,0,1,4.57,1.13,7.53,7.53,0,0,1,3,3.24A10.84,10.84,0,0,1,567.81,1770.56Zm-12.45,0a7.6,7.6,0,0,0,.87,4,3.15,3.15,0,0,0,2.86,1.37,3.08,3.08,0,0,0,2.83-1.36,7.63,7.63,0,0,0,.86-4,7.48,7.48,0,0,0-.87-4,3.71,3.71,0,0,0-5.68,0A7.47,7.47,0,0,0,555.36,1770.56Z" style="fill:#fff"/><path d="M588,1779.59h-4.91v-10.52a5.24,5.24,0,0,0-.66-2.92,2.29,2.29,0,0,0-2-1,3,3,0,0,0-2.74,1.39,9.07,9.07,0,0,0-.85,4.56v8.47h-4.92v-18h3.76l.66,2.3h.27a5,5,0,0,1,2.1-1.94,6.88,6.88,0,0,1,3.14-.7q4,0,5.48,2.64h.43a5,5,0,0,1,2.14-2,7.14,7.14,0,0,1,3.18-.69,6.31,6.31,0,0,1,4.63,1.57q1.58,1.57,1.57,5v11.74H594.3v-10.52a5.33,5.33,0,0,0-.65-2.92,2.31,2.31,0,0,0-2.06-1,3.07,3.07,0,0,0-2.7,1.29,7.4,7.4,0,0,0-.89,4.1Z" style="fill:#fff"/><path d="M603.58,1777.29a2.7,2.7,0,0,1,.73-2,2.93,2.93,0,0,1,2.11-.69,2.87,2.87,0,0,1,2.07.71,2.68,2.68,0,0,1,.73,2,2.72,2.72,0,0,1-.74,2,2.79,2.79,0,0,1-2.06.73,2.91,2.91,0,0,1-2.1-.72A2.68,2.68,0,0,1,603.58,1777.29Z" style="fill:#fff"/><path d="M626.25,1774.25a5,5,0,0,1-1.92,4.22,9.59,9.59,0,0,1-5.76,1.45,17.78,17.78,0,0,1-3.35-.27,13.11,13.11,0,0,1-2.6-.78v-4.06a17.18,17.18,0,0,0,3.09,1.08,12.43,12.43,0,0,0,3,.43c1.78,0,2.67-.51,2.67-1.54a1.3,1.3,0,0,0-.35-1,5.46,5.46,0,0,0-1.23-.82c-.58-.3-1.35-.66-2.32-1.07a14.89,14.89,0,0,1-3-1.61,4.55,4.55,0,0,1-1.42-1.7,5.71,5.71,0,0,1-.44-2.36,4.27,4.27,0,0,1,1.86-3.71,9,9,0,0,1,5.28-1.32,14.89,14.89,0,0,1,6.33,1.42l-1.48,3.54c-.9-.38-1.75-.7-2.53-1a8.23,8.23,0,0,0-2.4-.37c-1.45,0-2.18.4-2.18,1.18a1.39,1.39,0,0,0,.7,1.14,18.87,18.87,0,0,0,3.07,1.44,14.64,14.64,0,0,1,3.1,1.59,5,5,0,0,1,1.45,1.71A5.29,5.29,0,0,1,626.25,1774.25Z" style="fill:#fff"/><path d="M645.77,1761.58v2.5l-2.82.72a5,5,0,0,1,.77,2.71,5.46,5.46,0,0,1-2,4.52,8.76,8.76,0,0,1-5.62,1.62l-.88-.05-.73-.08a1.66,1.66,0,0,0-.76,1.29c0,.71.91,1.06,2.71,1.06h3.06a7,7,0,0,1,4.52,1.28,4.52,4.52,0,0,1,1.56,3.73,5.54,5.54,0,0,1-2.64,4.9c-1.75,1.16-4.28,1.74-7.56,1.74a10.49,10.49,0,0,1-5.76-1.31,4.16,4.16,0,0,1-2-3.68,3.89,3.89,0,0,1,1-2.73,5.77,5.77,0,0,1,3-1.56,3.37,3.37,0,0,1-1.32-1,2.62,2.62,0,0,1,0-3.28,7.16,7.16,0,0,1,1.73-1.34,4.78,4.78,0,0,1-2.25-2,6,6,0,0,1-.83-3.19,5.64,5.64,0,0,1,1.92-4.56,8.31,8.31,0,0,1,5.48-1.61,14.26,14.26,0,0,1,1.79.14c.7.09,1.14.16,1.33.2Zm-13.91,20.56a1.79,1.79,0,0,0,1,1.6,5.43,5.43,0,0,0,2.73.58,9.72,9.72,0,0,0,4.14-.73,2.2,2.2,0,0,0,1.5-2,1.4,1.4,0,0,0-.89-1.4,7.19,7.19,0,0,0-2.74-.39H635a3.83,3.83,0,0,0-2.27.64A1.94,1.94,0,0,0,631.86,1782.14Zm1.79-14.66a3.64,3.64,0,0,0,.67,2.32,2.41,2.41,0,0,0,2,.85,2.38,2.38,0,0,0,2-.85,3.76,3.76,0,0,0,.64-2.32c0-2.17-.89-3.26-2.67-3.26S633.65,1765.31,633.65,1767.48Z" style="fill:#fff"/><rect x="588.59" y="1523.01" width="32.44" height="32.44" style="fill:#fff"/><rect x="434.28" y="1523.01" width="32.44" height="32.44" style="fill:#fff"/><rect x="434.28" y="1677.69" width="32.44" height="32.44" style="fill:#fff"/><path d="M412.17,1732.33h76.72V1655.6H412.17ZM422.55,1666h56v56h-56Z" style="fill:#fff"/><path d="M488.89,1500.86H412.17v76.73h76.72Zm-10.38,66.35h-56v-56h56Z" style="fill:#fff"/><path d="M566.78,1500.86v76.73H643.5v-76.73Zm66.34,66.35h-56v-56h56Z" style="fill:#fff"/><rect x="544.07" y="1500.48" width="11.03" height="11.03" style="fill:#fff"/><rect x="566.45" y="1654.95" width="11.03" height="11.03" style="fill:#fff"/><path d="M478.51,1599.85h21.76v10.46H511v22.74h22.27v-11h11.07v-11h10.73v-11H544.36v-11.18h10.71v11h11.38v11h-11v11h22.06v-22h11.11v22H599.3v.12h11v-11H599.62v-11.11h10.71v-11H555.09v-21.7H544.36v-11h10.73V1523H511.3v-11.5h21.5v-11H500.36v1.4h-.09v86.94H478.51v11h-11v22.07h32.45v-11H478.51Zm32.79-32.73h10.75v-11H511.3v-22h11v11h11v-11h10.78v22H533.33v11h10.74V1578H533.29v-11.23h-11v21.7h11.06v22.92H522.05V1589H511.3Z" style="fill:#fff"/><rect x="500.03" y="1721.26" width="33.1" height="11.2" style="fill:#fff"/><polygon points="466.72 1644.2 466.72 1633.21 466.72 1633.17 466.72 1622.18 456.04 1622.18 455.69 1622.18 445.01 1622.18 445.01 1633.21 455.69 1633.21 455.69 1644.2 466.72 1644.2" style="fill:#fff"/><polygon points="444.46 1633.17 423.2 1633.17 423.2 1622.22 444.46 1622.22 444.46 1611.36 455.69 1611.36 455.69 1599.85 466.72 1599.85 466.72 1588.82 455.69 1588.82 455.69 1599.35 423.2 1599.35 423.2 1588.82 412.17 1588.82 412.17 1599.85 422.75 1599.85 422.75 1611.19 412.17 1611.19 412.17 1621.87 412.17 1622.22 412.17 1633.17 412.17 1635.81 412.17 1644.2 444.46 1644.2 444.46 1633.17" style="fill:#fff"/><polygon points="488.89 1633.17 477.86 1633.17 477.86 1644.2 488.89 1644.2 488.89 1644.2 499.92 1644.2 499.92 1633.17 488.89 1633.17 488.89 1633.17" style="fill:#fff"/><polygon points="555.43 1688.39 566.46 1688.39 566.46 1688.39 577.49 1688.39 577.49 1677.36 566.46 1677.36 566.46 1677.36 555.43 1677.36 555.43 1688.39" style="fill:#fff"/><polygon points="522.1 1665.98 532.8 1665.98 532.8 1654.95 522.33 1654.95 522.33 1644.57 511.3 1644.57 511.3 1644.57 500.27 1644.57 500.27 1654.95 500.27 1655.6 500.27 1665.98 511.07 1665.98 511.07 1677.01 522.1 1677.01 522.1 1665.98" style="fill:#fff"/><rect x="632.47" y="1588.82" width="11.03" height="11.03" style="fill:#fff"/><polygon points="632.06 1599.85 621.03 1599.85 621.03 1644.2 628.64 1644.2 632.06 1644.2 643.5 1644.2 643.5 1622.02 632.06 1622.02 632.06 1599.85" style="fill:#fff"/><rect x="632.72" y="1721.06" width="10.78" height="11.61" style="fill:#fff"/><rect x="500.27" y="1677.36" width="11.03" height="11.03" style="fill:#fff"/><polygon points="632.39 1654.99 621.36 1654.99 621.36 1654.95 610.33 1654.95 610.33 1644.57 599.62 1644.57 599.62 1633.58 588.59 1633.58 588.51 1633.58 588.51 1622.55 577.48 1622.55 577.48 1633.58 566.46 1633.58 566.44 1633.58 544.39 1633.58 544.39 1644.61 544.39 1644.61 544.39 1655.14 544.39 1655.6 544.39 1666.37 544.36 1666.37 538.05 1666.37 533.33 1666.37 533.33 1688.45 533.29 1688.45 525.4 1688.45 522.26 1688.45 522.26 1699.48 511.3 1699.48 511.3 1710.51 522.33 1710.51 522.33 1710.51 533.36 1710.51 544.36 1710.51 544.36 1710.42 544.36 1709.26 544.36 1699.48 544.39 1699.48 555.42 1699.48 555.42 1688.45 544.39 1688.45 544.36 1688.45 544.36 1676.83 544.39 1676.83 555.07 1676.83 555.07 1666.37 555.07 1655.6 555.42 1655.6 555.42 1655.6 566.45 1655.6 566.45 1644.61 566.46 1644.61 588.59 1644.61 588.59 1677.01 588.59 1677.63 588.59 1710.42 577.56 1710.42 577.56 1699.39 566.53 1699.39 566.53 1710.42 555.5 1710.42 555.5 1721.07 544.39 1721.07 544.39 1732.46 577.49 1732.46 577.49 1721.07 588.59 1721.07 599.55 1721.07 599.55 1732.67 610.33 1732.67 610.33 1721.07 599.62 1721.07 599.62 1710.07 610.33 1710.07 610.33 1699.04 599.62 1699.04 599.62 1688.39 610.33 1688.39 610.33 1677.36 599.62 1677.36 599.62 1677.01 599.62 1655.6 610.33 1655.6 610.33 1665.98 621.36 1665.98 621.36 1688.39 610.56 1688.39 610.56 1699.04 621.36 1699.04 632.39 1699.04 643.5 1699.04 643.5 1688.39 632.39 1688.39 632.39 1654.99" style="fill:#fff"/></g></g></svg>