<svg xmlns="http://www.w3.org/2000/svg" viewBox="0 0 102.48 36.87"><title>Asset 23</title><g id="Layer_2" data-name="Layer 2"><g id="Layer_1-2" data-name="Layer 1"><path d="M18.36,36.25H8.72V8.45H0V.56H27.05V8.45H18.36Z" style="fill:#fff"/><path d="M70.55,18.36q0,9-4.42,13.7T53.19,36.74q-8.4,0-12.88-4.71T35.83,18.31q0-8.91,4.46-13.61t13-4.7q8.52,0,12.92,4.66T70.55,18.36ZM46,18.36q0,10.35,7.2,10.35a6.22,6.22,0,0,0,5.44-2.51q1.77-2.52,1.77-7.84t-1.8-7.9a6.12,6.12,0,0,0-5.36-2.55Q46,7.91,46,18.36Z" style="fill:#fff"/><path d="M85.34,23.66v-2.1a7.8,7.8,0,0,1,1-4,10.12,10.12,0,0,1,3.47-3.21,13.15,13.15,0,0,0,2.84-2.25,3.4,3.4,0,0,0,.87-2.29,1.85,1.85,0,0,0-.93-1.63,4.4,4.4,0,0,0-2.42-.6,19.06,19.06,0,0,0-8.62,2.62L78.14,3.52A25.16,25.16,0,0,1,90.83.05q5.44,0,8.55,2.39A7.79,7.79,0,0,1,102.48,9a9.28,9.28,0,0,1-1.38,5.11,13.88,13.88,0,0,1-4.41,4.09,18,18,0,0,0-3.21,2.43,2.75,2.75,0,0,0-.64,1.82v1.25Zm-1,8.54a4.51,4.51,0,0,1,1.31-3.46,5.4,5.4,0,0,1,3.84-1.23,5.27,5.27,0,0,1,3.75,1.24A4.51,4.51,0,0,1,94.5,32.2a4.37,4.37,0,0,1-1.36,3.44,5.28,5.28,0,0,1-3.7,1.23,5.53,5.53,0,0,1-3.78-1.21A4.39,4.39,0,0,1,84.29,32.2Z" style="fill:#fff"/></g></g></svg>